<?xml version="1.0" standalone="no"?>
<!DOCTYPE svg PUBLIC "-//W3C//DTD SVG 1.1//EN" "http://www.w3.org/Graphics/SVG/1.1/DTD/svg11.dtd" >
<svg>
<metadata>
Created by FontForge 20090622 at Tue Apr  7 08:20:48 2020
 By deploy user
Copyright (c) 1994, Tobias Frere-Jones. Designed by Tobias Frere-Jones. Produced by The Font Bureau, Inc. All rights reserved.
</metadata>
<defs>
<font id="NiagaraSolid-Reg" horiz-adv-x="614" >
  <font-face 
    font-family="Niagara Solid"
    font-weight="400"
    font-stretch="condensed"
    units-per-em="2048"
    panose-1="4 2 5 2 7 7 2 2 2 2"
    ascent="1638"
    descent="-410"
    x-height="1065"
    cap-height="1434"
    bbox="-193 -401 1403 1792"
    underline-thickness="120"
    underline-position="-212"
    unicode-range="U+0020-U+F002"
  />
<missing-glyph horiz-adv-x="1024" 
d="M128 0v1638h768v-1638h-768zM256 128h512v1382h-512v-1382z" />
    <glyph glyph-name=".notdef" horiz-adv-x="1024" 
d="M128 0v1638h768v-1638h-768zM256 128h512v1382h-512v-1382z" />
    <glyph glyph-name="glyph1" horiz-adv-x="0" 
 />
    <glyph glyph-name="glyph2" horiz-adv-x="307" 
 />
    <glyph glyph-name="space" unicode=" " horiz-adv-x="307" 
 />
    <glyph glyph-name="exclam" unicode="!" horiz-adv-x="319" 
d="M242 852l-52 -545h-61l-51 545v582h164v-582zM242 0h-164v246h164v-246z" />
    <glyph glyph-name="quotedbl" unicode="&#x22;" horiz-adv-x="492" 
d="M438 1397l-49 -393h-65l-50 393v37h164v-37zM217 1397l-49 -393h-66l-49 393v37h164v-37z" />
    <glyph glyph-name="numbersign" unicode="#" horiz-adv-x="717" 
d="M707 1004h-89l-49 -574h97v-37h-101l-33 -393h-159l33 393h-152l-33 -393h-160l33 393h-84v37h88l49 574h-96v36h101l32 394h160l-33 -394h152l33 394h159l-32 -394h84v-36zM459 1004h-152l-49 -574h152z" />
    <glyph glyph-name="dollar" unicode="$" horiz-adv-x="578" 
d="M524 209q0 -82 -59.5 -140.5t-151.5 -66.5v-125h-49v123q-92 9 -151.5 68t-59.5 141v221h164v-311q0 -82 72 -82q71 0 71 82v239q0 102 -49 179l-205 319q-53 83 -53 184v185q0 81 59.5 140t151.5 67v124h49v-124q92 -8 151.5 -67t59.5 -140v-221h-164v311q0 82 -71 82
q-72 0 -72 -82v-230q0 -101 49 -178l205 -319q53 -83 53 -185v-194z" />
    <glyph glyph-name="percent" unicode="%" horiz-adv-x="993" 
d="M440 780q0 -73 -56 -124.5t-140 -51.5q-85 0 -141 51.5t-56 124.5v488q0 73 56 124.5t141 51.5q84 0 140 -51.5t56 -124.5v-488zM786 1434l-532 -1434h-47l532 1434h47zM946 166q0 -73 -56 -124.5t-140 -51.5q-85 0 -141 51.5t-56 124.5v487q0 74 56 125t141 51
q84 0 140 -51t56 -125v-487zM299 707v634q0 66 -55 66q-56 0 -56 -66v-634q0 -66 56 -66q55 0 55 66zM805 92v635q0 66 -55 66q-56 0 -56 -66v-635q0 -65 56 -65q55 0 55 65z" />
    <glyph glyph-name="ampersand" unicode="&#x26;" horiz-adv-x="631" 
d="M604 739h-51v-540q0 -86 -72 -147.5t-174 -61.5q-101 0 -173.5 61.5t-72.5 147.5v368q0 131 144 191q-144 56 -144 190v287q0 86 72.5 147.5t173.5 61.5q102 0 174 -61.5t72 -147.5v-231h-164v321q0 34 -24 58t-58 24t-58 -24t-24 -58v-467q0 -34 24 -58t58 -24h297v-37z
M389 109v630h-82q-34 0 -58 -24t-24 -58v-548q0 -34 24 -58t58 -24t58 24t24 58z" />
    <glyph glyph-name="quotesingle" unicode="'" horiz-adv-x="270" 
d="M217 1397l-49 -393h-66l-49 393v37h164v-37z" />
    <glyph glyph-name="parenleft" unicode="(" horiz-adv-x="358" 
d="M324 0h-31q-100 0 -166 61t-66 148v1016q0 87 66 148t166 61h31v-37h-31q-72 0 -72 -82v-1196q0 -82 72 -82h31v-37z" />
    <glyph glyph-name="parenright" unicode=")" horiz-adv-x="358" 
d="M297 209q0 -87 -65.5 -148t-165.5 -61h-31v37h31q71 0 71 82v1196q0 82 -71 82h-31v37h31q100 0 165.5 -61t65.5 -148v-1016z" />
    <glyph glyph-name="asterisk" unicode="*" horiz-adv-x="553" 
d="M502 1061l-10 -17l-164 43l-41 -153h-21l-41 153l-164 -43l-10 17l129 123l-129 123l10 16l164 -43l41 154h21l41 -154l164 43l10 -16l-129 -123z" />
    <glyph glyph-name="plus" unicode="+" horiz-adv-x="471" 
d="M436 735h-174v-188h-53v188h-174v45h174v189h53v-189h174v-45z" />
    <glyph glyph-name="comma" unicode="," horiz-adv-x="256" 
d="M225 213l-114 -336h-76l33 369h157v-33z" />
    <glyph glyph-name="hyphen" unicode="-" horiz-adv-x="307" 
d="M272 733h-237v49h237v-49z" />
    <glyph glyph-name="hyphen" unicode="&#x2010;" horiz-adv-x="307" 
d="M272 733h-237v49h237v-49z" />
    <glyph glyph-name="period" unicode="." horiz-adv-x="256" 
d="M207 0h-158v246h158v-246z" />
    <glyph glyph-name="slash" unicode="/" horiz-adv-x="328" 
d="M295 1434l-205 -1434h-57l205 1434h57z" />
    <glyph glyph-name="zero" unicode="0" 
d="M553 199q0 -86 -72 -147.5t-174 -61.5q-101 0 -173.5 61.5t-72.5 147.5v1036q0 86 72.5 147.5t173.5 61.5q102 0 174 -61.5t72 -147.5v-1036zM389 109v1216q0 34 -24 58t-58 24t-58 -24t-24 -58v-1216q0 -34 24 -58t58 -24t58 24t24 58z" />
    <glyph glyph-name="one" unicode="1" horiz-adv-x="330" 
d="M301 0h-266v37h51v1360h-51v37h215v-1397h51v-37z" />
    <glyph glyph-name="two" unicode="2" horiz-adv-x="594" 
d="M532 0h-471v393q0 101 54 185l204 319q50 77 50 178v250q0 82 -72 82t-72 -82v-321h-164v231q0 87 68 148t168 61t167.5 -61t67.5 -148v-205q0 -101 -53 -184l-205 -320q-49 -76 -49 -178v-311h144v393h163v-430z" />
    <glyph glyph-name="three" unicode="3" horiz-adv-x="594" 
d="M532 199q0 -91 -67.5 -150t-169.5 -59t-170 59t-68 150v231h164v-321q0 -82 74 -82t74 82v548q0 34 -24 58t-58 24h-125v37h125q34 0 58 24t24 58v467q0 82 -74 82t-74 -82v-321h-164v231q0 90 68 149.5t170 59.5t169.5 -59.5t67.5 -149.5v-287q0 -134 -143 -190
q143 -60 143 -191v-368z" />
    <glyph glyph-name="four" unicode="4" horiz-adv-x="532" 
d="M508 0h-266v37h51v293h-277v43l277 1061h164v-1061h51v-43h-51v-293h51v-37zM293 373v889l-230 -889h230z" />
    <glyph glyph-name="five" unicode="5" 
d="M553 199q0 -86 -72 -147.5t-174 -61.5q-101 0 -173.5 61.5t-72.5 147.5v231h164v-321q0 -34 24 -58t58 -24t58 24t24 58v548q0 34 -24 58t-58 24h-235v695h460v-430h-163v393h-133v-621h71q102 0 174 -61.5t72 -147.5v-368z" />
    <glyph glyph-name="six" unicode="6" 
d="M553 199q0 -86 -72 -147.5t-174 -61.5q-101 0 -173.5 61.5t-72.5 147.5v1036q0 86 72.5 147.5t173.5 61.5q102 0 174 -61.5t72 -147.5v-231h-164v321q0 34 -24 58t-58 24t-58 -24t-24 -58v-577q46 38 125 38q203 0 203 -188v-399zM389 109v559q0 77 -82 77q-44 0 -82 -34
v-602q0 -34 24 -58t58 -24t58 24t24 58z" />
    <glyph glyph-name="seven" unicode="7" horiz-adv-x="567" 
d="M537 1397l-242 -1397h-162l242 1397h-180v-393h-160v430h502v-37z" />
    <glyph glyph-name="eight" unicode="8" 
d="M553 199q0 -86 -72 -147.5t-174 -61.5q-101 0 -173.5 61.5t-72.5 147.5v368q0 131 144 191q-144 56 -144 190v287q0 86 72.5 147.5t173.5 61.5q102 0 174 -61.5t72 -147.5v-287q0 -134 -143 -190q143 -60 143 -191v-368zM389 858v467q0 34 -24 58t-58 24t-58 -24t-24 -58
v-467q0 -34 24 -58t58 -24t58 24t24 58zM389 109v548q0 34 -24 58t-58 24t-58 -24t-24 -58v-548q0 -34 24 -58t58 -24t58 24t24 58z" />
    <glyph glyph-name="nine" unicode="9" 
d="M553 199q0 -86 -72 -147.5t-174 -61.5q-101 0 -173.5 61.5t-72.5 147.5v231h164v-321q0 -34 24 -58t58 -24t58 24t24 58v577q-46 -39 -125 -39q-203 0 -203 189v399q0 86 72.5 147.5t173.5 61.5q102 0 174 -61.5t72 -147.5v-1036zM389 723v602q0 34 -24 58t-58 24
t-58 -24t-24 -58v-559q0 -78 82 -78q44 0 82 35z" />
    <glyph glyph-name="colon" unicode=":" horiz-adv-x="256" 
d="M207 530h-158v246h158v-246zM207 0h-158v246h158v-246z" />
    <glyph glyph-name="semicolon" unicode=";" horiz-adv-x="256" 
d="M211 530h-158v246h158v-246zM211 213l-115 -336h-76l33 369h158v-33z" />
    <glyph glyph-name="less" unicode="&#x3c;" horiz-adv-x="553" 
d="M463 563l-402 174v41l402 174v-55l-336 -139l336 -140v-55z" />
    <glyph glyph-name="equal" unicode="=" horiz-adv-x="553" 
d="M477 823h-401v47h401v-47zM477 645h-401v47h401v-47z" />
    <glyph glyph-name="greater" unicode="&#x3e;" horiz-adv-x="553" 
d="M492 737l-402 -174v55l336 140l-336 139v55l402 -174v-41z" />
    <glyph glyph-name="question" unicode="?" horiz-adv-x="561" 
d="M512 1030q0 -101 -53 -184l-51 -80q-68 -106 -76 -193l-25 -266h-61l-29 307q-4 44 -4 80q0 69 35 123l51 80q49 77 49 178v250q0 82 -72 82q-71 0 -71 -82v-321h-164v231q0 87 67.5 148t167.5 61q101 0 168.5 -61t67.5 -148v-205zM358 0h-163v246h163v-246z" />
    <glyph glyph-name="at" unicode="@" horiz-adv-x="754" 
d="M692 487q0 -122 -119 -122q-76 0 -124 51q-52 -51 -113 -51q-135 0 -135 133v434q0 131 135 131q62 0 94 -27v21h115v-586q0 -74 49 -74q59 0 59 74v528q0 103 -78.5 173.5t-197.5 70.5t-198 -70.5t-79 -173.5v-565q0 -102 79 -173t198 -71h172v-36h-172q-136 0 -226 83
t-90 201v557q0 119 90 202t226 83t227 -84q88 -82 88 -201v-508zM430 434v576q-24 24 -61 24q-54 0 -54 -53v-537q0 -51 41 -51q44 0 74 41z" />
    <glyph glyph-name="A" unicode="A" horiz-adv-x="563" 
d="M553 0h-266v37h51l-37 416h-147l-41 -416h51v-37h-154v37h51l144 1397h164l133 -1397h51v-37zM299 489l-68 775l-75 -775h143z" />
    <glyph glyph-name="B" unicode="B" horiz-adv-x="625" 
d="M563 209q0 -86 -72 -147.5t-174 -61.5h-286v37h51v1360h-51v37h286q102 0 174 -61.5t72 -147.5v-277q0 -134 -143 -190q143 -60 143 -191v-358zM399 858v457q0 34 -24 58t-58 24h-71v-621h71q34 0 58 24t24 58zM399 119v538q0 34 -24 58t-58 24h-71v-702h71q34 0 58 24
t24 58z" />
    <glyph glyph-name="C" unicode="C" 
d="M553 199q0 -86 -72 -147.5t-174 -61.5q-101 0 -173.5 61.5t-72.5 147.5v1036q0 86 72.5 147.5t173.5 61.5q102 0 174 -61.5t72 -147.5v-231h-164v321q0 34 -24 58t-58 24t-58 -24t-24 -58v-1216q0 -34 24 -58t58 -24t58 24t24 58v321h164v-231z" />
    <glyph glyph-name="D" unicode="D" horiz-adv-x="625" 
d="M563 209q0 -86 -72 -147.5t-174 -61.5h-286v37h51v1360h-51v37h286q102 0 174 -61.5t72 -147.5v-1016zM399 119v1196q0 34 -24 58t-58 24h-71v-1360h71q34 0 58 24t24 58z" />
    <glyph glyph-name="E" unicode="E" horiz-adv-x="594" 
d="M543 0h-512v37h51v1360h-51v37h512v-430h-164v393h-133v-621h194v-37h-194v-702h133v393h164v-430z" />
    <glyph glyph-name="F" unicode="F" horiz-adv-x="563" 
d="M532 1004h-163v393h-123v-621h184v-37h-184v-702h51v-37h-266v37h51v1360h-51v37h501v-430z" />
    <glyph glyph-name="G" unicode="G" 
d="M553 199q0 -86 -72 -147.5t-174 -61.5q-101 0 -173.5 61.5t-72.5 147.5v1036q0 86 72.5 147.5t173.5 61.5q102 0 174 -61.5t72 -147.5v-231h-164v321q0 34 -24 58t-58 24t-58 -24t-24 -58v-1216q0 -34 24 -58t58 -24t58 24t24 58v630h-82v37h246v-577z" />
    <glyph glyph-name="H" unicode="H" horiz-adv-x="655" 
d="M625 0h-267v37h52v702h-164v-702h51v-37h-266v37h51v1360h-51v37h266v-37h-51v-621h164v621h-52v37h267v-37h-52v-1360h52v-37z" />
    <glyph glyph-name="I" unicode="I" horiz-adv-x="336" 
d="M301 0h-266v37h51v1360h-51v37h266v-37h-51v-1360h51v-37z" />
    <glyph glyph-name="J" unicode="J" horiz-adv-x="563" 
d="M543 1397h-51v-1219q0 -79 -62 -132q-65 -56 -164 -56t-163 56q-62 53 -62 132v252h164v-330q0 -73 61 -73q62 0 62 73v1297h-52v37h267v-37z" />
    <glyph glyph-name="K" unicode="K" horiz-adv-x="635" 
d="M625 0h-199l-180 696v-659h51v-37h-266v37h51v1360h-51v37h266v-37h-51v-621l225 621h-51v37h153v-37h-51l-176 -486l227 -874h52v-37z" />
    <glyph glyph-name="L" unicode="L" horiz-adv-x="563" 
d="M532 0h-501v37h51v1360h-51v37h266v-37h-51v-1360h123v393h163v-430z" />
    <glyph glyph-name="M" unicode="M" horiz-adv-x="760" 
d="M729 0h-266v37h51v977l-115 -1014h-131l-135 1014v-977h51v-37h-153v37h51v1360h-51v37h217l141 -1117l123 1117h217v-37h-51v-1360h51v-37z" />
    <glyph glyph-name="N" unicode="N" horiz-adv-x="594" 
d="M563 1397h-51v-1397h-131l-248 1116v-1079h51v-37h-153v37h51v1360h-51v37h207l223 -996v959h-51v37h153v-37z" />
    <glyph glyph-name="O" unicode="O" 
d="M553 199q0 -86 -72 -147.5t-174 -61.5q-101 0 -173.5 61.5t-72.5 147.5v1036q0 86 72.5 147.5t173.5 61.5q102 0 174 -61.5t72 -147.5v-1036zM389 109v1216q0 34 -24 58t-58 24t-58 -24t-24 -58v-1216q0 -34 24 -58t58 -24t58 24t24 58z" />
    <glyph glyph-name="P" unicode="P" horiz-adv-x="604" 
d="M563 823q0 -86 -72 -147.5t-174 -61.5h-71v-577h51v-37h-266v37h51v1360h-51v37h286q102 0 174 -61.5t72 -147.5v-402zM399 733v582q0 34 -24 58t-58 24h-71v-746h71q34 0 58 24t24 58z" />
    <glyph glyph-name="Q" unicode="Q" 
d="M553 199q0 -81 -65.5 -141.5t-159.5 -67.5v-174h-41v174q-95 7 -160.5 67.5t-65.5 141.5v1036q0 86 72.5 147.5t173.5 61.5q102 0 174 -61.5t72 -147.5v-1036zM389 109v1216q0 34 -24 58t-58 24t-58 -24t-24 -58v-1216q0 -62 62 -80v213h41v-213q61 18 61 80z" />
    <glyph glyph-name="R" unicode="R" horiz-adv-x="635" 
d="M614 0h-71q-144 0 -144 150v507q0 34 -24 58t-58 24h-71v-702h51v-37h-266v37h51v1360h-51v37h286q102 0 174 -61.5t72 -147.5v-277q0 -134 -143 -190q143 -60 143 -191v-475q0 -55 47 -55h4v-37zM399 858v457q0 34 -24 58t-58 24h-71v-621h71q34 0 58 24t24 58z" />
    <glyph glyph-name="S" unicode="S" horiz-adv-x="578" 
d="M524 199q0 -87 -67.5 -148t-167.5 -61q-101 0 -168.5 61t-67.5 148v231h164v-321q0 -82 72 -82q71 0 71 82v249q0 102 -49 179l-205 319q-53 83 -53 184v195q0 87 67.5 148t168.5 61q100 0 167.5 -61t67.5 -148v-231h-164v321q0 82 -71 82q-72 0 -72 -82v-240
q0 -101 49 -178l205 -319q53 -83 53 -185v-204z" />
    <glyph glyph-name="T" unicode="T" horiz-adv-x="676" 
d="M645 1004h-151v393h-74v-1360h51v-37h-266v37h51v1360h-74v-393h-151v430h614v-430z" />
    <glyph glyph-name="U" unicode="U" horiz-adv-x="635" 
d="M614 1397h-51v-1198q0 -86 -72 -147.5t-174 -61.5q-101 0 -173 61.5t-72 147.5v1198h-52v37h267v-37h-51v-1288q0 -34 24 -58t57 -24q34 0 58 24t24 58v1288h-51v37h266v-37z" />
    <glyph glyph-name="V" unicode="V" horiz-adv-x="563" 
d="M553 1397h-51l-144 -1397h-163l-134 1397h-51v37h266v-37h-51l107 -1227l119 1227h-52v37h154v-37z" />
    <glyph glyph-name="W" unicode="W" horiz-adv-x="805" 
d="M795 1397h-52l-96 -1397h-164l-77 1182l-74 -1182h-164l-107 1397h-51v37h266v-37h-51l76 -1166l78 1203h164l80 -1203l69 1166h-51v37h154v-37z" />
    <glyph glyph-name="X" unicode="X" horiz-adv-x="543" 
d="M532 0h-276v37h51l-90 526l-108 -526h51v-37h-150v37h51l134 645l-123 715h-52v37h277v-37h-51l82 -467l96 467h-51v37h149v-37h-51l-125 -584l135 -776h51v-37z" />
    <glyph glyph-name="Y" unicode="Y" horiz-adv-x="584" 
d="M573 1397h-51l-153 -817v-543h51v-37h-266v37h51v543l-144 817h-51v37h262v-37h-51l121 -713l131 713h-51v37h151v-37z" />
    <glyph glyph-name="Z" unicode="Z" horiz-adv-x="582" 
d="M541 1397l-336 -1360h174v393h151v-430h-489v37l336 1360h-174v-393h-152v430h490v-37z" />
    <glyph glyph-name="bracketleft" unicode="[" horiz-adv-x="358" 
d="M324 0h-252v1434h252v-37h-93v-1360h93v-37z" />
    <glyph glyph-name="backslash" unicode="\" horiz-adv-x="328" 
d="M295 0h-57l-205 1434h57z" />
    <glyph glyph-name="bracketright" unicode="]" horiz-adv-x="358" 
d="M287 0h-252v37h92v1360h-92v37h252v-1434z" />
    <glyph glyph-name="asciicircum" unicode="^" horiz-adv-x="573" 
d="M481 1004h-51l-143 358l-144 -358h-51l174 430h41z" />
    <glyph glyph-name="underscore" unicode="_" horiz-adv-x="512" 
d="M512 -184h-512v45h512v-45z" />
    <glyph glyph-name="grave" unicode="`" 
d="M403 1126h-45l-213 287v21h174z" />
    <glyph glyph-name="a" unicode="a" horiz-adv-x="551" 
d="M541 0h-211v29q-45 -39 -115 -39q-170 0 -170 188v236q0 198 236 198h49v344q0 82 -60 82q-59 0 -59 -82v-217h-160v127q0 95 59.5 152t159.5 57q101 0 160 -57t59 -152v-829h52v-37zM330 66v509h-47q-78 0 -78 -81v-385q0 -78 55 -78q35 0 70 35z" />
    <glyph glyph-name="b" unicode="b" horiz-adv-x="573" 
d="M520 178q0 -188 -174 -188q-74 0 -119 39v-29h-211v37h52v1360h-52v37h211v-398q45 39 119 39q174 0 174 -188v-709zM360 109v847q0 78 -59 78q-39 0 -74 -35v-933q35 -35 74 -35q59 0 59 78z" />
    <glyph glyph-name="c" unicode="c" horiz-adv-x="559" 
d="M514 199q0 -88 -65.5 -148.5t-165.5 -60.5t-166 60.5t-66 148.5v667q0 88 66 148.5t166 60.5t165.5 -60.5t65.5 -148.5v-127h-160v217q0 82 -71 82q-72 0 -72 -82v-847q0 -82 72 -82q71 0 71 82v217h160v-127z" />
    <glyph glyph-name="d" unicode="d" horiz-adv-x="573" 
d="M557 0h-211v29q-45 -39 -119 -39q-174 0 -174 188v709q0 188 174 188q74 0 119 -39v361h-51v37h211v-1397h51v-37zM346 66v933q-35 35 -74 35q-59 0 -59 -78v-847q0 -78 59 -78q39 0 74 35z" />
    <glyph glyph-name="e" unicode="e" horiz-adv-x="565" 
d="M514 199q0 -88 -65.5 -148.5t-165.5 -60.5t-166 60.5t-66 148.5v667q0 88 66 148.5t166 60.5t165.5 -60.5t65.5 -148.5v-350h-303v-407q0 -82 72 -82q71 0 71 82v217h160v-127zM354 553v403q0 82 -71 82q-72 0 -72 -82v-403h143z" />
    <glyph glyph-name="f" unicode="f" horiz-adv-x="344" 
d="M360 1397h-51q-71 0 -71 -82v-250h81v-37h-81v-991h51v-37h-262v37h51v991h-51v37h51v160q0 87 65.5 148t165.5 61h51v-37z" />
    <glyph glyph-name="g" unicode="g" horiz-adv-x="573" 
d="M557 1028h-51v-1116q0 -88 -62 -148.5t-161 -60.5q-93 0 -161.5 61.5t-68.5 147.5v37h160v-127q0 -82 70 -82q63 0 63 82v227q-45 -39 -119 -39q-174 0 -174 189v688q0 188 174 188q74 0 119 -39v29h211v-37zM346 86v913q-35 35 -74 35q-59 0 -59 -78v-827q0 -78 59 -78
q39 0 74 35z" />
    <glyph glyph-name="h" unicode="h" horiz-adv-x="582" 
d="M571 0h-211v956q0 78 -59 78q-39 0 -74 -35v-962h52v-37h-263v37h52v1360h-52v37h211v-398q45 39 119 39q174 0 174 -188v-850h51v-37z" />
    <glyph glyph-name="i" unicode="i" horiz-adv-x="311" 
d="M238 1188h-160v246h160v-246zM289 0h-262v37h51v991h-51v37h211v-1028h51v-37z" />
    <glyph glyph-name="j" unicode="j" horiz-adv-x="311" 
d="M233 1188h-159v246h159v-246zM233 -78q0 -87 -65.5 -148t-165.5 -61h-51v37h51q72 0 72 82v1196h-51v37h210v-1143z" />
    <glyph glyph-name="k" unicode="k" horiz-adv-x="575" 
d="M567 0h-207l-133 522v-485h52v-37h-263v37h52v1360h-52v37h211v-842l205 436h-53v37h156v-37h-52l-151 -328l180 -663h55v-37z" />
    <glyph glyph-name="l" unicode="l" horiz-adv-x="307" 
d="M285 0h-262v37h51v1360h-51v37h210v-1397h52v-37z" />
    <glyph glyph-name="m" unicode="m" horiz-adv-x="879" 
d="M868 0h-211v956q0 78 -59 78q-46 0 -92 -49q18 -40 18 -98v-850h51v-37h-210v956q0 78 -60 78q-39 0 -74 -35v-962h52v-37h-263v37h52v991h-52v37h211v-29q45 39 119 39q99 0 142 -61q61 61 151 61q174 0 174 -188v-850h51v-37z" />
    <glyph glyph-name="n" unicode="n" horiz-adv-x="586" 
d="M575 0h-210v956q0 78 -60 78q-39 0 -74 -35v-962h52v-37h-263v37h52v991h-52v37h211v-29q45 39 119 39q174 0 174 -188v-850h51v-37z" />
    <glyph glyph-name="o" unicode="o" horiz-adv-x="565" 
d="M514 199q0 -88 -65.5 -148.5t-165.5 -60.5t-166 60.5t-66 148.5v667q0 88 66 148.5t166 60.5t165.5 -60.5t65.5 -148.5v-667zM354 109v847q0 82 -71 82q-72 0 -72 -82v-847q0 -82 72 -82q71 0 71 82z" />
    <glyph glyph-name="p" unicode="p" horiz-adv-x="573" 
d="M520 178q0 -188 -174 -188q-74 0 -119 39v-279h52v-37h-263v37h52v1278h-52v37h211v-29q45 39 119 39q174 0 174 -188v-709zM360 109v847q0 78 -59 78q-39 0 -74 -35v-933q35 -35 74 -35q59 0 59 78z" />
    <glyph glyph-name="q" unicode="q" horiz-adv-x="573" 
d="M557 -287h-262v37h51v279q-45 -39 -119 -39q-174 0 -174 188v709q0 188 174 188q74 0 119 -39v29h211v-37h-51v-1278h51v-37zM346 66v933q-35 35 -74 35q-59 0 -59 -78v-847q0 -78 59 -78q39 0 74 35z" />
    <glyph glyph-name="r" unicode="r" horiz-adv-x="535" 
d="M504 739h-160v217q0 78 -49 78q-32 0 -64 -35v-962h52v-37h-263v37h52v991h-52v37h211v-29q45 39 113 39q160 0 160 -188v-148z" />
    <glyph glyph-name="s" unicode="s" horiz-adv-x="532" 
d="M489 199q0 -89 -59 -148q-63 -61 -162 -61t-162 60.5t-63 148.5v127h160v-217q0 -82 65 -82q62 0 62 82v157q0 99 -56 154l-168 166q-63 62 -63 182v98q0 89 61 149t160 60t160 -60t61 -149v-127h-159v217q0 82 -62 82q-61 0 -61 -82v-141q0 -99 55 -153l168 -166
q63 -63 63 -183v-114z" />
    <glyph glyph-name="t" unicode="t" horiz-adv-x="371" 
d="M350 0h-51q-100 0 -165.5 61t-65.5 148v819h-52v37h52v297l159 72v-369h115v-37h-115v-909q0 -82 72 -82h51v-37z" />
    <glyph glyph-name="u" unicode="u" horiz-adv-x="582" 
d="M565 0h-211v29q-45 -39 -118 -39q-175 0 -175 188v850h-51v37h211v-956q0 -78 60 -78q38 0 73 35v962h-51v37h211v-1028h51v-37z" />
    <glyph glyph-name="v" unicode="v" horiz-adv-x="541" 
d="M530 1028h-51l-135 -1028h-147l-136 1028h-51v37h275v-37h-52l93 -833l100 833h-51v37h155v-37z" />
    <glyph glyph-name="w" unicode="w" horiz-adv-x="743" 
d="M733 1028h-51l-94 -1028h-156l-70 776l-51 -776h-155l-95 1028h-51v37h260v-37h-51l57 -807l58 844h151l72 -844l68 807h-52v37h160v-37z" />
    <glyph glyph-name="x" unicode="x" horiz-adv-x="522" 
d="M512 0h-270v37h51l-78 348l-100 -348h51v-37h-156v37h51l134 438l-129 553h-52v37h271v-37h-52l74 -332l96 332h-51v37h156v-37h-51l-129 -424l133 -567h51v-37z" />
    <glyph glyph-name="y" unicode="y" horiz-adv-x="578" 
d="M514 -88q0 -88 -62 -148.5t-161 -60.5q-93 0 -161.5 61.5t-68.5 147.5v37h160v-127q0 -82 70 -82q63 0 63 82v227q-45 -39 -118 -39q-175 0 -175 189v829h-51v37h211v-936q0 -78 60 -78q38 0 73 35v942h-51v37h211v-1153z" />
    <glyph glyph-name="z" unicode="z" horiz-adv-x="528" 
d="M485 0h-450v37l291 991h-131v-289h-152v326h442v-37l-290 -991h139v289h151v-326z" />
    <glyph glyph-name="braceleft" unicode="{" horiz-adv-x="430" 
d="M395 0h-30q-100 0 -166 61t-66 148v448q0 34 -24 58t-58 24h-20v37h20q34 0 58 24t24 58v367q0 87 66 148t166 61h30v-37h-30q-72 0 -72 -82v-367q0 -134 -143 -190q143 -60 143 -191v-448q0 -82 72 -82h30v-37z" />
    <glyph glyph-name="bar" unicode="|" horiz-adv-x="215" 
d="M133 -287h-51v1721h51v-1721z" />
    <glyph glyph-name="braceright" unicode="}" horiz-adv-x="430" 
d="M399 739h-20q-34 0 -58 -24t-24 -58v-448q0 -87 -65.5 -148t-165.5 -61h-31v37h31q71 0 71 82v448q0 131 144 191q-144 56 -144 190v367q0 82 -71 82h-31v37h31q100 0 165.5 -61t65.5 -148v-367q0 -34 24 -58t58 -24h20v-37z" />
    <glyph glyph-name="asciitilde" unicode="~" 
d="M555 848l-12 -64q-22 -111 -125 -111q-22 0 -47 5l-172 37q-14 3 -25 3q-46 0 -80 -56l-35 6l13 63q21 112 127 112q22 0 47 -5l174 -37q12 -3 23 -3q44 0 77 56z" />
    <glyph glyph-name="Adieresis" unicode="&#xc4;" horiz-adv-x="563" 
d="M553 0h-266v37h51l-37 416h-147l-41 -416h51v-37h-154v37h51l144 1397h164l133 -1397h51v-37zM299 489l-68 775l-75 -775h143zM471 1485h-143v215h143v-215zM250 1485h-143v215h143v-215z" />
    <glyph glyph-name="Aring" unicode="&#xc5;" horiz-adv-x="563" 
d="M553 0h-266v37h51l-37 416h-147l-41 -416h51v-37h-154v37h51l144 1397h164l133 -1397h51v-37zM299 489l-68 775l-75 -775h143zM482 1638q0 -154 -195 -154q-194 0 -194 154t194 154q195 0 195 -154zM340 1577v122q0 62 -53 62t-53 -62v-122q0 -62 53 -62t53 62z" />
    <glyph glyph-name="Ccedilla" unicode="&#xc7;" 
d="M553 199q0 -86 -72 -147.5t-174 -61.5q-101 0 -173.5 61.5t-72.5 147.5v1036q0 86 72.5 147.5t173.5 61.5q102 0 174 -61.5t72 -147.5v-231h-164v321q0 34 -24 58t-58 24t-58 -24t-24 -58v-1216q0 -34 24 -58t58 -24t58 24t24 58v321h164v-231zM440 -172
q0 -115 -125 -115h-110v31h39q63 0 63 84t-63 84h-9v27l35 61h45l-35 -57h35q125 0 125 -115z" />
    <glyph glyph-name="Eacute" unicode="&#xc9;" horiz-adv-x="594" 
d="M543 0h-512v37h51v1360h-51v37h512v-430h-164v393h-133v-621h194v-37h-194v-702h133v393h164v-430zM512 1771l-213 -287h-45l84 308h174v-21z" />
    <glyph glyph-name="Ntilde" unicode="&#xd1;" horiz-adv-x="594" 
d="M563 1397h-51v-1397h-131l-248 1116v-1079h51v-37h-153v37h51v1360h-51v37h207l223 -996v959h-51v37h153v-37zM549 1667l-13 -59q-23 -113 -121 -113q-24 0 -51 6l-155 37q-15 4 -27 4q-45 0 -74 -57l-34 10l12 60q23 112 122 112q23 0 50 -6l156 -37q14 -3 26 -3
q46 0 74 56z" />
    <glyph glyph-name="Odieresis" unicode="&#xd6;" 
d="M553 199q0 -86 -72 -147.5t-174 -61.5q-101 0 -173.5 61.5t-72.5 147.5v1036q0 86 72.5 147.5t173.5 61.5q102 0 174 -61.5t72 -147.5v-1036zM389 109v1216q0 34 -24 58t-58 24t-58 -24t-24 -58v-1216q0 -34 24 -58t58 -24t58 24t24 58zM491 1485h-143v215h143v-215z
M270 1485h-143v215h143v-215z" />
    <glyph glyph-name="Udieresis" unicode="&#xdc;" horiz-adv-x="635" 
d="M614 1397h-51v-1198q0 -86 -72 -147.5t-174 -61.5q-101 0 -173 61.5t-72 147.5v1198h-52v37h267v-37h-51v-1288q0 -34 24 -58t57 -24q34 0 58 24t24 58v1288h-51v37h266v-37zM501 1485h-143v215h143v-215zM280 1485h-143v215h143v-215z" />
    <glyph glyph-name="aacute" unicode="&#xe1;" horiz-adv-x="551" 
d="M541 0h-211v29q-45 -39 -115 -39q-170 0 -170 188v236q0 198 236 198h49v344q0 82 -60 82q-59 0 -59 -82v-217h-160v127q0 95 59.5 152t159.5 57q101 0 160 -57t59 -152v-829h52v-37zM330 66v509h-47q-78 0 -78 -81v-385q0 -78 55 -78q35 0 70 35zM492 1413l-213 -287
h-45l84 308h174v-21z" />
    <glyph glyph-name="agrave" unicode="&#xe0;" horiz-adv-x="551" 
d="M541 0h-211v29q-45 -39 -115 -39q-170 0 -170 188v236q0 198 236 198h49v344q0 82 -60 82q-59 0 -59 -82v-217h-160v127q0 95 59.5 152t159.5 57q101 0 160 -57t59 -152v-829h52v-37zM330 66v509h-47q-78 0 -78 -81v-385q0 -78 55 -78q35 0 70 35zM315 1126h-45l-213 287
v21h174z" />
    <glyph glyph-name="acircumflex" unicode="&#xe2;" horiz-adv-x="551" 
d="M541 0h-211v29q-45 -39 -115 -39q-170 0 -170 188v236q0 198 236 198h49v344q0 82 -60 82q-59 0 -59 -82v-217h-160v127q0 95 59.5 152t159.5 57q101 0 160 -57t59 -152v-829h52v-37zM330 66v509h-47q-78 0 -78 -81v-385q0 -78 55 -78q35 0 70 35zM467 1126h-45l-150 146
l-149 -146h-47l155 308h78z" />
    <glyph glyph-name="adieresis" unicode="&#xe4;" horiz-adv-x="551" 
d="M541 0h-211v29q-45 -39 -115 -39q-170 0 -170 188v236q0 198 236 198h49v344q0 82 -60 82q-59 0 -59 -82v-217h-160v127q0 95 59.5 152t159.5 57q101 0 160 -57t59 -152v-829h52v-37zM330 66v509h-47q-78 0 -78 -81v-385q0 -78 55 -78q35 0 70 35zM460 1143h-143v215h143
v-215zM239 1143h-143v215h143v-215z" />
    <glyph glyph-name="atilde" unicode="&#xe3;" horiz-adv-x="551" 
d="M541 0h-211v29q-45 -39 -115 -39q-170 0 -170 188v236q0 198 236 198h49v344q0 82 -60 82q-59 0 -59 -82v-217h-160v127q0 95 59.5 152t159.5 57q101 0 160 -57t59 -152v-829h52v-37zM330 66v509h-47q-78 0 -78 -81v-385q0 -78 55 -78q35 0 70 35zM525 1331l-13 -59
q-23 -113 -121 -113q-24 0 -51 6l-155 37q-15 4 -27 4q-45 0 -74 -57l-34 10l12 60q23 112 122 112q23 0 50 -6l156 -37q14 -3 26 -3q46 0 74 56z" />
    <glyph glyph-name="aring" unicode="&#xe5;" horiz-adv-x="551" 
d="M541 0h-211v29q-45 -39 -115 -39q-170 0 -170 188v236q0 198 236 198h49v344q0 82 -60 82q-59 0 -59 -82v-217h-160v127q0 95 59.5 152t159.5 57q101 0 160 -57t59 -152v-829h52v-37zM330 66v509h-47q-78 0 -78 -81v-385q0 -78 55 -78q35 0 70 35zM471 1280
q0 -154 -195 -154q-194 0 -194 154t194 154q195 0 195 -154zM329 1219v122q0 62 -53 62t-53 -62v-122q0 -62 53 -62t53 62z" />
    <glyph glyph-name="ccedilla" unicode="&#xe7;" horiz-adv-x="559" 
d="M514 199q0 -88 -65.5 -148.5t-165.5 -60.5t-166 60.5t-66 148.5v667q0 88 66 148.5t166 60.5t165.5 -60.5t65.5 -148.5v-127h-160v217q0 82 -71 82q-72 0 -72 -82v-847q0 -82 72 -82q71 0 71 82v217h160v-127zM418 -172q0 -115 -125 -115h-110v31h39q63 0 63 84t-63 84
h-9v27l35 61h45l-35 -57h35q125 0 125 -115z" />
    <glyph glyph-name="eacute" unicode="&#xe9;" horiz-adv-x="565" 
d="M514 199q0 -88 -65.5 -148.5t-165.5 -60.5t-166 60.5t-66 148.5v667q0 88 66 148.5t166 60.5t165.5 -60.5t65.5 -148.5v-350h-303v-407q0 -82 72 -82q71 0 71 82v217h160v-127zM354 553v403q0 82 -71 82q-72 0 -72 -82v-403h143zM500 1413l-213 -287h-45l84 308h174v-21z
" />
    <glyph glyph-name="egrave" unicode="&#xe8;" horiz-adv-x="565" 
d="M514 199q0 -88 -65.5 -148.5t-165.5 -60.5t-166 60.5t-66 148.5v667q0 88 66 148.5t166 60.5t165.5 -60.5t65.5 -148.5v-350h-303v-407q0 -82 72 -82q71 0 71 82v217h160v-127zM354 553v403q0 82 -71 82q-72 0 -72 -82v-403h143zM325 1126h-45l-213 287v21h174z" />
    <glyph glyph-name="ecircumflex" unicode="&#xea;" horiz-adv-x="565" 
d="M514 199q0 -88 -65.5 -148.5t-165.5 -60.5t-166 60.5t-66 148.5v667q0 88 66 148.5t166 60.5t165.5 -60.5t65.5 -148.5v-350h-303v-407q0 -82 72 -82q71 0 71 82v217h160v-127zM354 553v403q0 82 -71 82q-72 0 -72 -82v-403h143zM477 1126h-45l-150 146l-149 -146h-47
l155 308h78z" />
    <glyph glyph-name="edieresis" unicode="&#xeb;" horiz-adv-x="565" 
d="M514 199q0 -88 -65.5 -148.5t-165.5 -60.5t-166 60.5t-66 148.5v667q0 88 66 148.5t166 60.5t165.5 -60.5t65.5 -148.5v-350h-303v-407q0 -82 72 -82q71 0 71 82v217h160v-127zM354 553v403q0 82 -71 82q-72 0 -72 -82v-403h143zM464 1143h-143v215h143v-215zM243 1143
h-143v215h143v-215z" />
    <glyph glyph-name="iacute" unicode="&#xed;" horiz-adv-x="311" 
d="M289 0h-262v37h51v991h-51v37h211v-1028h51v-37zM371 1413l-213 -287h-45l84 308h174v-21z" />
    <glyph glyph-name="igrave" unicode="&#xec;" horiz-adv-x="311" 
d="M289 0h-262v37h51v991h-51v37h211v-1028h51v-37zM182 1126h-45l-213 287v21h174z" />
    <glyph glyph-name="icircumflex" unicode="&#xee;" horiz-adv-x="311" 
d="M289 0h-262v37h51v991h-51v37h211v-1028h51v-37zM348 1126h-45l-150 146l-149 -146h-47l155 308h78z" />
    <glyph glyph-name="idieresis" unicode="&#xef;" horiz-adv-x="311" 
d="M289 0h-262v37h51v991h-51v37h211v-1028h51v-37zM335 1143h-143v215h143v-215zM114 1143h-143v215h143v-215z" />
    <glyph glyph-name="ntilde" unicode="&#xf1;" horiz-adv-x="586" 
d="M575 0h-210v956q0 78 -60 78q-39 0 -74 -35v-962h52v-37h-263v37h52v991h-52v37h211v-29q45 39 119 39q174 0 174 -188v-850h51v-37zM533 1331l-13 -59q-23 -113 -121 -113q-24 0 -51 6l-155 37q-15 4 -27 4q-45 0 -74 -57l-34 10l12 60q23 112 122 112q23 0 50 -6
l156 -37q14 -3 26 -3q46 0 74 56z" />
    <glyph glyph-name="oacute" unicode="&#xf3;" horiz-adv-x="565" 
d="M514 199q0 -88 -65.5 -148.5t-165.5 -60.5t-166 60.5t-66 148.5v667q0 88 66 148.5t166 60.5t165.5 -60.5t65.5 -148.5v-667zM354 109v847q0 82 -71 82q-72 0 -72 -82v-847q0 -82 72 -82q71 0 71 82zM498 1413l-213 -287h-45l84 308h174v-21z" />
    <glyph glyph-name="ograve" unicode="&#xf2;" horiz-adv-x="565" 
d="M514 199q0 -88 -65.5 -148.5t-165.5 -60.5t-166 60.5t-66 148.5v667q0 88 66 148.5t166 60.5t165.5 -60.5t65.5 -148.5v-667zM354 109v847q0 82 -71 82q-72 0 -72 -82v-847q0 -82 72 -82q71 0 71 82zM313 1126h-45l-213 287v21h174z" />
    <glyph glyph-name="ocircumflex" unicode="&#xf4;" horiz-adv-x="565" 
d="M514 199q0 -88 -65.5 -148.5t-165.5 -60.5t-166 60.5t-66 148.5v667q0 88 66 148.5t166 60.5t165.5 -60.5t65.5 -148.5v-667zM354 109v847q0 82 -71 82q-72 0 -72 -82v-847q0 -82 72 -82q71 0 71 82zM479 1126h-45l-150 146l-149 -146h-47l155 308h78z" />
    <glyph glyph-name="odieresis" unicode="&#xf6;" horiz-adv-x="565" 
d="M514 199q0 -88 -65.5 -148.5t-165.5 -60.5t-166 60.5t-66 148.5v667q0 88 66 148.5t166 60.5t165.5 -60.5t65.5 -148.5v-667zM354 109v847q0 82 -71 82q-72 0 -72 -82v-847q0 -82 72 -82q71 0 71 82zM466 1143h-143v215h143v-215zM245 1143h-143v215h143v-215z" />
    <glyph glyph-name="otilde" unicode="&#xf5;" horiz-adv-x="565" 
d="M514 199q0 -88 -65.5 -148.5t-165.5 -60.5t-166 60.5t-66 148.5v667q0 88 66 148.5t166 60.5t165.5 -60.5t65.5 -148.5v-667zM354 109v847q0 82 -71 82q-72 0 -72 -82v-847q0 -82 72 -82q71 0 71 82zM531 1331l-13 -59q-23 -113 -121 -113q-24 0 -51 6l-155 37
q-15 4 -27 4q-45 0 -74 -57l-34 10l12 60q23 112 122 112q23 0 50 -6l156 -37q14 -3 26 -3q46 0 74 56z" />
    <glyph glyph-name="uacute" unicode="&#xfa;" horiz-adv-x="582" 
d="M565 0h-211v29q-45 -39 -118 -39q-175 0 -175 188v850h-51v37h211v-956q0 -78 60 -78q38 0 73 35v962h-51v37h211v-1028h51v-37zM512 1413l-213 -287h-45l84 308h174v-21z" />
    <glyph glyph-name="ugrave" unicode="&#xf9;" horiz-adv-x="582" 
d="M565 0h-211v29q-45 -39 -118 -39q-175 0 -175 188v850h-51v37h211v-956q0 -78 60 -78q38 0 73 35v962h-51v37h211v-1028h51v-37zM313 1126h-45l-213 287v21h174z" />
    <glyph glyph-name="ucircumflex" unicode="&#xfb;" horiz-adv-x="582" 
d="M565 0h-211v29q-45 -39 -118 -39q-175 0 -175 188v850h-51v37h211v-956q0 -78 60 -78q38 0 73 35v962h-51v37h211v-1028h51v-37zM479 1126h-45l-150 146l-149 -146h-47l155 308h78z" />
    <glyph glyph-name="udieresis" unicode="&#xfc;" horiz-adv-x="582" 
d="M565 0h-211v29q-45 -39 -118 -39q-175 0 -175 188v850h-51v37h211v-956q0 -78 60 -78q38 0 73 35v962h-51v37h211v-1028h51v-37zM466 1143h-143v215h143v-215zM245 1143h-143v215h143v-215z" />
    <glyph glyph-name="dagger" unicode="&#x2020;" horiz-adv-x="528" 
d="M498 1004h-154v-459l-49 -545h-62l-49 545v459h-153v36h153v357h-51v37h262v-37h-51v-357h154v-36z" />
    <glyph glyph-name="degree" unicode="&#xb0;" horiz-adv-x="565" 
d="M514 813q0 -87 -65.5 -148t-165.5 -61t-166 61t-66 148v422q0 87 66 148t166 61t165.5 -61t65.5 -148v-422zM354 723v602q0 82 -71 82q-72 0 -72 -82v-602q0 -82 72 -82q71 0 71 82z" />
    <glyph glyph-name="cent" unicode="&#xa2;" horiz-adv-x="559" 
d="M514 362q0 -82 -57.5 -140.5t-149.5 -65.5v-176h-49v174q-91 9 -149 68t-58 140v709q0 82 58 140.5t149 66.5v176h49v-176q92 -8 149.5 -66.5t57.5 -140.5v-127h-160v217q0 82 -71 82q-72 0 -72 -82v-889q0 -82 72 -82q71 0 71 82v217h160v-127z" />
    <glyph glyph-name="sterling" unicode="&#xa3;" horiz-adv-x="625" 
d="M563 0h-543v37h52v702h-52v37h52v459q0 86 72 147.5t173 61.5q102 0 174 -61.5t72 -147.5v-231h-164v321q0 34 -24 58t-58 24q-33 0 -57 -24t-24 -58v-549h194v-37h-194v-702h163v393h164v-430z" />
    <glyph glyph-name="section" unicode="&#xa7;" horiz-adv-x="594" 
d="M563 698q0 -97 -114 -196l10 -8q73 -59 73 -187v-108q0 -87 -67.5 -148t-167.5 -61t-168 61t-68 148v231h164v-321q0 -82 72 -82t72 82v155q0 94 -62 146l-186 155q-90 76 -90 168q0 98 114 197l-12 10q-72 60 -72 186v109q0 87 68 148t168 61t167.5 -61t67.5 -148v-231
h-163v321q0 82 -72 82t-72 -82v-166q0 -88 60 -137l188 -156q90 -74 90 -168zM451 608q0 72 -76 133l-201 164q-31 -39 -31 -82q0 -71 64 -123l213 -174q31 39 31 82z" />
    <glyph glyph-name="bullet" unicode="&#x2022;" horiz-adv-x="565" 
d="M492 526q0 -94 -59 -151.5t-150 -57.5q-92 0 -150.5 57.5t-58.5 151.5v381q0 94 58.5 151.5t150.5 57.5q91 0 150 -57.5t59 -151.5v-381z" />
    <glyph glyph-name="paragraph" unicode="&#xb6;" horiz-adv-x="604" 
d="M573 0h-133v1397h-41v-1397h-92v37h51v577h-71q-102 0 -174 61.5t-72 147.5v402q0 86 72 147.5t174 61.5h286v-37h-51v-1360h51v-37zM358 651v746h-71q-34 0 -58 -24t-24 -58v-582q0 -34 24 -58t58 -24h71z" />
    <glyph glyph-name="germandbls" unicode="&#xdf;" horiz-adv-x="573" 
d="M522 209q0 -87 -65.5 -148t-165.5 -61h-21v37h21q71 0 71 82v538q0 34 -24 58t-57 24h-11v37h11q33 0 57 24t24 58v467q0 82 -67 82q-68 0 -68 -82v-1325h-211v37h52v1198q0 88 63.5 148.5t163.5 60.5t163.5 -60.5t63.5 -148.5v-287q0 -134 -143 -190q143 -60 143 -191
v-358z" />
    <glyph glyph-name="registered" unicode="&#xae;" horiz-adv-x="754" 
d="M692 274q0 -118 -88 -200q-91 -84 -227 -84t-226 83t-90 201v885q0 119 90 202t226 83t227 -84q88 -82 88 -201v-885zM653 270v893q0 103 -78.5 173.5t-197.5 70.5t-198 -70.5t-79 -173.5v-893q0 -102 79 -172.5t198 -70.5t197.5 70.5t78.5 172.5zM588 227h-49
q-101 0 -101 115v346q0 57 -57 57h-51v-491h37v-27h-187v27h35v950h-35v27h201q71 0 121.5 -43t50.5 -103v-194q0 -94 -100 -133q100 -43 100 -133v-329q0 -42 32 -42h3v-27zM438 827v320q0 57 -57 57h-51v-434h51q57 0 57 57z" />
    <glyph glyph-name="copyright" unicode="&#xa9;" horiz-adv-x="754" 
d="M692 274q0 -118 -88 -200q-91 -84 -227 -84t-226 83t-90 201v885q0 119 90 202t226 83t227 -84q88 -82 88 -201v-885zM653 270v893q0 103 -78.5 173.5t-197.5 70.5t-198 -70.5t-79 -173.5v-893q0 -102 79 -172.5t198 -70.5t197.5 70.5t78.5 172.5zM549 358
q0 -59 -50.5 -102t-121.5 -43t-121.5 43t-50.5 102v725q0 60 50.5 103t121.5 43t121.5 -43t50.5 -103v-161h-115v225q0 57 -57 57q-58 0 -58 -57v-852q0 -57 58 -57q57 0 57 57v225h115v-162z" />
    <glyph glyph-name="trademark" unicode="&#x2122;" horiz-adv-x="1024" 
d="M997 594h-186v24h33v510l-78 -534h-92l-92 534v-510h34v-24h-108v24h35v789h-35v27h151l101 -639l86 639h151v-27h-34v-789h34v-24zM463 1133h-111v274h-47v-789h35v-24h-186v24h32v789h-47v-274h-110v301h434v-301z" />
    <glyph glyph-name="acute" unicode="&#xb4;" 
d="M469 1413l-213 -287h-45l84 308h174v-21z" />
    <glyph glyph-name="dieresis" unicode="&#xa8;" 
d="M489 1143h-143v215h143v-215zM268 1143h-143v215h143v-215z" />
    <glyph glyph-name="notequal" unicode="&#x2260;" horiz-adv-x="903" 
d="M801 391h-347l-80 -322l-117 29l72 293h-227v119h257l61 246h-318v121h348l79 320l117 -29l-72 -291h227v-121h-257l-61 -246h318v-119z" />
    <glyph glyph-name="AE" unicode="&#xc6;" horiz-adv-x="829" 
d="M778 0h-512v37h51v416h-155l-70 -416h51v-37h-143v37h41l227 1360h-45v37h555v-430h-164v393h-133v-621h195v-37h-195v-702h133v393h164v-430zM317 489v914l-149 -914h149z" />
    <glyph glyph-name="Oslash" unicode="&#xd8;" 
d="M553 199q0 -86 -72 -147.5t-174 -61.5q-67 0 -129 30l-37 -143h-49l45 172q-76 59 -76 150v1036q0 86 72.5 147.5t173.5 61.5q68 0 129 -31l37 143h49l-45 -172q76 -59 76 -149v-1036zM389 1212v113q0 34 -24 58t-58 24t-58 -24t-24 -58v-876zM389 109v874l-164 -762
v-112q0 -34 24 -58t58 -24t58 24t24 58z" />
    <glyph glyph-name="infinity" unicode="&#x221e;" horiz-adv-x="1270" 
d="M1236 252q0 -113 -113 -113h-251q-64 0 -138 113l-99 151l-98 -153q-42 -65 -63 -84q-29 -26 -72 -27h-253q-113 0 -113 113v508q0 113 113 113h253q66 -1 138 -113l97 -151l98 151q73 113 137 113h251q112 0 113 -113v-508zM1102 256v500h-238l-161 -249l162 -251h237z
M569 504l-165 252h-235v-500h240z" />
    <glyph glyph-name="plusminus" unicode="&#xb1;" horiz-adv-x="838" 
d="M768 650h-289v-254h-119v254h-290v114h290v264h119v-264h289v-114zM772 190h-704v123h704v-123z" />
    <glyph glyph-name="lessequal" unicode="&#x2264;" horiz-adv-x="698" 
d="M584 302h-6l-502 346v72l508 349v-139l-371 -245l371 -244v-139zM584 145h-508v119h508v-119z" />
    <glyph glyph-name="greaterequal" unicode="&#x2265;" horiz-adv-x="698" 
d="M604 648l-508 -346v139l370 244l-370 245v139h6l502 -349v-72zM603 145h-507v119h507v-119z" />
    <glyph glyph-name="yen" unicode="&#xa5;" horiz-adv-x="584" 
d="M573 1397h-51l-153 -817v-68h133v-37h-133v-67h133v-37h-133v-334h51v-37h-266v37h51v334h-133v37h133v67h-133v37h133v68l-144 817h-51v37h262v-37h-51l121 -713l131 713h-51v37h151v-37z" />
    <glyph glyph-name="mu" unicode="&#xb5;" horiz-adv-x="784" 
d="M676 0h-131v28q-68 -29 -184 -29q-94 0 -121 40v-408h-131v1342h131v-720q0 -139 138 -139q95 0 166 16v843h132v-973z" />
    <glyph glyph-name="mu" unicode="&#x3bc;" horiz-adv-x="784" 
d="M676 0h-131v28q-68 -29 -184 -29q-94 0 -121 40v-408h-131v1342h131v-720q0 -139 138 -139q95 0 166 16v843h132v-973z" />
    <glyph glyph-name="partialdiff" unicode="&#x2202;" horiz-adv-x="868" 
d="M745 859v-748q0 -49 -31 -80t-80 -31h-399q-49 0 -80 31t-31 80v641q0 49 31 79.5t80 30.5h357l-327 703h151zM605 123v618h-342v-618h342z" />
    <glyph glyph-name="summation" unicode="&#x2211;" horiz-adv-x="731" 
d="M649 0h-564v108l382 688l-382 644v125h558v-123h-420l357 -587v-119l-356 -613h425v-123z" />
    <glyph glyph-name="product" unicode="&#x220f;" horiz-adv-x="804" 
d="M764 1442h-148v-1442h-135v1442h-163v-1442h-135v1442h-144v123h725v-123z" />
    <glyph glyph-name="pi" unicode="&#x3c0;" horiz-adv-x="804" 
d="M764 770h-148v-770h-135v770h-163v-770h-135v770h-144v123h725v-123z" />
    <glyph glyph-name="integral" unicode="&#x222b;" horiz-adv-x="487" 
d="M477 1448h-188v-1737q0 -44 -26 -75q-30 -36 -82 -36l-213 -1v117h189l1 1736q0 113 112 113h207v-117z" />
    <glyph glyph-name="ordfeminine" unicode="&#xaa;" horiz-adv-x="502" 
d="M475 608h-178v25q-36 -31 -94 -31q-148 0 -148 156v157q0 164 201 164h41v264q0 70 -49 70q-47 0 -47 -70v-165h-138v90q0 79 50 127.5t135 48.5t135.5 -48.5t50.5 -127.5v-627h41v-33zM297 666v385h-37q-65 0 -65 -70v-281q0 -65 45 -65q26 0 57 31z" />
    <glyph glyph-name="ordmasculine" unicode="&#xba;" horiz-adv-x="524" 
d="M459 776q0 -71 -56.5 -122.5t-140.5 -51.5q-83 0 -139.5 51.5t-56.5 122.5v494q0 71 56.5 122.5t139.5 51.5q84 0 140.5 -51.5t56.5 -122.5v-494zM322 700v646q0 67 -60 67q-57 0 -57 -67v-646q0 -67 57 -67q60 0 60 67z" />
    <glyph glyph-name="Omega" unicode="&#x3a9;" horiz-adv-x="1056" 
d="M1000 -1h-388v490h184v953l-531 -1l-1 -952h184v-490h-389v130h272v237h-95q-49 0 -80 31t-31 80v977q0 49 31 80t80 31h585q49 0 81.5 -31t32.5 -80v-977q0 -49 -31 -80t-80 -31h-95v-237h271v-130z" />
    <glyph glyph-name="Omega" unicode="&#x2126;" horiz-adv-x="1056" 
d="M1000 -1h-388v490h184v953l-531 -1l-1 -952h184v-490h-389v130h272v237h-95q-49 0 -80 31t-31 80v977q0 49 31 80t80 31h585q49 0 81.5 -31t32.5 -80v-977q0 -49 -31 -80t-80 -31h-95v-237h271v-130z" />
    <glyph glyph-name="ae" unicode="&#xe6;" horiz-adv-x="844" 
d="M793 199q0 -88 -66 -148.5t-166 -60.5q-76 0 -151 59q-64 -59 -144 -59q-101 0 -161 57t-60 152v215q0 198 236 198h49v344q0 82 -60 82q-59 0 -59 -82v-217h-160v127q0 95 59.5 152t159.5 57q88 0 146 -45q61 45 145 45q100 0 166 -60.5t66 -148.5v-350h-304v-407
q0 -82 72 -82t72 82v217h160v-127zM633 553v403q0 82 -72 82t-72 -82v-403h144zM330 109v466h-47q-78 0 -78 -81v-385q0 -82 61 -82q64 0 64 82z" />
    <glyph glyph-name="oslash" unicode="&#xf8;" horiz-adv-x="565" 
d="M514 199q0 -88 -65.5 -148.5t-165.5 -60.5q-53 0 -99 18l-32 -131h-50l39 154q-90 63 -90 168v667q0 88 66 148.5t166 60.5q52 0 98 -18l33 131h49l-39 -154q90 -63 90 -168v-667zM354 956q0 82 -71 82q-72 0 -72 -82v-628zM354 109v628l-143 -628q0 -82 72 -82
q71 0 71 82z" />
    <glyph glyph-name="questiondown" unicode="&#xbf;" horiz-adv-x="561" 
d="M367 1188h-164v246h164v-246zM520 199q0 -87 -67.5 -148t-167.5 -61q-101 0 -168.5 61t-67.5 148v204q0 102 53 185l52 80q67 105 75 192l25 266h61l29 -307q4 -44 4 -80q0 -68 -35 -123l-51 -79q-49 -77 -49 -179v-249q0 -82 72 -82q71 0 71 82v321h164v-231z" />
    <glyph glyph-name="exclamdown" unicode="&#xa1;" horiz-adv-x="319" 
d="M242 1188h-164v246h164v-246zM242 0h-164v582l51 544h61l52 -544v-582z" />
    <glyph glyph-name="logicalnot" unicode="&#xac;" horiz-adv-x="942" 
d="M823 332h-124v292h-580v124h704v-416z" />
    <glyph glyph-name="radical" unicode="&#x221a;" horiz-adv-x="563" 
d="M541 1434l-195 -1434h-145l-146 575h-51v37h211l104 -442l170 1264h52z" />
    <glyph glyph-name="florin" unicode="&#x192;" horiz-adv-x="365" 
d="M360 1397h-41q-71 0 -71 -82v-250h82v-37h-82v-1106q0 -87 -66 -148t-166 -61h-51v37h39q80 0 80 82v1196h-51v37h51v160q0 87 67.5 148t167.5 61h41v-37z" />
    <glyph glyph-name="approxequal" unicode="&#x2248;" horiz-adv-x="1034" 
d="M864 804q0 -86 -82 -86q-50 0 -104 20l-377 144v-158h-131v209q0 86 82 86q51 0 104 -21l377 -143v158h131v-209zM864 409q0 -86 -82 -86q-50 0 -104 20l-377 144v-158h-131v209q0 86 82 86q51 0 104 -21l377 -143v158h131v-209z" />
    <glyph glyph-name="Delta" unicode="&#x394;" horiz-adv-x="819" 
d="M775 0h-730v122l297 1447h137q10 -58 156 -763q141 -686 140 -688v-118zM637 132l-229 1187l-228 -1187h457z" />
    <glyph glyph-name="Delta" unicode="&#x2206;" horiz-adv-x="819" 
d="M775 0h-730v122l297 1447h137q10 -58 156 -763q141 -686 140 -688v-118zM637 132l-229 1187l-228 -1187h457z" />
    <glyph glyph-name="guillemotleft" unicode="&#xab;" 
d="M557 289h-61l-209 366v41l209 369h61l-92 -389zM303 289h-61l-209 366v41l209 369h61l-92 -389z" />
    <glyph glyph-name="guillemotright" unicode="&#xbb;" 
d="M582 655l-209 -366h-62l92 387l-92 389h62l209 -369v-41zM328 655l-209 -366h-62l93 387l-93 389h62l209 -369v-41z" />
    <glyph glyph-name="ellipsis" unicode="&#x2026;" horiz-adv-x="768" 
d="M719 0h-158v246h158v-246zM463 0h-158v246h158v-246zM207 0h-158v246h158v-246z" />
    <glyph glyph-name="nonbreakingspace" unicode="&#xa0;" horiz-adv-x="154" 
 />
    <glyph glyph-name="Agrave" unicode="&#xc0;" horiz-adv-x="563" 
d="M553 0h-266v37h51l-37 416h-147l-41 -416h51v-37h-154v37h51l144 1397h164l133 -1397h51v-37zM299 489l-68 775l-75 -775h143zM317 1484h-45l-213 287v21h174z" />
    <glyph glyph-name="Atilde" unicode="&#xc3;" horiz-adv-x="563" 
d="M553 0h-266v37h51l-37 416h-147l-41 -416h51v-37h-154v37h51l144 1397h164l133 -1397h51v-37zM299 489l-68 775l-75 -775h143zM525 1667l-13 -59q-23 -113 -121 -113q-24 0 -51 6l-155 37q-15 4 -27 4q-45 0 -74 -57l-34 10l12 60q23 112 122 112q23 0 50 -6l156 -37
q14 -3 26 -3q46 0 74 56z" />
    <glyph glyph-name="Otilde" unicode="&#xd5;" 
d="M553 199q0 -86 -72 -147.5t-174 -61.5q-101 0 -173.5 61.5t-72.5 147.5v1036q0 86 72.5 147.5t173.5 61.5q102 0 174 -61.5t72 -147.5v-1036zM389 109v1216q0 34 -24 58t-58 24t-58 -24t-24 -58v-1216q0 -34 24 -58t58 -24t58 24t24 58zM551 1667l-13 -59
q-23 -113 -121 -113q-24 0 -51 6l-155 37q-15 4 -27 4q-45 0 -74 -57l-34 10l12 60q23 112 122 112q23 0 50 -6l156 -37q14 -3 26 -3q46 0 74 56z" />
    <glyph glyph-name="OE" unicode="&#x152;" horiz-adv-x="901" 
d="M850 0h-543q-101 0 -173.5 61.5t-72.5 147.5v1016q0 86 72.5 147.5t173.5 61.5h543v-430h-164v393h-133v-621h195v-37h-195v-702h133v393h164v-430zM389 37v1360h-82q-34 0 -58 -24t-24 -58v-1196q0 -34 24 -58t58 -24h82z" />
    <glyph glyph-name="oe" unicode="&#x153;" horiz-adv-x="868" 
d="M817 199q0 -88 -65.5 -148.5t-165.5 -60.5q-77 0 -152 59q-63 -59 -151 -59q-100 0 -166 60.5t-66 148.5v667q0 88 66 148.5t166 60.5q89 0 151 -49q62 49 152 49q100 0 165.5 -60.5t65.5 -148.5v-350h-303v-407q0 -82 72 -82q71 0 71 82v217h160v-127zM657 553v403
q0 82 -71 82q-72 0 -72 -82v-403h143zM354 109v847q0 82 -71 82q-72 0 -72 -82v-847q0 -82 72 -82q71 0 71 82z" />
    <glyph glyph-name="endash" unicode="&#x2013;" horiz-adv-x="410" 
d="M375 737h-340v41h340v-41z" />
    <glyph glyph-name="emdash" unicode="&#x2014;" 
d="M580 737h-545v41h545v-41z" />
    <glyph glyph-name="quotedblleft" unicode="&#x201c;" horiz-adv-x="492" 
d="M444 1434l-32 -430h-164v36l121 394h75zM223 1434l-33 -430h-163v36l120 394h76z" />
    <glyph glyph-name="quotedblright" unicode="&#x201d;" horiz-adv-x="492" 
d="M446 1397l-120 -393h-76l33 430h163v-37zM225 1397l-121 -393h-75l32 430h164v-37z" />
    <glyph glyph-name="quoteleft" unicode="&#x2018;" horiz-adv-x="270" 
d="M223 1434l-33 -430h-163v36l120 394h76z" />
    <glyph glyph-name="quoteright" unicode="&#x2019;" horiz-adv-x="270" 
d="M225 1397l-121 -393h-75l32 430h164v-37z" />
    <glyph glyph-name="divide" unicode="&#xf7;" horiz-adv-x="838" 
d="M523 944q0 -44 -30.5 -75.5t-74.5 -31.5q-43 0 -73.5 31.5t-30.5 75.5t30.5 75t73.5 31q44 0 74.5 -31t30.5 -75zM768 625h-698v126h698v-126zM523 430q0 -44 -30.5 -75t-74.5 -31q-43 0 -73.5 31t-30.5 75t30.5 75.5t73.5 31.5q44 0 74.5 -31.5t30.5 -75.5z" />
    <glyph glyph-name="lozenge" unicode="&#x25ca;" horiz-adv-x="826" 
d="M798 574l-347 -508h-72l-349 508l349 508h72zM659 574l-245 371l-245 -371l245 -371z" />
    <glyph glyph-name="ydieresis" unicode="&#xff;" horiz-adv-x="578" 
d="M514 -88q0 -88 -62 -148.5t-161 -60.5q-93 0 -161.5 61.5t-68.5 147.5v37h160v-127q0 -82 70 -82q63 0 63 82v227q-45 -39 -118 -39q-175 0 -175 189v829h-51v37h211v-936q0 -78 60 -78q38 0 73 35v942h-51v37h211v-1153zM464 1143h-143v215h143v-215zM243 1143h-143v215
h143v-215z" />
    <glyph glyph-name="Ydieresis" unicode="&#x178;" horiz-adv-x="584" 
d="M573 1397h-51l-153 -817v-543h51v-37h-266v37h51v543l-144 817h-51v37h262v-37h-51l121 -713l131 713h-51v37h151v-37zM489 1485h-143v215h143v-215zM268 1485h-143v215h143v-215z" />
    <glyph glyph-name="fraction" unicode="&#x2044;" horiz-adv-x="328" 
d="M295 1434l-205 -1434h-57l205 1434h57z" />
    <glyph glyph-name="fraction" unicode="&#x2215;" horiz-adv-x="328" 
d="M295 1434l-205 -1434h-57l205 1434h57z" />
    <glyph glyph-name="currency" unicode="&#xa4;" horiz-adv-x="1221" 
d="M1095 1099l-177 -178v-395l177 -177l-118 -118l-194 194h-330l-193 -194l-118 118l177 178v395l-177 177l118 118l194 -194h330l193 194zM754 574v302h-271v-303z" />
    <glyph glyph-name="guilsinglleft" unicode="&#x2039;" horiz-adv-x="360" 
d="M303 289h-61l-209 366v41l209 369h61l-92 -389z" />
    <glyph glyph-name="guilsinglright" unicode="&#x203a;" horiz-adv-x="360" 
d="M328 655l-209 -366h-62l93 387l-93 389h62l209 -369v-41z" />
    <glyph glyph-name="fi" unicode="&#xf001;" horiz-adv-x="629" 
d="M612 0h-262v37h51v991h-170v-991h52v-37h-263v37h52v991h-52v37h52v160q0 87 65.5 148t165.5 61h258v-246h-160v209h-98q-72 0 -72 -82v-250h330v-1028h51v-37z" />
    <glyph glyph-name="fi" unicode="&#xfb01;" horiz-adv-x="629" 
d="M612 0h-262v37h51v991h-170v-991h52v-37h-263v37h52v991h-52v37h52v160q0 87 65.5 148t165.5 61h258v-246h-160v209h-98q-72 0 -72 -82v-250h330v-1028h51v-37z" />
    <glyph glyph-name="fl" unicode="&#xf002;" horiz-adv-x="629" 
d="M612 0h-262v37h51v1360h-98q-72 0 -72 -82v-250h82v-37h-82v-991h52v-37h-263v37h52v991h-52v37h52v160q0 87 65.5 148t165.5 61h258v-1397h51v-37z" />
    <glyph glyph-name="fl" unicode="&#xfb02;" horiz-adv-x="629" 
d="M612 0h-262v37h51v1360h-98q-72 0 -72 -82v-250h82v-37h-82v-991h52v-37h-263v37h52v991h-52v37h52v160q0 87 65.5 148t165.5 61h258v-1397h51v-37z" />
    <glyph glyph-name="daggerdbl" unicode="&#x2021;" horiz-adv-x="528" 
d="M498 545h-154l-49 -545h-62l-49 545h-153v37h153v422h-153v36h153v357h-51v37h262v-37h-51v-357h154v-36h-154v-422h154v-37z" />
    <glyph glyph-name="periodcentered" unicode="&#xb7;" horiz-adv-x="256" 
d="M207 635h-158v246h158v-246z" />
    <glyph glyph-name="periodcentered" unicode="&#x2219;" horiz-adv-x="256" 
d="M207 635h-158v246h158v-246z" />
    <glyph glyph-name="quotesinglbase" unicode="&#x201a;" horiz-adv-x="270" 
d="M229 209l-120 -393h-76l33 430h163v-37z" />
    <glyph glyph-name="quotedblbase" unicode="&#x201e;" horiz-adv-x="492" 
d="M451 209l-121 -393h-76l33 430h164v-37zM229 209l-120 -393h-76l33 430h163v-37z" />
    <glyph glyph-name="perthousand" unicode="&#x2030;" horiz-adv-x="1444" 
d="M1403 166q0 -73 -56 -124.5t-141 -51.5q-84 0 -140 51.5t-56 124.5v487q0 74 56 125t140 51q85 0 141 -51t56 -125v-487zM440 780q0 -73 -56 -124.5t-140 -51.5q-85 0 -141 51.5t-56 124.5v488q0 73 56 124.5t141 51.5q84 0 140 -51.5t56 -124.5v-488zM786 1434
l-532 -1434h-47l532 1434h47zM946 166q0 -73 -56 -124.5t-140 -51.5q-85 0 -141 51.5t-56 124.5v487q0 74 56 125t141 51q84 0 140 -51t56 -125v-487zM1262 92v635q0 66 -56 66q-55 0 -55 -66v-635q0 -65 55 -65q56 0 56 65zM299 707v634q0 66 -55 66q-56 0 -56 -66v-634
q0 -66 56 -66q55 0 55 66zM805 92v635q0 66 -55 66q-56 0 -56 -66v-635q0 -65 56 -65q55 0 55 65z" />
    <glyph glyph-name="Acircumflex" unicode="&#xc2;" horiz-adv-x="563" 
d="M553 0h-266v37h51l-37 416h-147l-41 -416h51v-37h-154v37h51l144 1397h164l133 -1397h51v-37zM299 489l-68 775l-75 -775h143zM488 1478h-45l-150 146l-149 -146h-47l155 308h78z" />
    <glyph glyph-name="Ecircumflex" unicode="&#xca;" horiz-adv-x="594" 
d="M543 0h-512v37h51v1360h-51v37h512v-430h-164v393h-133v-621h194v-37h-194v-702h133v393h164v-430zM496 1484h-45l-150 146l-149 -146h-47l155 308h78z" />
    <glyph glyph-name="Aacute" unicode="&#xc1;" horiz-adv-x="563" 
d="M553 0h-266v37h51l-37 416h-147l-41 -416h51v-37h-154v37h51l144 1397h164l133 -1397h51v-37zM299 489l-68 775l-75 -775h143zM506 1771l-213 -287h-45l84 308h174v-21z" />
    <glyph glyph-name="Edieresis" unicode="&#xcb;" horiz-adv-x="594" 
d="M543 0h-512v37h51v1360h-51v37h512v-430h-164v393h-133v-621h194v-37h-194v-702h133v393h164v-430zM487 1485h-143v215h143v-215zM266 1485h-143v215h143v-215z" />
    <glyph glyph-name="Egrave" unicode="&#xc8;" horiz-adv-x="594" 
d="M543 0h-512v37h51v1360h-51v37h512v-430h-164v393h-133v-621h194v-37h-194v-702h133v393h164v-430zM350 1484h-45l-213 287v21h174z" />
    <glyph glyph-name="Iacute" unicode="&#xcd;" horiz-adv-x="336" 
d="M301 0h-266v37h51v1360h-51v37h266v-37h-51v-1360h51v-37zM389 1771l-213 -287h-45l84 308h174v-21z" />
    <glyph glyph-name="Icircumflex" unicode="&#xce;" horiz-adv-x="336" 
d="M301 0h-266v37h51v1360h-51v37h266v-37h-51v-1360h51v-37zM365 1484h-45l-150 146l-149 -146h-47l155 308h78z" />
    <glyph glyph-name="Idieresis" unicode="&#xcf;" horiz-adv-x="336" 
d="M301 0h-266v37h51v1360h-51v37h266v-37h-51v-1360h51v-37zM348 1485h-143v215h143v-215zM127 1485h-143v215h143v-215z" />
    <glyph glyph-name="Igrave" unicode="&#xcc;" horiz-adv-x="336" 
d="M301 0h-266v37h51v1360h-51v37h266v-37h-51v-1360h51v-37zM198 1484h-45l-213 287v21h174z" />
    <glyph glyph-name="Oacute" unicode="&#xd3;" 
d="M553 199q0 -86 -72 -147.5t-174 -61.5q-101 0 -173.5 61.5t-72.5 147.5v1036q0 86 72.5 147.5t173.5 61.5q102 0 174 -61.5t72 -147.5v-1036zM389 109v1216q0 34 -24 58t-58 24t-58 -24t-24 -58v-1216q0 -34 24 -58t58 -24t58 24t24 58zM528 1771l-213 -287h-45l84 308
h174v-21z" />
    <glyph glyph-name="Ocircumflex" unicode="&#xd4;" 
d="M553 199q0 -86 -72 -147.5t-174 -61.5q-101 0 -173.5 61.5t-72.5 147.5v1036q0 86 72.5 147.5t173.5 61.5q102 0 174 -61.5t72 -147.5v-1036zM389 109v1216q0 34 -24 58t-58 24t-58 -24t-24 -58v-1216q0 -34 24 -58t58 -24t58 24t24 58zM504 1484h-45l-150 146l-149 -146
h-47l155 308h78z" />
    <glyph glyph-name="apple" horiz-adv-x="1024" 
d="M128 0v1638h768v-1638h-768zM256 128h512v1382h-512v-1382z" />
    <glyph glyph-name="Ograve" unicode="&#xd2;" 
d="M553 199q0 -86 -72 -147.5t-174 -61.5q-101 0 -173.5 61.5t-72.5 147.5v1036q0 86 72.5 147.5t173.5 61.5q102 0 174 -61.5t72 -147.5v-1036zM389 109v1216q0 34 -24 58t-58 24t-58 -24t-24 -58v-1216q0 -34 24 -58t58 -24t58 24t24 58zM342 1484h-45l-213 287v21h174z
" />
    <glyph glyph-name="Uacute" unicode="&#xda;" horiz-adv-x="635" 
d="M614 1397h-51v-1198q0 -86 -72 -147.5t-174 -61.5q-101 0 -173 61.5t-72 147.5v1198h-52v37h267v-37h-51v-1288q0 -34 24 -58t57 -24q34 0 58 24t24 58v1288h-51v37h266v-37zM497 1771l-213 -287h-45l84 308h174v-21z" />
    <glyph glyph-name="Ucircumflex" unicode="&#xdb;" horiz-adv-x="635" 
d="M614 1397h-51v-1198q0 -86 -72 -147.5t-174 -61.5q-101 0 -173 61.5t-72 147.5v1198h-52v37h267v-37h-51v-1288q0 -34 24 -58t57 -24q34 0 58 24t24 58v1288h-51v37h266v-37zM514 1484h-45l-150 146l-149 -146h-47l155 308h78z" />
    <glyph glyph-name="Ugrave" unicode="&#xd9;" horiz-adv-x="635" 
d="M614 1397h-51v-1198q0 -86 -72 -147.5t-174 -61.5q-101 0 -173 61.5t-72 147.5v1198h-52v37h267v-37h-51v-1288q0 -34 24 -58t57 -24q34 0 58 24t24 58v1288h-51v37h266v-37zM348 1484h-45l-213 287v21h174z" />
    <glyph glyph-name="dotlessi" unicode="&#x131;" horiz-adv-x="311" 
d="M289 0h-262v37h51v991h-51v37h211v-1028h51v-37z" />
    <glyph glyph-name="circumflex" unicode="&#x2c6;" 
d="M502 1126h-45l-150 146l-149 -146h-47l155 308h78z" />
    <glyph glyph-name="tilde" unicode="&#x2dc;" 
d="M545 1331l-13 -59q-23 -113 -121 -113q-24 0 -51 6l-155 37q-15 4 -27 4q-45 0 -74 -57l-34 10l12 60q23 112 122 112q23 0 50 -6l156 -37q14 -3 26 -3q46 0 74 56z" />
    <glyph glyph-name="macron" unicode="&#xaf;" 
d="M512 1174h-410v122h410v-122z" />
    <glyph glyph-name="macron" unicode="&#x2c9;" 
d="M512 1174h-410v122h410v-122z" />
    <glyph glyph-name="breve" unicode="&#x2d8;" 
d="M502 1300q0 -153 -195 -153q-194 0 -194 153v50h141v-111q0 -61 53 -61t53 61v111h142v-50z" />
    <glyph glyph-name="dotaccent" unicode="&#x2d9;" 
d="M379 1143h-143v215h143v-215z" />
    <glyph glyph-name="ring" unicode="&#x2da;" 
d="M502 1280q0 -154 -195 -154q-194 0 -194 154t194 154q195 0 195 -154zM360 1219v122q0 62 -53 62t-53 -62v-122q0 -62 53 -62t53 62z" />
    <glyph glyph-name="cedilla" unicode="&#xb8;" 
d="M434 -172q0 -115 -125 -115h-110v31h39q63 0 63 84t-63 84h-9v27l35 61h45l-35 -57h35q125 0 125 -115z" />
    <glyph glyph-name="hungarumlaut" unicode="&#x2dd;" 
d="M541 1413l-213 -287h-45l84 308h174v-21zM315 1413l-213 -287h-45l84 308h174v-21z" />
    <glyph glyph-name="ogonek" unicode="&#x2db;" 
d="M453 -287h-21q-205 0 -205 189v98h133v-158q0 -92 72 -92h21v-37z" />
    <glyph glyph-name="caron" unicode="&#x2c7;" 
d="M502 1434l-158 -308h-78l-155 308h47l149 -146l150 146h45z" />
    <glyph glyph-name="Lslash" unicode="&#x141;" horiz-adv-x="563" 
d="M532 0h-501v37h51v629l-51 -31v41l51 31v690h-51v37h266v-37h-51v-590l123 74v-41l-123 -74v-729h123v393h163v-430z" />
    <glyph glyph-name="lslash" unicode="&#x142;" horiz-adv-x="307" 
d="M285 0h-262v37h51v653l-51 -31v39l51 31v668h-51v37h210v-607l52 31v-39l-52 -31v-751h52v-37z" />
    <glyph glyph-name="Scaron" unicode="&#x160;" horiz-adv-x="578" 
d="M524 199q0 -87 -67.5 -148t-167.5 -61q-101 0 -168.5 61t-67.5 148v231h164v-321q0 -82 72 -82q71 0 71 82v249q0 102 -49 179l-205 319q-53 83 -53 184v195q0 87 67.5 148t168.5 61q100 0 167.5 -61t67.5 -148v-231h-164v321q0 82 -71 82q-72 0 -72 -82v-240
q0 -101 49 -178l205 -319q53 -83 53 -185v-204zM488 1792l-158 -308h-78l-155 308h47l149 -146l150 146h45z" />
    <glyph glyph-name="scaron" unicode="&#x161;" horiz-adv-x="532" 
d="M489 199q0 -89 -59 -148q-63 -61 -162 -61t-162 60.5t-63 148.5v127h160v-217q0 -82 65 -82q62 0 62 82v157q0 99 -56 154l-168 166q-63 62 -63 182v98q0 89 61 149t160 60t160 -60t61 -149v-127h-159v217q0 82 -62 82q-61 0 -61 -82v-141q0 -99 55 -153l168 -166
q63 -63 63 -183v-114zM461 1434l-158 -308h-78l-155 308h47l149 -146l150 146h45z" />
    <glyph glyph-name="Zcaron" unicode="&#x17d;" horiz-adv-x="582" 
d="M541 1397l-336 -1360h174v393h151v-430h-489v37l336 1360h-174v-393h-152v430h490v-37zM486 1792l-158 -308h-78l-155 308h47l149 -146l150 146h45z" />
    <glyph glyph-name="zcaron" unicode="&#x17e;" horiz-adv-x="528" 
d="M485 0h-450v37l291 991h-131v-289h-152v326h442v-37l-290 -991h139v289h151v-326zM463 1434l-158 -308h-78l-155 308h47l149 -146l150 146h45z" />
    <glyph glyph-name="brokenbar" unicode="&#xa6;" horiz-adv-x="215" 
d="M133 782h-51v652h51v-652zM133 -287h-51v1020h51v-1020z" />
    <glyph glyph-name="Eth" unicode="&#xd0;" horiz-adv-x="625" 
d="M563 209q0 -86 -72 -147.5t-174 -61.5h-286v37h51v702h-51v37h51v621h-51v37h286q102 0 174 -61.5t72 -147.5v-1016zM399 119v1196q0 34 -24 58t-58 24h-71v-621h51v-37h-51v-702h71q34 0 58 24t24 58z" />
    <glyph glyph-name="eth" unicode="&#xf0;" horiz-adv-x="565" 
d="M565 1335l-65 -35q14 -43 14 -75v-1026q0 -88 -65.5 -148.5t-165.5 -60.5t-166 60.5t-66 148.5v688q0 188 178 188q76 0 125 -39v189l-92 -49v41l92 49v49q0 82 -71 82h-52v37h52q136 0 198 -101l84 43v-41zM354 109v890q-35 35 -84 35q-59 0 -59 -78v-847q0 -82 72 -82
q71 0 71 82z" />
    <glyph glyph-name="Yacute" unicode="&#xdd;" horiz-adv-x="584" 
d="M573 1397h-51l-153 -817v-543h51v-37h-266v37h51v543l-144 817h-51v37h262v-37h-51l121 -713l131 713h-51v37h151v-37zM520 1771l-213 -287h-45l84 308h174v-21z" />
    <glyph glyph-name="yacute" unicode="&#xfd;" horiz-adv-x="578" 
d="M514 -88q0 -88 -62 -148.5t-161 -60.5q-93 0 -161.5 61.5t-68.5 147.5v37h160v-127q0 -82 70 -82q63 0 63 82v227q-45 -39 -118 -39q-175 0 -175 189v829h-51v37h211v-936q0 -78 60 -78q38 0 73 35v942h-51v37h211v-1153zM500 1413l-213 -287h-45l84 308h174v-21z" />
    <glyph glyph-name="Thorn" unicode="&#xde;" horiz-adv-x="604" 
d="M563 547q0 -86 -72 -147.5t-174 -61.5h-71v-301h51v-37h-266v37h51v1360h-51v37h266v-37h-51v-240h71q102 0 174 -61.5t72 -147.5v-401zM399 457v581q0 34 -24 58t-58 24h-71v-745h71q34 0 58 24t24 58z" />
    <glyph glyph-name="thorn" unicode="&#xfe;" horiz-adv-x="569" 
d="M516 178q0 -188 -174 -188q-74 0 -119 39v-279h51v-37h-262v37h51v1647h-51v37h211v-398q45 39 119 39q174 0 174 -188v-709zM356 109v847q0 78 -59 78q-39 0 -74 -35v-933q35 -35 74 -35q59 0 59 78z" />
    <glyph glyph-name="minus" unicode="&#xad;" horiz-adv-x="471" 
d="M436 735h-401v45h401v-45z" />
    <glyph glyph-name="minus" unicode="&#x2212;" horiz-adv-x="471" 
d="M436 735h-401v45h401v-45z" />
    <glyph glyph-name="multiply" unicode="&#xd7;" horiz-adv-x="471" 
d="M416 612l-35 -34l-145 145l-146 -145l-35 34l146 146l-146 145l35 35l146 -145l145 145l35 -35l-146 -145z" />
    <glyph glyph-name="onesuperior" unicode="&#xb9;" horiz-adv-x="326" 
d="M297 614h-262v37h51v745h-51v37h211v-782h51v-37z" />
    <glyph glyph-name="twosuperior" unicode="&#xb2;" horiz-adv-x="506" 
d="M457 614h-406v131q0 66 47 125l170 213q45 56 45 121v133q0 74 -59 74t-59 -74v-199h-144v119q0 82 56.5 134t146.5 52t146.5 -52t56.5 -134v-102q0 -61 -47 -117l-170 -203q-45 -54 -45 -112v-76h118v186h144v-219z" />
    <glyph glyph-name="threesuperior" unicode="&#xb3;" horiz-adv-x="494" 
d="M446 792q0 -85 -55.5 -135.5t-146.5 -50.5q-93 0 -148 50t-55 136v107h143v-187q0 -73 60 -73q59 0 59 73v232q0 73 -74 73h-94v35h94q74 0 74 74v211q0 74 -59 74q-60 0 -60 -74v-188h-143v108q0 85 55.5 135.5t147.5 50.5q91 0 146.5 -51t55.5 -135v-59
q0 -120 -129 -164q129 -41 129 -162v-80z" />
    <glyph glyph-name="onehalf" unicode="&#xbd;" horiz-adv-x="1024" 
d="M704 1434l-460 -1434h-48l461 1434h47zM297 614h-262v37h51v745h-51v37h211v-782h51v-37zM969 0h-406v131q0 66 47 125l170 213q45 56 45 121v133q0 74 -59 74t-59 -74v-199h-144v119q0 82 56.5 134t146.5 52t146.5 -52t56.5 -134v-102q0 -61 -47 -117l-170 -203
q-45 -54 -45 -112v-76h118v186h144v-219z" />
    <glyph glyph-name="onequarter" unicode="&#xbc;" horiz-adv-x="1024" 
d="M725 1434l-460 -1434h-48l461 1434h47zM297 614h-262v37h51v745h-51v37h211v-782h51v-37zM939 0h-237v33h47v190h-222v39l222 557h143v-557h47v-39h-47v-190h47v-33zM749 262v461l-179 -461h179z" />
    <glyph glyph-name="threequarters" unicode="&#xbe;" horiz-adv-x="1024" 
d="M807 1434l-460 -1434h-48l461 1434h47zM446 792q0 -85 -55.5 -135.5t-146.5 -50.5q-93 0 -148 50t-55 136v107h143v-187q0 -73 60 -73q59 0 59 73v232q0 73 -74 73h-94v35h94q74 0 74 74v211q0 74 -59 74q-60 0 -60 -74v-188h-143v108q0 85 55.5 135.5t147.5 50.5
q91 0 146.5 -51t55.5 -135v-59q0 -120 -129 -164q129 -41 129 -162v-80zM969 0h-237v33h47v190h-222v39l222 557h143v-557h47v-39h-47v-190h47v-33zM779 262v461l-179 -461h179z" />
    <glyph glyph-name="glyph247" horiz-adv-x="471" 
d="M436 735h-401v45h401v-45z" />
    <glyph glyph-name="glyph248" horiz-adv-x="123" 
d="M315 1434l-460 -1434h-48l461 1434h47z" />
    <glyph glyph-name="glyph249" horiz-adv-x="324" 
d="M291 1065l-205 -1065h-53l205 1065h53z" />
    <glyph glyph-name="glyph250" horiz-adv-x="461" 
d="M432 614h-237v33h47v190h-222v39l222 557h143v-557h47v-39h-47v-190h47v-33zM242 876v461l-179 -461h179z" />
    <glyph glyph-name="glyph251" horiz-adv-x="662" 
d="M684 1397h-51q-72 0 -72 -82v-250h82v-37h-82v-991h51v-37h-262v37h51v991h-170v-991h52v-37h-263v37h52v991h-52v37h52v160q0 87 65.5 148t165.5 61h51v-37h-51q-72 0 -72 -82v-250h170v160q0 87 66 148t166 61h51v-37z" />
    <glyph glyph-name="glyph252" horiz-adv-x="958" 
d="M942 0h-262v37h51v991h-170v-991h51v-37h-262v37h51v991h-170v-991h52v-37h-263v37h52v991h-52v37h52v160q0 87 65.5 148t165.5 61h51v-37h-51q-72 0 -72 -82v-250h170v160q0 87 66 148t166 61h258v-246h-160v209h-98q-72 0 -72 -82v-250h330v-1028h51v-37z" />
    <glyph glyph-name="glyph253" horiz-adv-x="958" 
d="M942 0h-262v37h51v1360h-98q-72 0 -72 -82v-250h82v-37h-82v-991h51v-37h-262v37h51v991h-170v-991h52v-37h-263v37h52v991h-52v37h52v160q0 87 65.5 148t165.5 61h51v-37h-51q-72 0 -72 -82v-250h170v160q0 87 66 148t166 61h258v-1397h51v-37z" />
    <glyph glyph-name="glyph254" horiz-adv-x="754" 
d="M692 274q0 -118 -88 -200q-91 -84 -227 -84t-226 83t-90 201v885q0 119 90 202t226 83t227 -84q88 -82 88 -201v-885zM653 270v893q0 103 -78.5 173.5t-197.5 70.5t-198 -70.5t-79 -173.5v-893q0 -102 79 -172.5t198 -70.5t197.5 70.5t78.5 172.5zM565 799
q0 -62 -50.5 -105t-121.5 -43h-51v-403h37v-27h-186v27h34v952h-34v25h200q71 0 121.5 -43t50.5 -103v-280zM451 735v408q0 57 -58 57h-51v-522h51q58 0 58 57z" />
    <glyph glyph-name="glyph255" horiz-adv-x="303" 
d="M231 688l-49 -381h-61l-49 381v377h159v-377zM231 0h-159v246h159v-246z" />
    <glyph glyph-name="glyph256" horiz-adv-x="676" 
d="M666 739h-88l-50 -413h97v-37h-101l-32 -289h-152l33 289h-123l-33 -289h-156l33 289h-84v37h88l49 413h-96v37h101l32 289h156l-33 -289h123l33 289h151l-32 -289h84v-37zM426 739h-123l-49 -413h123z" />
    <glyph glyph-name="glyph257" horiz-adv-x="541" 
d="M494 199q0 -84 -54.5 -143t-144.5 -66v-113h-45v113q-91 7 -147 66.5t-56 142.5v127h160v-217q0 -82 65 -82q62 0 62 82v157q0 99 -55 154l-168 166q-64 62 -64 182v98q0 84 55.5 143.5t147.5 65.5v113h45v-115q87 -7 142 -67q52 -58 52 -140v-127h-159v217q0 82 -62 82
q-61 0 -61 -82v-141q0 -99 55 -153l168 -166q64 -63 64 -183v-114z" />
    <glyph glyph-name="glyph258" horiz-adv-x="993" 
d="M946 166q0 -73 -56 -124.5t-140 -51.5q-85 0 -141 51.5t-56 124.5v283q0 73 56 124.5t141 51.5q84 0 140 -51.5t56 -124.5v-283zM786 1065l-532 -1065h-47l532 1065h47zM440 616q0 -73 -56 -124.5t-140 -51.5q-85 0 -141 51.5t-56 124.5v283q0 73 56 124.5t141 51.5
q84 0 140 -51.5t56 -124.5v-283zM805 92v430q0 66 -55 66q-56 0 -56 -66v-430q0 -65 56 -65q55 0 55 65zM299 543v430q0 65 -55 65q-56 0 -56 -65v-430q0 -66 56 -66q55 0 55 66z" />
    <glyph glyph-name="glyph259" horiz-adv-x="580" 
d="M561 535h-51v-336q0 -88 -65.5 -148.5t-165.5 -60.5t-166 60.5t-66 148.5v174q0 132 143 180q-143 48 -143 180v133q0 88 66 148.5t166 60.5t165.5 -60.5t65.5 -148.5v-127h-160v217q0 82 -71 82q-72 0 -72 -82v-303q0 -33 24 -57.5t58 -24.5h272v-36zM350 109v426h-61
q-34 0 -58 -24.5t-24 -57.5v-344q0 -82 72 -82q71 0 71 82z" />
    <glyph glyph-name="glyph260" horiz-adv-x="358" 
d="M324 0h-31q-100 0 -166 61t-66 148v647q0 87 66 148t166 61h31v-37h-31q-72 0 -72 -82v-827q0 -82 72 -82h31v-37z" />
    <glyph glyph-name="glyph261" horiz-adv-x="358" 
d="M297 209q0 -87 -65.5 -148t-165.5 -61h-31v37h31q71 0 71 82v827q0 82 -71 82h-31v37h31q100 0 165.5 -61t65.5 -148v-647z" />
    <glyph glyph-name="glyph262" horiz-adv-x="324" 
d="M291 1065l-205 -1065h-53l205 1065h53z" />
    <glyph glyph-name="glyph263" horiz-adv-x="565" 
d="M514 199q0 -88 -65.5 -148.5t-165.5 -60.5t-166 60.5t-66 148.5v667q0 88 66 148.5t166 60.5t165.5 -60.5t65.5 -148.5v-667zM354 109v847q0 82 -71 82q-72 0 -72 -82v-847q0 -82 72 -82q71 0 71 82z" />
    <glyph glyph-name="glyph264" horiz-adv-x="326" 
d="M297 0h-262v37h51v991h-51v37h211v-1028h51v-37z" />
    <glyph glyph-name="glyph265" horiz-adv-x="561" 
d="M502 0h-451v170q0 94 53 184l189 320q49 83 49 178v104q0 82 -66 82q-65 0 -65 -82v-217h-160v127q0 92 62.5 150.5t162.5 58.5q101 0 163.5 -58.5t62.5 -150.5v-59q0 -94 -53 -184l-189 -320q-49 -83 -49 -178v-88h131v289h160v-326z" />
    <glyph glyph-name="glyph266" horiz-adv-x="549" 
d="M496 199q0 -95 -62 -152t-164 -57q-101 0 -163 57t-62 152v127h160v-217q0 -82 65 -82q66 0 66 82v344q0 82 -82 82h-104v36h104q82 0 82 82v303q0 82 -66 82q-65 0 -65 -82v-217h-160v127q0 95 62 152t163 57q102 0 164 -57t62 -152v-133q0 -132 -144 -180
q144 -48 144 -180v-174z" />
    <glyph glyph-name="glyph267" horiz-adv-x="512" 
d="M479 0h-262v37h51v184h-245v43l245 801h160v-801h51v-43h-51v-184h51v-37zM268 264v666l-198 -666h198z" />
    <glyph glyph-name="glyph268" horiz-adv-x="551" 
d="M502 199q0 -92 -63.5 -150.5t-164.5 -58.5q-100 0 -163.5 58.5t-63.5 150.5v127h160v-217q0 -82 67 -82q68 0 68 82v344q0 82 -74 82h-217v530h436v-326h-159v289h-117v-457h57q100 0 167 -60.5t67 -148.5v-163z" />
    <glyph glyph-name="glyph269" horiz-adv-x="569" 
d="M518 199q0 -91 -66 -150t-167 -59q-102 0 -168 59t-66 150v667q0 91 66 150t168 59q101 0 167 -59t66 -150v-127h-160v217q0 82 -73 82q-74 0 -74 -82v-387q45 39 127 39q180 0 180 -188v-221zM358 109v380q0 78 -67 78q-42 0 -80 -30v-428q0 -82 74 -82q73 0 73 82z" />
    <glyph glyph-name="glyph270" horiz-adv-x="541" 
d="M508 1028l-225 -1028h-158l225 1028h-164v-289h-157v326h479v-37z" />
    <glyph glyph-name="glyph271" horiz-adv-x="565" 
d="M514 199q0 -88 -65.5 -148.5t-165.5 -60.5t-166 60.5t-66 148.5v174q0 132 144 180q-144 48 -144 180v133q0 88 66 148.5t166 60.5t165.5 -60.5t65.5 -148.5v-133q0 -132 -143 -180q143 -48 143 -180v-174zM354 653v303q0 82 -71 82q-72 0 -72 -82v-303q0 -82 72 -82
q71 0 71 82zM354 109v344q0 82 -71 82q-72 0 -72 -82v-344q0 -82 72 -82q71 0 71 82z" />
    <glyph glyph-name="glyph272" horiz-adv-x="569" 
d="M518 199q0 -91 -66 -150t-167 -59q-102 0 -168 59t-66 150v127h160v-217q0 -82 74 -82q73 0 73 82v387q-45 -39 -127 -39q-180 0 -180 188v221q0 91 66 150t168 59q101 0 167 -59t66 -150v-667zM358 528v428q0 82 -73 82q-74 0 -74 -82v-381q0 -77 68 -77q41 0 79 30z
" />
    <glyph glyph-name="glyph273" horiz-adv-x="549" 
d="M500 815q0 -111 -47 -184l-80 -125q-56 -87 -66 -156l-6 -43h-61l-19 148q-4 32 -4 61q0 48 25 86l51 80q43 67 43 178v96q0 82 -66 82q-65 0 -65 -82v-217h-164v127q0 91 64 150t165 59t165.5 -59t64.5 -150v-51zM350 0h-160v246h160v-246z" />
    <glyph glyph-name="glyph274" horiz-adv-x="754" 
d="M692 334q0 -123 -119 -123q-76 0 -124 51q-52 -51 -113 -51q-135 0 -135 133v383q0 131 135 131q62 0 94 -27v21h115v-535q0 -73 49 -73q59 0 59 73v478q0 102 -78.5 172.5t-197.5 70.5t-198 -70.5t-79 -172.5v-514q0 -103 79 -173.5t198 -70.5h172v-37h-172
q-136 0 -226 83t-90 202v506q0 118 90 201t226 83t227 -84q88 -82 88 -200v-457zM430 281v524q-24 24 -61 24q-54 0 -54 -53v-485q0 -51 41 -51q44 0 74 41z" />
    <glyph glyph-name="glyph275" horiz-adv-x="358" 
d="M324 0h-252v1065h252v-37h-93v-991h93v-37z" />
    <glyph glyph-name="glyph276" horiz-adv-x="324" 
d="M291 0h-53l-205 1065h53z" />
    <glyph glyph-name="glyph277" horiz-adv-x="358" 
d="M287 0h-252v37h92v991h-92v37h252v-1065z" />
    <glyph glyph-name="glyph278" horiz-adv-x="541" 
d="M530 0h-274v37h51l-28 258h-134l-30 -258h51v-37h-156v37h51l136 1028h147l135 -1028h51v-37zM274 332l-61 526l-63 -526h124z" />
    <glyph glyph-name="glyph279" horiz-adv-x="575" 
d="M524 209q0 -87 -65.5 -148t-165.5 -61h-273v37h52v991h-52v37h273q100 0 165.5 -61t65.5 -148v-123q0 -132 -143 -180q143 -48 143 -180v-164zM365 653v293q0 82 -72 82h-62v-457h52q82 0 82 82zM365 119v334q0 82 -82 82h-52v-498h62q72 0 72 82z" />
    <glyph glyph-name="glyph280" horiz-adv-x="559" 
d="M514 199q0 -88 -65.5 -148.5t-165.5 -60.5t-166 60.5t-66 148.5v667q0 88 66 148.5t166 60.5t165.5 -60.5t65.5 -148.5v-127h-160v217q0 82 -71 82q-72 0 -72 -82v-847q0 -82 72 -82q71 0 71 82v217h160v-127z" />
    <glyph glyph-name="glyph281" horiz-adv-x="575" 
d="M524 209q0 -87 -65.5 -148t-165.5 -61h-273v37h52v991h-52v37h273q100 0 165.5 -61t65.5 -148v-647zM365 119v827q0 82 -72 82h-62v-991h62q72 0 72 82z" />
    <glyph glyph-name="glyph282" horiz-adv-x="553" 
d="M510 0h-490v37h52v991h-52v37h490v-326h-160v289h-119v-457h160v-36h-160v-498h119v289h160v-326z" />
    <glyph glyph-name="glyph283" horiz-adv-x="528" 
d="M500 739h-160v289h-109v-457h150v-36h-150v-498h52v-37h-263v37h52v991h-52v37h480v-326z" />
    <glyph glyph-name="glyph284" horiz-adv-x="565" 
d="M514 199q0 -88 -65.5 -148.5t-165.5 -60.5t-166 60.5t-66 148.5v667q0 88 66 148.5t166 60.5t165.5 -60.5t65.5 -148.5v-127h-160v217q0 82 -71 82q-72 0 -72 -82v-847q0 -82 72 -82q71 0 71 82v426h-71v36h231v-372z" />
    <glyph glyph-name="glyph285" horiz-adv-x="596" 
d="M575 0h-256v37h46v498h-134v-498h45v-37h-256v37h52v991h-52v37h256v-37h-45v-457h134v457h-46v37h256v-37h-51v-991h51v-37z" />
    <glyph glyph-name="glyph286" horiz-adv-x="315" 
d="M289 0h-262v37h51v991h-51v37h262v-37h-51v-991h51v-37z" />
    <glyph glyph-name="glyph287" horiz-adv-x="530" 
d="M514 1028h-51v-829q0 -87 -63.5 -148t-153.5 -61q-91 0 -154 61t-63 148v127h159v-228q0 -71 58 -71q57 0 57 71v930h-51v37h262v-37z" />
    <glyph glyph-name="glyph288" horiz-adv-x="580" 
d="M571 0h-206l-134 522v-485h52v-37h-263v37h52v991h-52v37h263v-37h-52v-436l205 436h-53v37h156v-37h-52l-151 -328l180 -663h55v-37z" />
    <glyph glyph-name="glyph289" horiz-adv-x="528" 
d="M500 0h-480v37h52v991h-52v37h263v-37h-52v-991h109v289h160v-326z" />
    <glyph glyph-name="glyph290" horiz-adv-x="705" 
d="M684 0h-262v37h51v688l-121 -725h-110l-121 725v-688h51v-37h-152v37h52v991h-52v37h211l119 -789l125 789h209v-37h-51v-991h51v-37z" />
    <glyph glyph-name="glyph291" horiz-adv-x="535" 
d="M514 1028h-51v-1028h-111l-231 838v-801h51v-37h-152v37h52v991h-52v37h201l193 -696v659h-52v37h152v-37z" />
    <glyph glyph-name="glyph292" horiz-adv-x="565" 
d="M514 199q0 -88 -65.5 -148.5t-165.5 -60.5t-166 60.5t-66 148.5v667q0 88 66 148.5t166 60.5t165.5 -60.5t65.5 -148.5v-667zM354 109v847q0 82 -71 82q-72 0 -72 -82v-847q0 -82 72 -82q71 0 71 82z" />
    <glyph glyph-name="glyph293" horiz-adv-x="549" 
d="M524 659q0 -87 -65.5 -147.5t-165.5 -60.5h-62v-414h52v-37h-263v37h52v991h-52v37h273q100 0 165.5 -61t65.5 -148v-197zM365 569v377q0 82 -72 82h-62v-541h62q72 0 72 82z" />
    <glyph glyph-name="glyph294" horiz-adv-x="565" 
d="M514 199q0 -83 -60 -143t-153 -66v-174h-37v174q-92 6 -152.5 66t-60.5 143v667q0 88 66 148.5t166 60.5t165.5 -60.5t65.5 -148.5v-667zM354 109v847q0 82 -71 82q-72 0 -72 -82v-847q0 -68 53 -80v213h37v-213q53 12 53 80z" />
    <glyph glyph-name="glyph295" horiz-adv-x="584" 
d="M575 0h-71q-139 0 -139 139v314q0 82 -82 82h-52v-498h45v-37h-256v37h52v991h-52v37h273q100 0 165.5 -61t65.5 -148v-123q0 -132 -143 -180q143 -48 143 -180v-281q0 -55 47 -55h4v-37zM365 653v293q0 82 -72 82h-62v-457h52q82 0 82 82z" />
    <glyph glyph-name="glyph296" horiz-adv-x="532" 
d="M489 199q0 -89 -59 -148q-63 -61 -162 -61t-162 60.5t-63 148.5v127h160v-217q0 -82 65 -82q62 0 62 82v157q0 99 -56 154l-168 166q-63 62 -63 182v98q0 89 61 149t160 60t160 -60t61 -149v-127h-159v217q0 82 -62 82q-61 0 -61 -82v-141q0 -99 55 -153l168 -166
q63 -63 63 -183v-114z" />
    <glyph glyph-name="glyph297" horiz-adv-x="594" 
d="M573 739h-143v289h-57v-991h51v-37h-254v37h51v991h-57v-289h-144v326h553v-326z" />
    <glyph glyph-name="glyph298" horiz-adv-x="590" 
d="M573 1028h-51v-829q0 -88 -63.5 -148.5t-163.5 -60.5t-163.5 60.5t-63.5 148.5v829h-52v37h256v-37h-45v-919q0 -82 68 -82q67 0 67 82v919h-45v37h256v-37z" />
    <glyph glyph-name="glyph299" horiz-adv-x="541" 
d="M530 1028h-51l-135 -1028h-147l-136 1028h-51v37h275v-37h-52l93 -833l100 833h-51v37h155v-37z" />
    <glyph glyph-name="glyph300" horiz-adv-x="743" 
d="M733 1028h-51l-94 -1028h-156l-70 776l-51 -776h-155l-95 1028h-51v37h260v-37h-51l57 -807l58 844h151l72 -844l68 807h-52v37h160v-37z" />
    <glyph glyph-name="glyph301" horiz-adv-x="522" 
d="M512 0h-270v37h51l-78 348l-100 -348h51v-37h-156v37h51l134 438l-129 553h-52v37h271v-37h-52l74 -332l96 332h-51v37h156v-37h-51l-129 -424l133 -567h51v-37z" />
    <glyph glyph-name="glyph302" horiz-adv-x="561" 
d="M551 1028h-51l-140 -584v-407h52v-37h-262v37h51v407l-140 584h-51v37h275v-37h-52l109 -469l104 469h-51v37h156v-37z" />
    <glyph glyph-name="glyph303" horiz-adv-x="528" 
d="M485 0h-450v37l291 991h-131v-289h-152v326h442v-37l-290 -991h139v289h151v-326z" />
    <glyph glyph-name="glyph304" horiz-adv-x="430" 
d="M395 0h-30q-100 0 -166 61t-66 148v244q0 82 -82 82h-20v36h20q82 0 82 82v203q0 87 66 148t166 61h30v-37h-30q-72 0 -72 -82v-213q0 -132 -143 -180q143 -48 143 -180v-254q0 -82 72 -82h30v-37z" />
    <glyph glyph-name="glyph305" horiz-adv-x="430" 
d="M399 535h-20q-34 0 -58 -24.5t-24 -57.5v-244q0 -87 -65.5 -148t-165.5 -61h-31v37h31q71 0 71 82v254q0 132 144 180q-144 48 -144 180v213q0 82 -71 82h-31v37h31q100 0 165.5 -61t65.5 -148v-203q0 -33 24 -57.5t58 -24.5h20v-36z" />
    <glyph glyph-name="glyph306" horiz-adv-x="575" 
d="M524 209q0 -87 -65.5 -148t-165.5 -61h-273v37h52v498h-52v36h52v457h-52v37h273q100 0 165.5 -61t65.5 -148v-647zM365 119v827q0 82 -72 82h-62v-457h56v-36h-56v-498h62q72 0 72 82z" />
    <glyph glyph-name="glyph307" horiz-adv-x="528" 
d="M500 0h-480v37h52v414l-52 -31v41l52 31v536h-52v37h263v-37h-52v-440l127 78v-41l-127 -78v-510h109v289h160v-326z" />
    <glyph glyph-name="glyph308" horiz-adv-x="532" 
d="M489 199q0 -89 -59 -148q-63 -61 -162 -61t-162 60.5t-63 148.5v127h160v-217q0 -82 65 -82q62 0 62 82v157q0 99 -56 154l-168 166q-63 62 -63 182v98q0 89 61 149t160 60t160 -60t61 -149v-127h-159v217q0 82 -62 82q-61 0 -61 -82v-141q0 -99 55 -153l168 -166
q63 -63 63 -183v-114zM461 1434l-158 -308h-78l-155 308h47l149 -146l150 146h45z" />
    <glyph glyph-name="glyph309" horiz-adv-x="561" 
d="M551 1028h-51l-140 -584v-407h52v-37h-262v37h51v407l-140 584h-51v37h275v-37h-52l109 -469l104 469h-51v37h156v-37zM514 1413l-213 -287h-45l84 308h174v-21z" />
    <glyph glyph-name="glyph310" horiz-adv-x="549" 
d="M524 457q0 -88 -65.5 -148.5t-165.5 -60.5h-62v-211h52v-37h-263v37h52v991h-52v37h263v-37h-52v-166h62q100 0 165.5 -60.5t65.5 -148.5v-196zM365 367v376q0 82 -72 82h-62v-540h62q72 0 72 82z" />
    <glyph glyph-name="glyph311" horiz-adv-x="528" 
d="M485 0h-450v37l291 991h-131v-289h-152v326h442v-37l-290 -991h139v289h151v-326zM463 1434l-158 -308h-78l-155 308h47l149 -146l150 146h45z" />
    <glyph glyph-name="glyph312" horiz-adv-x="541" 
d="M530 0h-274v37h51l-28 258h-134l-30 -258h51v-37h-156v37h51l136 1028h147l135 -1028h51v-37zM274 332l-61 526l-63 -526h124zM498 1413l-213 -287h-45l84 308h174v-21z" />
    <glyph glyph-name="glyph313" horiz-adv-x="541" 
d="M530 0h-274v37h51l-28 258h-134l-30 -258h51v-37h-156v37h51l136 1028h147l135 -1028h51v-37zM274 332l-61 526l-63 -526h124zM299 1126h-45l-213 287v21h174z" />
    <glyph glyph-name="glyph314" horiz-adv-x="541" 
d="M530 0h-274v37h51l-28 258h-134l-30 -258h51v-37h-156v37h51l136 1028h147l135 -1028h51v-37zM274 332l-61 526l-63 -526h124zM471 1126h-45l-150 146l-149 -146h-47l155 308h78z" />
    <glyph glyph-name="glyph315" horiz-adv-x="541" 
d="M530 0h-274v37h51l-28 258h-134l-30 -258h51v-37h-156v37h51l136 1028h147l135 -1028h51v-37zM274 332l-61 526l-63 -526h124zM452 1143h-143v215h143v-215zM231 1143h-143v215h143v-215z" />
    <glyph glyph-name="glyph316" horiz-adv-x="541" 
d="M530 0h-274v37h51l-28 258h-134l-30 -258h51v-37h-156v37h51l136 1028h147l135 -1028h51v-37zM274 332l-61 526l-63 -526h124zM514 1331l-13 -59q-23 -113 -121 -113q-24 0 -51 6l-155 37q-15 4 -27 4q-45 0 -74 -57l-34 10l12 60q23 112 122 112q23 0 50 -6l156 -37
q14 -3 26 -3q46 0 74 56z" />
    <glyph glyph-name="glyph317" horiz-adv-x="541" 
d="M530 0h-274v37h51l-28 258h-134l-30 -258h51v-37h-156v37h51l136 1028h147l135 -1028h51v-37zM274 332l-61 526l-63 -526h124zM465 1280q0 -154 -195 -154q-194 0 -194 154t194 154q195 0 195 -154zM323 1219v122q0 62 -53 62t-53 -62v-122q0 -62 53 -62t53 62z" />
    <glyph glyph-name="glyph318" horiz-adv-x="559" 
d="M514 199q0 -88 -65.5 -148.5t-165.5 -60.5t-166 60.5t-66 148.5v667q0 88 66 148.5t166 60.5t165.5 -60.5t65.5 -148.5v-127h-160v217q0 82 -71 82q-72 0 -72 -82v-847q0 -82 72 -82q71 0 71 82v217h160v-127zM418 -172q0 -115 -125 -115h-110v31h39q63 0 63 84t-63 84
h-9v27l35 61h45l-35 -57h35q125 0 125 -115z" />
    <glyph glyph-name="glyph319" horiz-adv-x="553" 
d="M510 0h-490v37h52v991h-52v37h490v-326h-160v289h-119v-457h160v-36h-160v-498h119v289h160v-326zM479 1413l-213 -287h-45l84 308h174v-21z" />
    <glyph glyph-name="glyph320" horiz-adv-x="553" 
d="M510 0h-490v37h52v991h-52v37h490v-326h-160v289h-119v-457h160v-36h-160v-498h119v289h160v-326zM321 1126h-45l-213 287v21h174z" />
    <glyph glyph-name="glyph321" horiz-adv-x="553" 
d="M510 0h-490v37h52v991h-52v37h490v-326h-160v289h-119v-457h160v-36h-160v-498h119v289h160v-326zM471 1126h-45l-150 146l-149 -146h-47l155 308h78z" />
    <glyph glyph-name="glyph322" horiz-adv-x="559" 
d="M514 199q0 -88 -65.5 -148.5t-165.5 -60.5t-166 60.5t-66 148.5v667q0 88 66 148.5t166 60.5t165.5 -60.5t65.5 -148.5v-127h-160v217q0 82 -71 82q-72 0 -72 -82v-847q0 -82 72 -82q71 0 71 82v217h160v-127zM418 -172q0 -115 -125 -115h-110v31h39q63 0 63 84t-63 84
h-9v27l35 61h45l-35 -57h35q125 0 125 -115z" />
    <glyph glyph-name="glyph323" horiz-adv-x="315" 
d="M289 0h-262v37h51v991h-51v37h262v-37h-51v-991h51v-37zM371 1413l-213 -287h-45l84 308h174v-21z" />
    <glyph glyph-name="glyph324" horiz-adv-x="315" 
d="M289 0h-262v37h51v991h-51v37h262v-37h-51v-991h51v-37zM174 1126h-45l-213 287v21h174z" />
    <glyph glyph-name="glyph325" horiz-adv-x="315" 
d="M289 0h-262v37h51v991h-51v37h262v-37h-51v-991h51v-37zM355 1126h-45l-150 146l-149 -146h-47l155 308h78z" />
    <glyph glyph-name="glyph326" horiz-adv-x="315" 
d="M289 0h-262v37h51v991h-51v37h262v-37h-51v-991h51v-37zM342 1143h-143v215h143v-215zM121 1143h-143v215h143v-215z" />
    <glyph glyph-name="glyph327" horiz-adv-x="535" 
d="M514 1028h-51v-1028h-111l-231 838v-801h51v-37h-152v37h52v991h-52v37h201l193 -696v659h-52v37h152v-37zM514 1331l-13 -59q-23 -113 -121 -113q-24 0 -51 6l-155 37q-15 4 -27 4q-45 0 -74 -57l-34 10l12 60q23 112 122 112q23 0 50 -6l156 -37q14 -3 26 -3
q46 0 74 56z" />
    <glyph glyph-name="glyph328" horiz-adv-x="565" 
d="M514 199q0 -88 -65.5 -148.5t-165.5 -60.5t-166 60.5t-66 148.5v667q0 88 66 148.5t166 60.5t165.5 -60.5t65.5 -148.5v-667zM354 109v847q0 82 -71 82q-72 0 -72 -82v-847q0 -82 72 -82q71 0 71 82zM502 1413l-213 -287h-45l84 308h174v-21z" />
    <glyph glyph-name="glyph329" horiz-adv-x="565" 
d="M514 199q0 -88 -65.5 -148.5t-165.5 -60.5t-166 60.5t-66 148.5v667q0 88 66 148.5t166 60.5t165.5 -60.5t65.5 -148.5v-667zM354 109v847q0 82 -71 82q-72 0 -72 -82v-847q0 -82 72 -82q71 0 71 82zM313 1126h-45l-213 287v21h174z" />
    <glyph glyph-name="glyph330" horiz-adv-x="565" 
d="M514 199q0 -88 -65.5 -148.5t-165.5 -60.5t-166 60.5t-66 148.5v667q0 88 66 148.5t166 60.5t165.5 -60.5t65.5 -148.5v-667zM354 109v847q0 82 -71 82q-72 0 -72 -82v-847q0 -82 72 -82q71 0 71 82zM479 1126h-45l-150 146l-149 -146h-47l155 308h78z" />
    <glyph glyph-name="glyph331" horiz-adv-x="565" 
d="M514 199q0 -88 -65.5 -148.5t-165.5 -60.5t-166 60.5t-66 148.5v667q0 88 66 148.5t166 60.5t165.5 -60.5t65.5 -148.5v-667zM354 109v847q0 82 -71 82q-72 0 -72 -82v-847q0 -82 72 -82q71 0 71 82zM466 1143h-143v215h143v-215zM245 1143h-143v215h143v-215z" />
    <glyph glyph-name="glyph332" horiz-adv-x="565" 
d="M514 199q0 -88 -65.5 -148.5t-165.5 -60.5t-166 60.5t-66 148.5v667q0 88 66 148.5t166 60.5t165.5 -60.5t65.5 -148.5v-667zM354 109v847q0 82 -71 82q-72 0 -72 -82v-847q0 -82 72 -82q71 0 71 82zM531 1331l-13 -59q-23 -113 -121 -113q-24 0 -51 6l-155 37
q-15 4 -27 4q-45 0 -74 -57l-34 10l12 60q23 112 122 112q23 0 50 -6l156 -37q14 -3 26 -3q46 0 74 56z" />
    <glyph glyph-name="glyph333" horiz-adv-x="590" 
d="M573 1028h-51v-829q0 -88 -63.5 -148.5t-163.5 -60.5t-163.5 60.5t-63.5 148.5v829h-52v37h256v-37h-45v-919q0 -82 68 -82q67 0 67 82v919h-45v37h256v-37zM522 1413l-213 -287h-45l84 308h174v-21z" />
    <glyph glyph-name="glyph334" horiz-adv-x="590" 
d="M573 1028h-51v-829q0 -88 -63.5 -148.5t-163.5 -60.5t-163.5 60.5t-63.5 148.5v829h-52v37h256v-37h-45v-919q0 -82 68 -82q67 0 67 82v919h-45v37h256v-37zM313 1126h-45l-213 287v21h174z" />
    <glyph glyph-name="glyph335" horiz-adv-x="590" 
d="M573 1028h-51v-829q0 -88 -63.5 -148.5t-163.5 -60.5t-163.5 60.5t-63.5 148.5v829h-52v37h256v-37h-45v-919q0 -82 68 -82q67 0 67 82v919h-45v37h256v-37zM490 1126h-45l-150 146l-149 -146h-47l155 308h78z" />
    <glyph glyph-name="glyph336" horiz-adv-x="590" 
d="M573 1028h-51v-829q0 -88 -63.5 -148.5t-163.5 -60.5t-163.5 60.5t-63.5 148.5v829h-52v37h256v-37h-45v-919q0 -82 68 -82q67 0 67 82v919h-45v37h256v-37zM477 1143h-143v215h143v-215zM256 1143h-143v215h143v-215z" />
    <glyph glyph-name="glyph337" horiz-adv-x="467" 
d="M436 739h-123v-358l-49 -381h-61l-49 381v358h-123v37h123v252h-52v37h263v-37h-52v-252h123v-37z" />
    <glyph glyph-name="glyph338" horiz-adv-x="504" 
d="M457 616q0 -72 -60 -124t-145 -52q-86 0 -145.5 52t-59.5 124v283q0 73 59.5 124.5t145.5 51.5q85 0 145 -51.5t60 -124.5v-283zM315 543v430q0 65 -63 65q-64 0 -64 -65v-430q0 -66 64 -66q63 0 63 66z" />
    <glyph glyph-name="glyph339" horiz-adv-x="559" 
d="M514 199q0 -82 -58.5 -142t-150.5 -67v-113h-45v113q-91 7 -150 67t-59 142v667q0 82 59 142t150 67v113h45v-113q92 -7 150.5 -67t58.5 -142v-127h-160v217q0 82 -71 82q-72 0 -72 -82v-847q0 -82 72 -82q71 0 71 82v217h160v-127z" />
    <glyph glyph-name="glyph340" horiz-adv-x="588" 
d="M532 0h-505v37h51v498h-51v36h51v295q0 92 63 150.5t164 58.5t164 -58.5t63 -150.5v-127h-159v217q0 82 -68 82q-67 0 -67 -82v-385h178v-36h-178v-498h135v289h159v-326z" />
    <glyph glyph-name="glyph341" horiz-adv-x="508" 
d="M463 792q0 -78 -59 -132t-150 -54q-90 0 -149.5 54t-59.5 132v465q0 78 59.5 132t149.5 54q91 0 150 -54t59 -132v-465zM319 712v625q0 74 -65 74q-64 0 -64 -74v-625q0 -73 64 -73q65 0 65 73z" />
    <glyph glyph-name="glyph342" horiz-adv-x="496" 
d="M451 792q0 -82 -56.5 -134t-146.5 -52q-92 0 -148.5 52t-56.5 134v107h143v-187q0 -73 62 -73q59 0 59 73v250q0 74 -65 74h-193v397h389v-244h-143v211h-102v-329h49q89 0 149 -55.5t60 -133.5v-90z" />
    <glyph glyph-name="glyph343" horiz-adv-x="512" 
d="M467 792q0 -81 -60 -133.5t-151 -52.5t-151 52.5t-60 133.5v465q0 81 59 133.5t150 52.5q92 0 150.5 -52t58.5 -134v-108h-144v188q0 74 -65 74q-64 0 -64 -74v-313q38 34 113 34q164 0 164 -170v-96zM322 712v240q0 70 -60 70q-40 0 -72 -27v-283q0 -73 66 -73t66 73z
" />
    <glyph glyph-name="glyph344" horiz-adv-x="487" 
d="M457 1400l-203 -786h-141l202 786h-147v-241h-141v274h430v-33z" />
    <glyph glyph-name="glyph345" horiz-adv-x="508" 
d="M463 792q0 -78 -59 -132t-150 -54q-90 0 -149.5 54t-59.5 132v76q0 118 129 164q-129 42 -129 162v63q0 78 59.5 132t149.5 54q91 0 150 -54t59 -132v-63q0 -121 -129 -162q129 -44 129 -164v-76zM319 1122v215q0 74 -65 74q-64 0 -64 -74v-215q0 -74 64 -74q65 0 65 74z
M319 712v230q0 73 -65 73q-64 0 -64 -73v-230q0 -73 64 -73q65 0 65 73z" />
    <glyph glyph-name="glyph346" horiz-adv-x="512" 
d="M467 792q0 -81 -60 -133.5t-151 -52.5t-151 52.5t-60 133.5v107h145v-187q0 -73 66 -73t66 73v291q-38 -35 -113 -35q-164 0 -164 168v121q0 81 60 133.5t151 52.5t151 -52.5t60 -133.5v-465zM322 1032v305q0 74 -66 74t-66 -74v-262q0 -70 60 -70q40 0 72 27z" />
    <glyph glyph-name="glyph347" horiz-adv-x="508" 
d="M463 178q0 -78 -59 -132t-150 -54q-90 0 -149.5 54t-59.5 132v465q0 78 59.5 132t149.5 54q91 0 150 -54t59 -132v-465zM319 98v625q0 74 -65 74q-64 0 -64 -74v-625q0 -73 64 -73q65 0 65 73z" />
    <glyph glyph-name="glyph348" horiz-adv-x="326" 
d="M297 0h-262v37h51v745h-51v37h211v-782h51v-37z" />
    <glyph glyph-name="glyph349" horiz-adv-x="506" 
d="M457 0h-406v131q0 66 47 125l170 213q45 56 45 121v133q0 74 -59 74t-59 -74v-199h-144v119q0 82 56.5 134t146.5 52t146.5 -52t56.5 -134v-102q0 -61 -47 -117l-170 -203q-45 -54 -45 -112v-76h118v186h144v-219z" />
    <glyph glyph-name="glyph350" horiz-adv-x="494" 
d="M446 178q0 -85 -55.5 -135.5t-146.5 -50.5q-93 0 -148 50t-55 136v107h143v-187q0 -73 60 -73q59 0 59 73v232q0 73 -74 73h-94v35h94q74 0 74 74v211q0 74 -59 74q-60 0 -60 -74v-188h-143v108q0 85 55.5 135.5t147.5 50.5q91 0 146.5 -51t55.5 -135v-59
q0 -120 -129 -164q129 -41 129 -162v-80z" />
    <glyph glyph-name="glyph351" horiz-adv-x="461" 
d="M432 0h-237v33h47v190h-222v39l222 557h143v-557h47v-39h-47v-190h47v-33zM242 262v461l-179 -461h179z" />
    <glyph glyph-name="glyph352" horiz-adv-x="496" 
d="M451 178q0 -82 -56.5 -134t-146.5 -52q-92 0 -148.5 52t-56.5 134v107h143v-187q0 -73 62 -73q59 0 59 73v250q0 74 -65 74h-193v397h389v-244h-143v211h-102v-329h49q89 0 149 -55.5t60 -133.5v-90z" />
    <glyph glyph-name="glyph353" horiz-adv-x="512" 
d="M467 178q0 -81 -60 -133.5t-151 -52.5t-151 52.5t-60 133.5v465q0 81 59 133.5t150 52.5q92 0 150.5 -52t58.5 -134v-108h-144v188q0 74 -65 74q-64 0 -64 -74v-313q38 34 113 34q164 0 164 -170v-96zM322 98v240q0 70 -60 70q-40 0 -72 -27v-283q0 -73 66 -73t66 73z
" />
    <glyph glyph-name="glyph354" horiz-adv-x="487" 
d="M457 786l-203 -786h-141l202 786h-147v-241h-141v274h430v-33z" />
    <glyph glyph-name="glyph355" horiz-adv-x="508" 
d="M463 178q0 -78 -59 -132t-150 -54q-90 0 -149.5 54t-59.5 132v76q0 118 129 164q-129 42 -129 162v63q0 78 59.5 132t149.5 54q91 0 150 -54t59 -132v-63q0 -121 -129 -162q129 -44 129 -164v-76zM319 508v215q0 74 -65 74q-64 0 -64 -74v-215q0 -74 64 -74q65 0 65 74z
M319 98v230q0 73 -65 73q-64 0 -64 -73v-230q0 -73 64 -73q65 0 65 73z" />
    <glyph glyph-name="glyph356" horiz-adv-x="512" 
d="M467 178q0 -81 -60 -133.5t-151 -52.5t-151 52.5t-60 133.5v107h145v-187q0 -73 66 -73t66 73v291q-38 -35 -113 -35q-164 0 -164 168v121q0 81 60 133.5t151 52.5t151 -52.5t60 -133.5v-465zM322 418v305q0 74 -66 74t-66 -74v-262q0 -70 60 -70q40 0 72 27z" />
    <glyph glyph-name="glyph357" horiz-adv-x="594" 
d="M563 371q0 -98 -114 -197l10 -8q73 -59 73 -186v-68q0 -87 -67.5 -148t-167.5 -61t-168 61t-68 148v127h164v-217q0 -82 72 -82t72 82v115q0 94 -62 145l-186 156q-90 75 -90 168q0 97 114 196l-12 10q-72 60 -72 187v67q0 87 68 148t168 61t167.5 -61t67.5 -148v-127
h-163v217q0 82 -72 82t-72 -82v-125q0 -88 60 -137l188 -155q90 -75 90 -168zM451 281q0 71 -76 133l-201 164q-31 -40 -31 -82q0 -71 64 -123l213 -174q31 39 31 82z" />
    <glyph glyph-name="glyph358" horiz-adv-x="565" 
d="M492 350q0 -94 -59 -151.5t-150 -57.5q-92 0 -150.5 57.5t-58.5 151.5v381q0 94 58.5 151.5t150.5 57.5q91 0 150 -57.5t59 -151.5v-381z" />
    <glyph glyph-name="glyph359" horiz-adv-x="590" 
d="M559 0h-131v1028h-41v-1028h-90v37h51v414h-72q-100 0 -170.5 61t-70.5 147v197q0 86 70.5 147.5t170.5 61.5h283v-37h-51v-991h51v-37zM348 487v541h-72q-33 0 -57 -24t-24 -58v-377q0 -33 24 -57.5t57 -24.5h72z" />
    <glyph glyph-name="glyph360" horiz-adv-x="754" 
d="M692 274q0 -118 -88 -200q-91 -84 -227 -84t-226 83t-90 201v517q0 118 90 201t226 83t227 -84q88 -82 88 -200v-517zM653 270v525q0 102 -78.5 172.5t-197.5 70.5t-198 -70.5t-79 -172.5v-525q0 -102 79 -172.5t198 -70.5t197.5 70.5t78.5 172.5zM588 227h-49
q-101 0 -101 115v137q0 58 -57 58h-51v-283h37v-27h-187v27h35v582h-35v26h201q71 0 121.5 -42.5t50.5 -102.5v-39q0 -109 -100 -129q100 -20 100 -129v-124q0 -42 32 -42h3v-27zM438 618v160q0 58 -57 58h-51v-275h51q57 0 57 57z" />
    <glyph glyph-name="glyph361" horiz-adv-x="754" 
d="M692 274q0 -118 -88 -200q-91 -84 -227 -84t-226 83t-90 201v517q0 118 90 201t226 83t227 -84q88 -82 88 -200v-517zM653 270v525q0 102 -78.5 172.5t-197.5 70.5t-198 -70.5t-79 -172.5v-525q0 -102 79 -172.5t198 -70.5t197.5 70.5t78.5 172.5zM549 358
q0 -59 -50.5 -102t-121.5 -43t-121.5 43t-50.5 102v357q0 60 50.5 102.5t121.5 42.5t121.5 -42.5t50.5 -102.5v-70h-115v133q0 58 -57 58q-58 0 -58 -58v-483q0 -57 58 -57q57 0 57 57v133h115v-70z" />
    <glyph glyph-name="glyph362" horiz-adv-x="952" 
d="M915 426h-174v31h33v405l-76 -436h-86l-75 436v-405h32v-31h-102v31h31v579h-31v29h147l76 -473l80 473h145v-29h-32v-579h32v-31zM428 870h-100v166h-37v-579h31v-31h-175v31h33v579h-37v-166h-102v195h387v-195z" />
    <glyph glyph-name="glyph363" horiz-adv-x="561" 
d="M551 1028h-51l-140 -598h142v-37h-142v-67h142v-37h-142v-252h52v-37h-262v37h51v252h-129v37h129v67h-129v37h129v14l-140 584h-51v37h275v-37h-52l109 -469l104 469h-51v37h156v-37z" />
    <glyph glyph-name="glyph364" horiz-adv-x="791" 
d="M748 0h-490v37h51v258h-151l-54 -258h52v-37h-156v37h51l205 991h-49v37h541v-326h-160v289h-119v-457h160v-36h-160v-498h119v289h160v-326zM309 332v704l-145 -704h145z" />
    <glyph glyph-name="glyph365" horiz-adv-x="565" 
d="M514 199q0 -88 -65.5 -148.5t-165.5 -60.5q-53 0 -99 18l-32 -131h-50l39 154q-90 63 -90 168v667q0 88 66 148.5t166 60.5q52 0 98 -18l33 131h49l-39 -154q90 -63 90 -168v-667zM354 956q0 82 -71 82q-72 0 -72 -82v-628zM354 109v628l-143 -628q0 -82 72 -82
q71 0 71 82z" />
    <glyph glyph-name="glyph366" horiz-adv-x="549" 
d="M358 819h-159v246h159v-246zM508 199q0 -91 -64.5 -150t-164.5 -59q-101 0 -165.5 59t-64.5 150v51q0 111 47 184l80 125q56 87 66 156l6 43h61l19 -148q4 -32 4 -61q0 -48 -25 -86l-51 -80q-43 -67 -43 -178v-96q0 -82 66 -82q65 0 65 82v217h164v-127z" />
    <glyph glyph-name="glyph367" horiz-adv-x="303" 
d="M231 819h-159v246h159v-246zM231 0h-159v377l49 381h61l49 -381v-377z" />
    <glyph glyph-name="glyph368" horiz-adv-x="836" 
d="M793 0h-510q-100 0 -166 61t-66 148v647q0 87 66 148t166 61h510v-326h-160v289h-119v-457h160v-36h-160v-498h119v289h160v-326zM354 37v991h-71q-72 0 -72 -82v-827q0 -82 72 -82h71z" />
    <glyph glyph-name="glyph369" horiz-adv-x="561" 
d="M466 1143h-143v215h143v-215zM245 1143h-143v215h143v-215z" />
    <glyph glyph-name="glyph370" horiz-adv-x="467" 
d="M436 381h-123l-49 -381h-61l-49 381h-123v37h123v321h-123v37h123v252h-52v37h263v-37h-52v-252h123v-37h-123v-321h123v-37z" />
    <glyph glyph-name="glyph371" horiz-adv-x="1444" 
d="M1403 166q0 -73 -56 -124.5t-141 -51.5q-84 0 -140 51.5t-56 124.5v283q0 73 56 124.5t140 51.5q85 0 141 -51.5t56 -124.5v-283zM946 166q0 -73 -56 -124.5t-140 -51.5q-85 0 -141 51.5t-56 124.5v283q0 73 56 124.5t141 51.5q84 0 140 -51.5t56 -124.5v-283zM786 1065
l-532 -1065h-47l532 1065h47zM440 616q0 -73 -56 -124.5t-140 -51.5q-85 0 -141 51.5t-56 124.5v283q0 73 56 124.5t141 51.5q84 0 140 -51.5t56 -124.5v-283zM1262 92v430q0 66 -56 66q-55 0 -55 -66v-430q0 -65 55 -65q56 0 56 65zM805 92v430q0 66 -55 66q-56 0 -56 -66
v-430q0 -65 56 -65q55 0 55 65zM299 543v430q0 65 -55 65q-56 0 -56 -65v-430q0 -66 56 -66q55 0 55 66z" />
    <glyph glyph-name="Euro" unicode="&#x20ac;" horiz-adv-x="655" 
d="M594 199q0 -86 -72.5 -147.5t-173.5 -61.5t-173.5 61.5t-72.5 147.5v487h-82v37h82v68h-82v36h82v408q0 86 72.5 147.5t173.5 61.5t173.5 -61.5t72.5 -147.5v-231h-164v321q0 34 -24 58t-58 24t-58 -24t-24 -58v-498h226v-36h-226v-68h226v-37h-226v-577q0 -34 24 -58
t58 -24t58 24t24 58v321h164v-231z" />
    <glyph glyph-name="glyph373" horiz-adv-x="604" 
d="M559 199q0 -88 -65.5 -148.5t-165.5 -60.5t-166 60.5t-66 148.5v280h-82v37h82v68h-82v37h82v245q0 88 66 148.5t166 60.5t165.5 -60.5t65.5 -148.5v-127h-160v217q0 82 -71 82q-72 0 -72 -82v-335h184v-37h-184v-68h184v-37h-184v-370q0 -82 72 -82q71 0 71 82v217h160
v-127z" />
    <glyph glyph-name="glyph374" horiz-adv-x="471" 
d="M436 530h-174v-188h-53v188h-174v45h174v189h53v-189h174v-45z" />
    <glyph glyph-name="glyph375" horiz-adv-x="471" 
d="M436 530h-401v45h401v-45z" />
    <glyph glyph-name="glyph376" horiz-adv-x="471" 
d="M416 407l-35 -34l-145 145l-146 -145l-35 34l146 146l-146 145l35 35l146 -145l145 145l35 -35l-146 -145z" />
    <glyph glyph-name="glyph377" horiz-adv-x="553" 
d="M463 358l-402 174v41l402 174v-55l-336 -139l336 -140v-55z" />
    <glyph glyph-name="glyph378" horiz-adv-x="553" 
d="M477 618h-401v47h401v-47zM477 440h-401v47h401v-47z" />
    <glyph glyph-name="glyph379" horiz-adv-x="553" 
d="M492 532l-402 -174v55l336 140l-336 139v55l402 -174v-41z" />
    <glyph glyph-name="glyph380" horiz-adv-x="360" 
d="M356 1028h-41q-71 0 -71 -82v-375h82v-36h-82v-613q0 -88 -63 -147q-65 -62 -165 -62h-51v37h39q80 0 80 82v703h-51v36h51v285q0 87 65.5 148t165.5 61h41v-37z" />
    <glyph glyph-name="glyph381" 
d="M557 166h-61l-209 366v41l209 369h61l-92 -389zM303 166h-61l-209 366v41l209 369h61l-92 -389z" />
    <glyph glyph-name="glyph382" 
d="M582 532l-209 -366h-62l92 387l-92 389h62l209 -369v-41zM328 532l-209 -366h-62l93 387l-93 389h62l209 -369v-41z" />
    <glyph glyph-name="glyph383" horiz-adv-x="360" 
d="M303 166h-61l-209 366v41l209 369h61l-92 -389z" />
    <glyph glyph-name="glyph384" horiz-adv-x="360" 
d="M328 532l-209 -366h-62l93 387l-93 389h62l209 -369v-41z" />
    <glyph glyph-name="glyph385" horiz-adv-x="307" 
d="M272 528h-237v49h237v-49z" />
    <glyph glyph-name="glyph386" horiz-adv-x="410" 
d="M375 532h-340v41h340v-41z" />
    <glyph glyph-name="glyph387" 
d="M580 532h-545v41h545v-41z" />
    <glyph glyph-name="glyph388" horiz-adv-x="512" 
d="M487 1065l-194 -1065h-139l-99 393h-51v37h195l69 -301l168 936h51z" />
    <glyph glyph-name="glyph389" horiz-adv-x="492" 
d="M444 1065l-32 -430h-164v36l121 394h75zM223 1065l-33 -430h-163v36l120 394h76z" />
    <glyph glyph-name="glyph390" horiz-adv-x="492" 
d="M446 1028l-120 -393h-76l33 430h163v-37zM225 1028l-121 -393h-75l32 430h164v-37z" />
    <glyph glyph-name="glyph391" horiz-adv-x="270" 
d="M223 1065l-33 -430h-163v36l120 394h76z" />
    <glyph glyph-name="glyph392" horiz-adv-x="270" 
d="M225 1028l-121 -393h-75l32 430h164v-37z" />
    <glyph glyph-name="glyph393" horiz-adv-x="492" 
d="M438 1028l-49 -393h-65l-50 393v37h164v-37zM217 1028l-49 -393h-66l-49 393v37h164v-37z" />
    <glyph glyph-name="glyph394" horiz-adv-x="270" 
d="M217 1028l-49 -393h-66l-49 393v37h164v-37z" />
    <glyph glyph-name="glyph395" horiz-adv-x="215" 
d="M133 -123h-51v1311h51v-1311z" />
    <glyph glyph-name="glyph396" horiz-adv-x="215" 
d="M133 578h-51v610h51v-610zM133 -123h-51v651h51v-651z" />
  </font>
</defs>
</svg>
