<?xml version="1.0" standalone="no"?>
<!DOCTYPE svg PUBLIC "-//W3C//DTD SVG 1.1//EN" "http://www.w3.org/Graphics/SVG/1.1/DTD/svg11.dtd" >
<svg>
<metadata>
Created by FontForge 20090622 at Tue Apr  7 08:13:25 2020
 By deploy user
Design and data by The Monotype Corporation. &#194;&#169; 1993. Microsoft Corporation. All rights reserved.
</metadata>
<defs>
<font id="PalaceScriptMT" horiz-adv-x="874" >
  <font-face 
    font-family="Palace Script MT"
    font-weight="400"
    font-style="italic"
    font-stretch="normal"
    units-per-em="2048"
    panose-1="3 3 3 2 2 6 7 12 11 5"
    ascent="1638"
    descent="-410"
    x-height="391"
    cap-height="1130"
    bbox="-598 -496 2142 1878"
    underline-thickness="50"
    underline-position="-125"
    slope="-41"
    unicode-range="U+0020-U+F002"
  />
<missing-glyph horiz-adv-x="1024" 
d="M82 1365h860v-1365h-860v1365zM123 1324v-1283h778v1283h-778z" />
    <glyph glyph-name=".notdef" horiz-adv-x="1024" 
d="M82 1365h860v-1365h-860v1365zM123 1324v-1283h778v1283h-778z" />
    <glyph glyph-name="glyph1" horiz-adv-x="0" 
 />
    <glyph glyph-name="glyph2" horiz-adv-x="320" 
 />
    <glyph glyph-name="space" unicode=" " horiz-adv-x="320" 
 />
    <glyph glyph-name="exclam" unicode="!" horiz-adv-x="330" 
d="M6 135h-20q157 177 368 438l70 90t33 38.5t28 9.5q21 0 21 -25q0 -15 -23 -42.5t-88 -92.5l-80 -82.5l-112 -118.5zM-86 51q0 13 13 27t26 14q14 0 14 -16q0 -11 -11 -25t-26 -14q-16 0 -16 14z" />
    <glyph glyph-name="quotedbl" unicode="&#x22;" horiz-adv-x="426" 
d="M354 389l13 178q6 87 18 130.5t47 43.5t35 -43q0 -17 -4.5 -31.5t-32.5 -99.5l-57 -178h-19zM184 389l15 178q6 87 18 130.5t47 43.5q33 0 33 -43q0 -28 -35 -131l-59 -178h-19z" />
    <glyph glyph-name="numbersign" unicode="#" 
d="M84 489h205l53 252h43l-53 -252h282l54 252h43l-52 -252h132v-43h-142l-53 -251h195v-43h-203l-51 -252h-45l51 252h-283l-51 -252h-45l53 252h-133v43h141l54 251h-195v43zM604 446h-280l-54 -251h283z" />
    <glyph glyph-name="dollar" unicode="$" horiz-adv-x="641" 
d="M301 379q-8 100 26.5 166.5t92 94t117.5 17.5l77 93l11 -11l-70 -86q36 -7 80 -51l78 88l10 -10l-76 -88q-4 0 2 -6q19 -23 19 -72q0 -47 -31.5 -77.5t-67.5 -30.5q-25 0 -59 22l-123 -147q19 -186 -58 -244.5t-196 -52.5l-90 -105l-10 12l80 95q-59 14 -88 45l-68 -80
l-10 12l65 78q-20 33 -18 80q2 29 15 56.5t37.5 46t53.5 18.5q19 0 38 -8.5t26 -16.5zM549 502l76 86q-36 38 -86 47l-174 -207l18 -127l117 139q-2 7 -2.5 11t-1.5 8q2 19 16 32.5t37 10.5zM635 575l-74 -83q13 -18 8 -37.5t-32 -26.5q16 -8 28 -8q23 0 43 12.5t32.5 35.5
t12.5 46q0 36 -18 61zM125 -2l203 238q-17 83 -21 126l-135 -157q2 -8 2 -19q0 -16 -15.5 -30.5t-35.5 -10.5l-88 -100q29 -33 90 -47zM25 55l88 103q-11 10 -11 22q0 28 33 39q-11 8 -39 8q-36 0 -62 -37.5t-26 -68.5q0 -46 17 -66zM358 446l164 193q-82 0 -123 -48.5
t-41 -144.5zM334 217l-189 -219q46 -3 84.5 11.5t64.5 43.5t36.5 71.5t3.5 92.5z" />
    <glyph glyph-name="percent" unicode="%" horiz-adv-x="768" 
d="M567 729q-60 0 -178 -121q-57 -59 -83.5 -95t-26.5 -58q0 -29 38 -29q43 0 114 44.5t124 106t53 107.5q0 20 -11.5 32.5t-29.5 12.5zM-4 98l842 568q-38 -11 -80 -11q-84 0 -135 37q0 -48 -30.5 -99t-80.5 -92.5t-102.5 -65t-98.5 -23.5q-30 0 -48.5 21.5t-18.5 55.5
q0 49 35.5 97t88 83.5t104 54.5t87.5 19q32 0 68 -32q55 -41 131 -41q32 0 114 20l9 -12l-877 -592zM524 299q-35 0 -104.5 -53.5t-128 -120t-58.5 -96.5q0 -12 13 -21.5t28 -9.5q40 0 110.5 45t125.5 106.5t55 110.5q0 19 -11 29t-30 10zM516 313q32 0 50 -14t18 -39
q0 -63 -56 -127.5t-132.5 -106.5t-129.5 -42q-30 0 -47.5 20.5t-17.5 56.5q0 65 56 123.5t131.5 93.5t127.5 35z" />
    <glyph glyph-name="ampersand" unicode="&#x26;" horiz-adv-x="662" 
d="M264 330q100 30 146.5 59t46.5 74q0 14 -6 24.5t-16.5 16.5t-24.5 6q-54 0 -96.5 -51.5t-49.5 -128.5zM260 131q-12 98 -12 178q-121 -38 -180.5 -108t-59.5 -113q0 -47 51 -47q84 0 201 90zM203 315l45 15q6 77 54.5 135.5t107.5 58.5q26 0 43.5 -16.5t17.5 -42.5
q0 -98 -209 -152q6 -56 8.5 -97.5t5.5 -68.5q60 60 84 89q25 30 49 55t54.5 44t60.5 19q26 0 42 -12t16 -33q0 -28 -27 -28q-31 0 -31 30q0 21 4 29q-44 0 -80 -32.5t-69 -74.5q-16 -20 -42.5 -46.5l-57.5 -57.5q5 -103 -12 -191.5t-97 -162.5q-49 -46 -111.5 -80.5
t-128 -53t-125.5 -18.5q-72 0 -111.5 31t-39.5 84q0 50 32 88t89 55.5t129 7.5l-4 -14q-46 4 -52 4q-48 0 -90 -20t-66 -52.5t-24 -70.5q0 -45 42.5 -71.5t99.5 -26.5q84 0 159.5 37t167.5 120q85 77 108 156.5t17 161.5q-49 -35 -82.5 -53t-61 -25.5t-59.5 -7.5
q-47 0 -77.5 24.5t-30.5 63.5q0 62 58 110t194 90z" />
    <glyph glyph-name="quotesingle" unicode="'" horiz-adv-x="256" 
d="M184 389l13 178q6 88 21 131t46 43q33 0 33 -45q0 -16 -8 -44t-27 -85l-59 -178h-19z" />
    <glyph glyph-name="parenleft" unicode="(" horiz-adv-x="555" 
d="M80 -250h-17q46 387 233 680.5t450 468.5t538 231l2 -14q-179 -42 -374 -161t-370 -301.5t-299.5 -416t-162.5 -487.5z" />
    <glyph glyph-name="parenright" unicode=")" horiz-adv-x="555" 
d="M717 1130h16q-34 -293 -152 -533.5t-290.5 -414.5t-374.5 -282t-403 -150l-2 14q179 43 372 161t371 303t301 416t162 486z" />
    <glyph glyph-name="asterisk" unicode="*" horiz-adv-x="406" 
d="M293 793l10 53q65 -28 135 -88q6 66 -22 141l51 19q4 -13 4 -37q0 -32 -14 -125q58 28 110 92l47 -35q-39 -24 -147 -74q63 -39 135 -47l-10 -59q-46 21 -137 90q-8 -43 26 -139l-57 -23q0 89 14 166q-26 -14 -44.5 -30t-65.5 -64l-45 37q12 11 43.5 26l103.5 47
q-49 29 -137 50z" />
    <glyph glyph-name="plus" unicode="+" 
d="M117 342h299v299h43v-299h299v-43h-299v-299h-43v299h-299v43z" />
    <glyph glyph-name="comma" unicode="," horiz-adv-x="338" 
d="M-76 -43l-6 10q42 21 64 41t35 42.5t14 23.5q18 18 35 18q18 0 18 -20q0 -25 -39.5 -50.5t-120.5 -64.5z" />
    <glyph glyph-name="hyphen" unicode="-" horiz-adv-x="362" 
d="M74 207l12 14h186l-12 -14h-186z" />
    <glyph glyph-name="hyphen" unicode="&#xad;" horiz-adv-x="362" 
d="M74 207l12 14h186l-12 -14h-186z" />
    <glyph glyph-name="period" unicode="." horiz-adv-x="330" 
d="M49 96q23 0 23 -22q0 -13 -11 -25t-24 -12q-23 0 -23 22q0 13 11 25t24 12z" />
    <glyph glyph-name="slash" unicode="/" horiz-adv-x="319" 
d="M-457 -165l1223 1067l39 -5l-1225 -1067z" />
    <glyph glyph-name="zero" unicode="0" horiz-adv-x="641" 
d="M575 643q-73 0 -170.5 -66.5t-189 -166t-151.5 -200t-60 -157.5q0 -23 16 -39t39 -16q67 0 163.5 66t188.5 163.5t154 197.5t62 161q0 28 -13.5 42.5t-38.5 14.5zM575 657q33 0 51.5 -19.5t18.5 -53.5q0 -82 -105 -227.5t-245 -259t-236 -113.5q-79 0 -79 106
q0 95 59.5 195t156.5 185.5t200 136t179 50.5z" />
    <glyph glyph-name="one" unicode="1" horiz-adv-x="641" 
d="M96 299l-6 16l166 78l186.5 94t165 91.5t125.5 78.5h15l-590 -663h-99l605 596q-303 -175 -568 -291z" />
    <glyph glyph-name="two" unicode="2" horiz-adv-x="641" 
d="M492 584h12q-52 -125 -133.5 -196t-145.5 -71q-20 0 -35.5 13.5t-15.5 34.5q0 70 55.5 138t136 111t150.5 43q44 0 67 -26t23 -74q0 -90 -50 -156.5t-129.5 -112.5t-199.5 -100q-101 -44 -145 -67t-94 -64q56 17 98 19q61 -3 117 -29q25 -11 42.5 -16.5t35.5 -5.5
q25 0 53 20.5t65 69.5l13 -9q-48 -64 -93 -93t-96 -29q-26 0 -88 26q-71 31 -119 31q-55 0 -125 -57h-18q69 71 268 184q178 100 254 162q70 58 125 132.5t55 129.5q0 53 -59 53t-136.5 -50.5t-133.5 -118.5t-56 -111q0 -33 41 -33q46 0 122.5 60t138.5 192z" />
    <glyph glyph-name="three" unicode="3" horiz-adv-x="641" 
d="M555 590h14q-38 -69 -103.5 -116.5t-123.5 -47.5q-47 0 -47 47q0 42 41 85.5t105 71t126 27.5q101 0 101 -88q0 -56 -52.5 -103.5t-191.5 -100.5l-33 -13q90 0 90 -86q0 -66 -65 -132.5t-173 -108t-231 -41.5q-61 0 -96 22t-35 66q0 25 14 41t37 16q37 0 37 -31
q0 -15 -10 -27t-22 -12q-29 0 -35 27q-4 -6 -4 -18q2 -28 34 -49.5t76 -20.5q96 3 196.5 60t169 130.5t68.5 112.5q0 17 -13.5 27t-29.5 10q-48 0 -149 -45l-2 12q101 41 168 76.5t114 75.5q105 85 105 143q0 19 -15 31t-34 12q-73 0 -137 -33t-102 -76.5t-38 -68.5
q0 -10 11.5 -17.5t25.5 -7.5q52 0 112.5 43t96.5 107z" />
    <glyph glyph-name="four" unicode="4" horiz-adv-x="641" 
d="M-23 170l515 475h120l-209 -150l-212.5 -163.5t-174.5 -145.5q81 17 142 17q80 0 182 -13q74 66 166 156l22 23l11 -11l-154 -172q68 -10 168 27l-2 -16q-97 -36 -180 -27l-158 -176h-107q39 31 211 182q-81 12 -165 12q-47 0 -81.5 -7t-86.5 -21z" />
    <glyph glyph-name="five" unicode="5" horiz-adv-x="641" 
d="M137 328l295 327q14 -4 31 -12q59 -25 108 -25q41 0 75.5 12t80.5 42l6 -8q-51 -39 -100 -55.5t-107 -16.5q-45 0 -118 16l-181 -200q50 27 89 41t77 14q47 0 67.5 -30t20.5 -97q0 -96 -88 -177.5t-206 -128t-187 -46.5q-55 0 -82 21.5t-27 49.5q0 32 19 55t45 23
q35 0 35 -35q0 -16 -11.5 -25.5t-27.5 -9.5q-21 0 -37 23q-8 -19 -8 -31q0 -57 94 -57q70 0 147.5 42.5t146.5 107.5t112 132.5t43 112.5q0 25 -13.5 40.5t-36.5 15.5q-66 0 -127.5 -33.5t-115.5 -87.5h-19z" />
    <glyph glyph-name="six" unicode="6" horiz-adv-x="641" 
d="M412 385q-64 0 -153.5 -66t-159.5 -151.5t-70 -122.5q0 -47 59 -47q62 0 150.5 65t154.5 148t66 127q0 20 -13.5 33.5t-33.5 13.5zM190 287q70 59 120.5 85.5t101.5 26.5q67 0 67 -73q0 -90 -62 -169t-153.5 -126t-171.5 -47q-86 0 -86 77q0 76 62.5 178.5t162 198
t211 157.5t203.5 62q33 0 55.5 -14.5t22.5 -46.5q0 -55 -43 -55q-12 0 -21.5 11.5t-9.5 22.5q0 17 10 27t25 10q12 0 21 -6q0 37 -66 37q-54 0 -131.5 -44t-200.5 -167q-49 -49 -117 -145z" />
    <glyph glyph-name="seven" unicode="7" horiz-adv-x="641" 
d="M389 694l-104 -106q9 2 28 10q41 16 84 16q47 0 113 -18q55 -14 80 -14q43 0 88 49q26 26 37 26q21 0 -21 -39q-44 -36 -171.5 -159t-182.5 -180l-96 -103l-117 -129.5t-113 -130.5l-123 -154h-120l841 801q-68 -24 -104 -24q-55 0 -111 22q-39 17 -73 17q-46 0 -117 -74
h-23l193 207q6 6 14 6q6 0 6 -6q0 -9 -8 -17z" />
    <glyph glyph-name="eight" unicode="8" horiz-adv-x="641" 
d="M397 377q156 47 202 91.5t46 92.5q0 37 -26 59.5t-70 22.5q-48 0 -92 -22.5t-72.5 -57t-28.5 -67.5q0 -32 41 -119zM340 350q-135 -50 -191 -74.5t-103.5 -71.5t-47.5 -116q0 -38 20 -64t88 -26q63 0 126 28.5t104 76.5t41 102q0 57 -37 145zM334 362q-23 42 -23 82
q0 54 32.5 103t87 79.5t120.5 30.5q50 0 81.5 -27.5t31.5 -70.5q0 -70 -64 -110t-199 -84q27 -55 27 -103q0 -71 -45.5 -135t-122 -103.5t-158.5 -39.5q-63 0 -98 26t-35 74q0 99 95.5 156.5t269.5 121.5z" />
    <glyph glyph-name="nine" unicode="9" horiz-adv-x="641" 
d="M526 643q-55 0 -144 -66.5t-158.5 -151t-69.5 -128.5q0 -41 51 -41q69 0 159.5 65.5t158 148t67.5 118.5q0 55 -64 55zM436 356q-71 -59 -128 -86.5t-107 -27.5q-36 0 -51 17t-15 56q0 80 61 161t152.5 131t169.5 50q86 0 86 -86q0 -85 -65 -187.5t-166 -193t-211 -148.5
t-191 -58q-80 0 -80 59q0 23 12 38t31 15q31 0 31 -30q0 -24 -14 -34t-35 -5q2 -13 18.5 -21t40.5 -8q85 0 172.5 63t153.5 136.5t135 158.5z" />
    <glyph glyph-name="colon" unicode=":" horiz-adv-x="319" 
d="M49 96q23 0 23 -22q0 -13 -11 -25t-24 -12q-23 0 -23 22q0 13 11 25t24 12zM207 348q12 0 17 -6t5 -16q0 -14 -10.5 -25.5t-23.5 -11.5q-23 0 -23 22q0 13 11 25t24 12z" />
    <glyph glyph-name="semicolon" unicode=";" horiz-adv-x="319" 
d="M-76 -43l-6 10q42 21 64 41t35 42.5t14 23.5q18 18 35 18q18 0 18 -20q0 -25 -39.5 -50.5t-120.5 -64.5zM207 348q12 0 17 -6t5 -16q0 -14 -10.5 -25.5t-23.5 -11.5q-23 0 -23 22q0 13 11 25t24 12z" />
    <glyph glyph-name="less" unicode="&#x3c;" 
d="M758 29l-641 272v39l641 272v-47l-586 -243l586 -246v-47z" />
    <glyph glyph-name="equal" unicode="=" 
d="M117 481h641v-43h-641v43zM117 203h641v-43h-641v43zM117 481h641v-43h-641v43zM117 203h641v-43h-641v43z" />
    <glyph glyph-name="greater" unicode="&#x3e;" 
d="M117 612l641 -272v-39l-641 -272v47l585 243l-585 246v47z" />
    <glyph glyph-name="question" unicode="?" horiz-adv-x="606" 
d="M530 633l11 -6q-46 -63 -105.5 -104.5t-107.5 -41.5q-22 0 -37 13.5t-15 35.5q0 42 38 85.5t96.5 71.5t109.5 28q86 0 86 -99q0 -87 -47.5 -136.5t-146.5 -108.5q-114 -67 -170.5 -112t-116.5 -118h-16q28 35 52.5 61t57 54.5t107.5 87.5l98 80.5t74.5 70t61.5 79.5
t24 75q0 51 -68 51q-48 0 -100.5 -29t-88.5 -70.5t-36 -70.5q0 -13 10.5 -23.5t26.5 -10.5q43 0 100 39.5t102 97.5zM25 51q0 13 15 29t28 16q14 0 14 -16q0 -11 -14 -27t-27 -16q-16 0 -16 14z" />
    <glyph glyph-name="at" unicode="@" horiz-adv-x="831" 
d="M565 406l-45 -158q-37 -126 -37 -152q0 -8 6.5 -18t22.5 -10q57 0 113.5 75t56.5 181q0 68 -33 124.5t-92 87.5t-133 31q-111 0 -188 -56.5t-114.5 -143t-37.5 -174.5q0 -89 39 -163t109.5 -115.5t162.5 -41.5q102 0 186 56.5t132 164.5h22q-27 -81 -82.5 -136.5
t-124.5 -81.5t-137 -26q-105 0 -184 46.5t-120.5 127t-41.5 179.5q0 100 46.5 189t134.5 143.5t196 54.5q82 0 146 -33t100.5 -94.5t36.5 -145.5q0 -103 -60 -191.5t-158 -88.5q-63 0 -63 55q0 22 8 60q-39 -48 -77.5 -81.5t-80.5 -33.5q-34 0 -52.5 30t-18.5 64
q0 53 33 118.5t83.5 112t102.5 46.5q55 0 67 -54l15 43zM426 389q-34 0 -71.5 -45t-63 -106t-25.5 -97q0 -21 13 -38t32 -17q35 0 74 38.5t64.5 96.5t25.5 111q0 23 -12.5 40t-36.5 17z" />
    <glyph glyph-name="A" unicode="A" horiz-adv-x="1406" 
d="M1022 449q-19 104 -89 189t-173 85q-74 0 -113.5 -41.5t-52 -87.5t-12.5 -72q0 -95 33 -166t112 -153q106 82 295 246zM1036 461l324 280.5t232.5 184.5t195 126t164.5 62l10 -8l-29 -27q-132 -124 -235.5 -231l-221 -239.5t-219 -258.5l-213.5 -276q47 0 110 29.5
t127.5 78t117.5 101.5v-17q-60 -64 -165.5 -135.5t-197.5 -71.5l-41 -59h-92l53 70q-73 14 -121.5 39t-107.5 73q-87 -56 -161 -97.5t-157 -71t-165 -29.5q-83 0 -129.5 31t-46.5 85q0 37 23 65t56 28q21 0 32 -11t11 -22q0 -31 -38 -31q-31 0 -37 33q-31 -26 -31 -66
q0 -46 41 -72t117 -26q78 0 160.5 29t156.5 71t154 95q-78 86 -112 156t-34 157q0 92 48 161.5t143 69.5q105 0 176.5 -76.5t101.5 -199.5zM1565 743l26 29q42 45 163.5 161.5l162.5 153.5q-78 -15 -202 -95t-250 -181.5t-234.5 -197.5l-188.5 -167q12 -91 2.5 -163
t-43.5 -156q39 49 97 113l96 104.5l122.5 131zM1026 434q-41 -38 -129 -112l-158 -129q61 -49 111 -74.5t117 -36.5q44 94 57 177t2 175z" />
    <glyph glyph-name="B" unicode="B" horiz-adv-x="1473" 
d="M1362 569q-43 56 -102 56q-20 0 -34 -13.5t-14 -31.5q0 -40 60 -37q22 1 43 7.5t47 18.5zM1153 1020l16 -2q0 -89 -57.5 -186t-146.5 -178t-187 -131t-174 -50q-62 0 -96.5 36.5t-34.5 100.5q0 92 65 185t177 168.5t259 121t304 45.5q71 0 122.5 -9t94.5 -28.5t94 -60.5
q50 32 106 59t97 39l12 -16q-44 -13 -104 -43t-96 -53q32 -36 41.5 -70t9.5 -82q0 -64 -28.5 -117t-86.5 -99t-154 -89q22 -38 30.5 -69.5t8.5 -73.5q0 -77 -42 -155t-111 -140.5t-156 -100.5t-172 -38q-94 0 -94 79q0 58 47.5 124.5t126.5 120.5t164 77l4 -14
q-142 -49 -217 -121q-52 -49 -81.5 -99.5t-29.5 -91.5q0 -61 82 -61q86 0 166.5 54.5t142.5 138.5t96.5 166t34.5 135q0 33 -12 61q-46 -25 -102 -25q-41 0 -57.5 14.5t-16.5 39.5q0 23 16.5 40t47.5 17q59 0 114 -64q64 36 120 94.5t88 125.5t32 125q0 61 -27 88
q-104 -58 -218.5 -165.5t-246.5 -299.5q-68 -103 -117 -159t-124 -126q-81 -75 -159 -130t-147 -85.5t-137.5 -44.5t-144.5 -14q-225 0 -225 114q0 28 14 45t39 17q15 0 25 -11t10 -26q0 -13 -11 -22t-22 -9q-19 0 -31 17q-2 4 -6 4t-4 -19q0 -43 53.5 -69.5t151.5 -26.5
q102 0 183 25.5t153.5 79.5t167.5 155l67 76.5l114.5 134l123 142.5t76.5 81l61 58q143 134 192 174t146 98q-108 94 -291 94q-166 0 -311.5 -47t-253 -123t-168 -165.5t-60.5 -168.5q0 -57 30.5 -90t84.5 -33q71 0 167 49.5t183 128t143 171.5t56 182z" />
    <glyph glyph-name="C" unicode="C" horiz-adv-x="938" 
d="M512 575q164 41 320 103t272 130.5t179 133t63 119.5t-62 55q-101 0 -238.5 -82t-275 -203.5t-258.5 -255.5zM383 543q-173 -11 -245 51t-72 158q0 52 32 116t110.5 123.5t218.5 99t349 39.5v-14q-218 0 -361 -42.5t-213 -102t-96 -118.5t-26 -105q0 -93 74.5 -148
t240.5 -45q83 89 200 190.5t242.5 188.5t242.5 141.5t204 54.5q76 0 76 -71q0 -76 -122 -175.5t-320 -186.5t-420 -136q-97 -107 -155 -185.5t-86 -140t-28 -112.5q0 -50 46.5 -87.5t121.5 -37.5q102 0 206 53.5t172.5 132.5t68.5 146q0 54 -31 81t-88 27
q-76 0 -180.5 -68.5t-204.5 -254.5l-14 10q91 172 197 250t204 78q65 0 98 -33t33 -88q0 -57 -40.5 -118t-110.5 -114t-151 -84.5t-155 -31.5q-99 0 -153.5 48.5t-54.5 143.5q0 85 42 167t148 200z" />
    <glyph glyph-name="D" unicode="D" horiz-adv-x="1386" 
d="M1386 924q-74 -56 -133.5 -137t-130.5 -209q-49 -89 -96 -160t-121 -147.5t-181 -141t-255 -104.5q103 -27 186 -27q167 0 309 80.5t242.5 205.5t154.5 259t54 233q0 72 -29 148zM418 27q-83 29 -136 42t-114 13q-54 0 -87.5 -13t-33.5 -34q0 -37 123 -37q135 0 248 29z
M995 969h15q0 -103 -47 -202t-125 -181t-166.5 -129t-167.5 -47q-156 0 -156 161q0 103 58 204t160 182t228 127t257 46q126 0 206 -42.5t136 -139.5q41 36 95.5 68.5t106.5 52.5l9 -10q-98 -40 -205 -125q20 -51 25.5 -83t5.5 -79q0 -102 -54 -237.5t-156.5 -262
t-247 -207.5t-317.5 -81q-122 0 -213 32q-123 -32 -252 -32q-157 0 -157 51q0 29 35.5 45t97.5 16q70 0 130.5 -14.5t145.5 -48.5q93 27 164 62.5t131 87.5t112.5 116.5t125.5 171.5q74 110 152.5 206t143 161t109.5 102q-52 92 -129 134t-194 42q-141 0 -268.5 -59
t-220 -150.5t-144 -189.5t-51.5 -168q0 -58 34.5 -91.5t92.5 -33.5q71 0 157.5 46.5t163 123.5t125.5 178t49 197z" />
    <glyph glyph-name="E" unicode="E" horiz-adv-x="885" 
d="M641 717q137 21 258 84t193.5 137.5t72.5 126.5q0 24 -20 36.5t-58 12.5q-73 0 -164.5 -51t-168.5 -141.5t-113 -204.5zM637 653q7 -48 26.5 -73t63.5 -25q20 0 34.5 11.5t14.5 29.5q0 29 -37 45.5t-102 11.5zM616 664l-4 30q-88 -12 -145 -12q-129 0 -205 47.5
t-76 134.5q0 48 38 108t150 109t316 49v-14q-148 0 -248 -29t-150.5 -71.5t-68.5 -83.5t-18 -76q0 -59 61.5 -109.5t204.5 -50.5q44 0 139 15q2 72 21 120.5t67 104.5q75 83 188 138.5t206 55.5q42 0 65 -17t23 -46q0 -47 -46 -106.5t-122.5 -114t-171 -94t-201.5 -54.5
l-4 -32q69 8 112.5 -11t43.5 -59q0 -27 -20.5 -41t-47.5 -14q-81 0 -105 110q-130 -24 -227.5 -89.5t-156 -144.5t-87 -153.5t-28.5 -120.5q0 -145 170 -145q108 0 218.5 52t181.5 133.5t71 162.5q0 46 -31.5 72t-85.5 26q-68 0 -142 -35.5t-134 -99.5q-37 -37 -60 -75
t-53 -107h-14q35 82 58.5 119.5t61.5 77.5q135 133 287 133q59 0 93 -29t34 -80q0 -90 -73 -174.5t-186.5 -137t-219.5 -52.5q-117 0 -174.5 59t-57.5 164q0 78 44 153.5t119 136t177 104.5t213 63z" />
    <glyph glyph-name="F" unicode="F" horiz-adv-x="1130" 
d="M1204 938l10 -4q-57 -104 -135.5 -187.5t-168 -128.5t-187.5 -45q-162 0 -162 127q0 65 48 138.5t141 137.5t222.5 103t289.5 39q76 0 206 -20q125 -21 209 -21q98 0 187 49l8 -8q-118 -84 -258 -84q-65 0 -203 29q-86 17 -130.5 22t-90.5 5q-144 0 -261 -41t-195 -103
t-118.5 -129t-40.5 -115q0 -114 150 -114q74 0 158 38t168.5 117t152.5 195zM1176 541q79 12 105 40t26 46q0 37 -35 37q-29 0 -51.5 -31.5t-44.5 -91.5zM719 408l-10 8q106 84 299 106q146 214 233.5 317t214.5 183l10 -6q-154 -132 -213 -209t-170 -279l62 9
q30 69 60.5 105t68.5 36q47 0 47 -51q0 -42 -43.5 -67t-106.5 -36q-10 -60 -16 -133l-59 -22q27 113 43 151l-64 -8q-141 -270 -342.5 -399t-443.5 -129q-88 0 -141.5 29.5t-53.5 90.5q0 33 19.5 57.5t50.5 24.5q24 0 36.5 -12t12.5 -33q0 -39 -47 -39q-30 0 -39 43
q-18 -22 -18 -41q0 -45 52 -75.5t136 -30.5q102 0 198.5 34.5t182.5 99.5t164.5 157.5t154.5 216.5q-179 -25 -278 -98z" />
    <glyph glyph-name="G" unicode="G" horiz-adv-x="981" 
d="M502 569q177 30 380 117.5t342.5 194.5t139.5 188q0 47 -74 47q-84 0 -186 -42.5t-209.5 -121t-207.5 -176.5t-185 -207zM1030 518l8 -10q-74 -51 -109.5 -86.5t-92.5 -122.5q-67 -97 -122 -159.5t-151 -109t-229 -46.5q-102 0 -161.5 37.5t-59.5 99.5q0 33 16.5 54.5
t42.5 21.5q16 0 27.5 -9.5t11.5 -25.5q0 -12 -11.5 -21.5t-23.5 -9.5q-19 0 -37 31q-10 -21 -10 -43q0 -55 56 -88t147 -33q129 0 197 44.5t137 129.5l83 98l66 74q-75 -49 -146 -78.5t-151 -29.5q-77 0 -122.5 40t-45.5 107q0 68 47 162h-10q-193 0 -249 76.5t-56 146.5
q0 71 45 137t123 116.5t181 79.5t218 29q60 0 115 -8l-2 -12q-58 6 -111 6q-112 0 -211 -28.5t-175.5 -79t-119.5 -116t-43 -136.5q0 -87 53.5 -131.5t113.5 -54.5t134 -13l44.5 61.5t59.5 72.5t70.5 69t92.5 74q132 96 227.5 156t197 100t195.5 40q88 0 88 -59
q0 -66 -83.5 -148t-216 -156t-288.5 -131t-296 -81q-54 -83 -75.5 -132t-21.5 -85q0 -39 33.5 -63.5t87.5 -24.5q83 0 164.5 38t165.5 98.5z" />
    <glyph glyph-name="H" unicode="H" horiz-adv-x="1386" 
d="M1286 639q269 77 419 163.5t205.5 157t55.5 109.5q0 47 -53 47q-66 0 -159 -55t-193.5 -141t-170 -159t-104.5 -122zM817 518q-217 -39 -381.5 -124t-251 -178t-86.5 -155q0 -63 82 -63q62 0 158.5 44.5t221.5 160.5t257 315zM907 877l13 -7q-77 -64 -143.5 -93
t-137.5 -29q-147 0 -147 120q0 38 22 82.5t69 86.5t120.5 67.5t177.5 25.5q79 0 126.5 -28.5t47.5 -75.5q0 -9 -5.5 -43.5t-5.5 -30.5q0 -26 46 -26q54 0 109 31t132 102q65 59 82 59q10 0 10 -6q0 -11 -20 -22q-39 -27 -150 -119q-144 -119 -311 -412l232 51l106 107l57 55
q163 154 316.5 256t253.5 102q34 0 53.5 -15t19.5 -42q0 -83 -104 -173.5t-267 -164.5t-337 -114l-133 -169t-122.5 -168t-81.5 -134t-30 -97q0 -22 16.5 -38.5t36.5 -16.5q43 0 94.5 24t112 67.5t118 92.5l118.5 101v-17l-126 -109t-106 -84.5t-108 -65t-96 -23.5
q-42 0 -66.5 27t-24.5 69q0 201 283 512l-225 -49q-6 -17 -51.5 -74t-118 -132t-172.5 -155q-79 -64 -193.5 -131t-222.5 -67q-54 0 -72 20.5t-18 54.5q0 78 96.5 177.5t269.5 184t386 118.5l32 41q98 121 143.5 171t184.5 189q-74 -27 -117 -27q-82 0 -82 66q0 2 5.5 36.5
t5.5 35.5q0 65 -125 65q-132 0 -217 -43.5t-122.5 -101.5t-37.5 -103q0 -49 34 -77.5t97 -28.5q69 0 133 27.5t137 87.5z" />
    <glyph glyph-name="I" unicode="I" horiz-adv-x="961" 
d="M909 541q139 184 246 287.5t200.5 163.5t229.5 126q-202 -3 -353 -51t-245 -120t-138 -146t-44 -127q0 -113 104 -133zM242 -2q122 0 227 54t185.5 138.5t149 189l95.5 146.5q-64 15 -100.5 57.5t-36.5 106.5q0 53 39.5 126t136 145.5t266.5 120.5t422 48v-10
q-143 -62 -251.5 -140t-181 -157t-117.5 -149.5t-87 -147.5q241 3 289 283h14q-40 -299 -315 -299q-48 -96 -122 -188.5t-172.5 -170t-211 -122.5t-233.5 -45q-88 0 -144.5 35.5t-56.5 93.5q0 34 19 55.5t48 21.5q21 0 33.5 -10.5t12.5 -29.5q0 -39 -46 -39q-30 0 -38 36
q-11 -14 -11 -36q0 -56 58.5 -84.5t128.5 -28.5z" />
    <glyph glyph-name="J" unicode="J" horiz-adv-x="1024" 
d="M932 537l124.5 141.5t167 175.5t203.5 169t209 99q-201 7 -358.5 -34t-261 -109.5t-156.5 -149t-53 -149.5q0 -108 125 -143zM506 4q-229 -34 -427.5 -83t-328 -114.5t-129.5 -142.5q0 -34 41 -57t105 -23q145 0 302 81.5t276 182t161 156.5zM1036 266q-34 -35 -75.5 -71
t-88 -63.5t-105.5 -50t-159 -50.5q-69 -68 -165.5 -147.5t-209 -151.5t-234 -117t-235.5 -45q-70 0 -112.5 26t-42.5 66q0 223 913 363q101 113 223 276q126 171 175 221q-71 27 -100 65t-29 97q0 99 73 189t201.5 154t299.5 93t359 10v-14q-123 4 -252 -81t-245.5 -219
t-220.5 -290q105 0 173 29.5t107 77.5t72 117h18q-49 -123 -133 -180.5t-215 -57.5h-35l-39 -57q-88 -130 -154 -212.5t-165 -187.5q102 29 168.5 60t107 61.5t125.5 106.5v-17z" />
    <glyph glyph-name="K" unicode="K" horiz-adv-x="1430" 
d="M1210 567q-37 64 -92 64q-22 0 -36.5 -11.5t-14.5 -25.5q0 -43 70 -43q28 0 73 16zM1446 283v-17l-189.5 -166.5t-121 -85t-107.5 -30.5q-63 0 -63 75q0 51 10.5 87t29.5 68.5t40 56l53 57.5q119 126 119 186q0 29 -5 39q-39 -16 -77 -16q-35 0 -58.5 16t-23.5 41
q0 23 19 37t48 14q65 0 105 -72q61 29 109.5 65t133.5 132q151 169 275.5 264.5t251.5 95.5q86 0 86 -53q0 -28 -25 -28q-22 0 -22 24q0 2 2 14t2 15q0 9 -12.5 13.5t-32.5 4.5q-156 0 -297 -166q-91 -106 -156 -173.5t-146.5 -130t-164.5 -93.5q6 -33 6 -49
q0 -62 -41.5 -146.5t-118.5 -175.5q-90 -107 -90 -143q0 -45 51 -45q34 0 79 23.5t88.5 56.5t98.5 81l89 77zM1008 899l10 -8q-63 -75 -135.5 -115.5t-157.5 -40.5q-78 0 -125 34t-47 89q0 70 49 133t141.5 101t210.5 38q168 0 168 -118q0 -4 -4 -28t-4 -30q0 -34 45 -34
q37 0 75.5 20.5t78.5 53.5t47 38q12 8 36 30.5t45.5 37t37.5 14.5q14 0 0.5 -14.5t-27.5 -22.5q-29 -20 -117 -94q-98 -88 -161.5 -169t-165.5 -243q-56 -89 -94 -143.5t-75.5 -99t-80.5 -90.5q-78 -81 -156 -137t-169.5 -86.5t-207.5 -30.5q-95 0 -141.5 35.5t-46.5 91.5
q0 33 17 53t50 20q39 0 39 -34q0 -33 -39 -33q-34 0 -34 39q-19 -11 -19 -47q0 -46 44 -78.5t136 -32.5q99 0 181.5 33t148.5 88t113 111.5t123 158.5l129 173l114 140l23 27q48 56 160 170l32 35q-9 -5 -26.5 -13t-36.5 -12.5t-43 -3.5q-36 1 -58 21.5t-22 54.5q0 -2 5 27
t5 41q0 67 -125 67q-121 0 -207.5 -39t-132 -98.5t-45.5 -118.5q0 -48 44 -79t114 -31q153 0 281 149z" />
    <glyph glyph-name="L" unicode="L" horiz-adv-x="1217" 
d="M1032 543q162 54 292.5 130t214.5 151t128.5 139t44.5 95q0 25 -12.5 42t-36.5 16q-111 -7 -235 -101t-230 -226.5t-166 -245.5zM457 41q-72 24 -145.5 38.5t-121.5 14.5q-57 0 -88.5 -14t-31.5 -35q0 -47 145 -47q131 0 242 43zM879 449l26 43q-86 -21 -170 -21
q-99 0 -169.5 32t-107 88t-36.5 126q0 103 84.5 199.5t236 155t342.5 58.5v-14q-178 -1 -324 -57.5t-228 -148t-82 -199.5q0 -101 77.5 -158t219.5 -61q78 -3 176 26q95 130 210 261t260.5 241t268.5 110q76 0 76 -65q0 -49 -52 -121t-147.5 -151t-228.5 -149.5t-287 -119.5
l-16 -22l-119.5 -163t-82.5 -93.5t-126.5 -106.5t-171.5 -98q124 -43 254 -43q66 0 121.5 21t124.5 74.5t221 189.5v-17l-171 -151t-110 -81t-90.5 -38.5t-95.5 -11.5q-116 0 -273 47q-70 -25 -133.5 -36t-138.5 -11q-168 0 -168 61q0 64 150 64q58 0 112.5 -9.5
t130.5 -36.5l43 -14q118 66 208 155.5t186 244.5z" />
    <glyph glyph-name="M" unicode="M" horiz-adv-x="1493" 
d="M741 365q59 66 187.5 193.5l204.5 199.5l144.5 134t103 90t93.5 71.5t117 76.5l13 -8q-169 -188 -207 -237l-19 -23q-5 -7 -26 -33l-310 -370l-187.5 -239t-82.5 -116t-39 -75t4 -31q19 0 65.5 39.5t100.5 96.5l174 185l57 62.5l67.5 73l72.5 77.5q137 146 206.5 213.5
t170.5 157.5l57 51q129 115 234 176l12 -8l-41 -49l-369.5 -450.5l-246.5 -314t-138 -193t-51 -95.5q0 -22 22 -22q34 0 95 43.5t145.5 120l134.5 121.5v-17l-187.5 -170.5t-107 -81.5t-88.5 -30q-37 0 -37 41q0 80 58.5 188t154 226t238.5 268l362 376q-104 -57 -370 -309
q-11 -10 -31 -30l-64 -64l-116.5 -121l-138.5 -147l-29 -31q-12 -16 -29 -33l-188.5 -206t-117 -112.5t-85.5 -45.5q-7 0 -13.5 12t-6.5 22q0 66 40.5 147.5t99 160t120.5 147.5l249.5 278.5t206.5 209.5l142 135q-91 -59 -139 -95.5t-138 -115.5q-39 -34 -117 -107.5
l-141 -135.5l-132 -133l-146 -155l-141.5 -154t-108.5 -99.5t-141.5 -85.5t-159.5 -31q-59 0 -96 25t-37 69q0 30 13.5 51t43.5 21q16 0 29.5 -11.5t13.5 -27.5q0 -14 -9.5 -24.5t-23.5 -10.5q-36 0 -26 41q0 6 -2 8q-11 0 -18 -15.5t-7 -33.5q0 -33 32.5 -55.5t80.5 -22.5
q88 0 164.5 31.5t134.5 79.5t96 89z" />
    <glyph glyph-name="N" unicode="N" horiz-adv-x="1237" 
d="M1171 788l-43 -233q-10 -59 -30.5 -129.5t-50.5 -163.5l188 254q204 278 334 408q98 98 201 152t196 54q156 0 156 -94q0 -26 -15 -43.5t-34 -17.5q-10 0 -18.5 9.5t-8.5 21.5q0 14 8 22t21 8q6 0 14.5 -5t13.5 -9q4 0 4 14q0 82 -139 82q-113 0 -244.5 -88.5
t-273.5 -257.5q-48 -57 -120.5 -151.5l-151.5 -206l-154 -219.5q-85 -123 -121 -167t-65 -44q-11 0 -11 6q0 11 29 30q63 43 101.5 110.5t52.5 180.5l4 33q20 162 52 265t85 233q19 44 25 55l-15 -16l-18 -25l-167.5 -217.5t-151 -185l-135.5 -151t-116 -120.5
q-51 -49 -96 -84t-91 -59.5t-98 -39.5t-106 -15q-74 0 -114.5 26.5t-40.5 75.5q0 34 20 57t49 23q39 0 39 -37t-39 -37q-31 0 -39 35q-16 -22 -16 -47q0 -35 38.5 -58.5t96.5 -23.5q63 0 120.5 19t119 59.5t127 100t145.5 147.5q91 99 223.5 258t192.5 241l102 142l34.5 47
t43.5 61q36 57 49 57q8 0 8 -8q0 -5 -10 -18q-131 -159 -160 -316z" />
    <glyph glyph-name="O" unicode="O" horiz-adv-x="897" 
d="M444 549h-12q48 120 123 214t156.5 153.5t157 88.5t126.5 29q50 0 79.5 -32.5t29.5 -88.5q0 -97 -86 -254t-224 -314t-291 -259t-282 -102q-77 0 -125.5 46t-48.5 138q0 104 52 215.5t157 232t256 242.5q170 135 322.5 203.5t289.5 68.5q86 0 135.5 -35.5t49.5 -97.5
q0 -69 -44 -109.5t-128 -62.5l2 15q78 18 116.5 60.5t38.5 96.5q0 57 -47 88t-129 31q-148 0 -306 -77.5t-296 -219.5q-81 -83 -157 -179t-139 -194.5t-100.5 -181.5t-37.5 -139q0 -52 35.5 -89.5t97.5 -37.5q124 0 274.5 100.5t289 255.5t225 309.5t86.5 249.5
q0 50 -24.5 79.5t-68.5 29.5q-51 0 -129 -31.5t-156 -90t-151 -149.5t-117 -202z" />
    <glyph glyph-name="P" unicode="P" horiz-adv-x="1153" 
d="M1135 967l12 -4q-39 -149 -127.5 -266t-199 -181.5t-210.5 -64.5q-58 0 -92.5 32.5t-34.5 87.5q0 86 61.5 184t170.5 184t249.5 138.5t290.5 52.5q136 0 226 -90q93 61 168 88l4 -10q-78 -29 -162 -92q26 -36 34.5 -64t8.5 -79q0 -52 -31 -120t-86 -115.5t-121 -47.5
q-27 0 -45 19t-18 45q0 56 54 107.5t140 78.5l5 -10q-90 -30 -138.5 -76t-48.5 -100q0 -21 12.5 -35.5t34.5 -14.5q31 0 67.5 27t72.5 75t56.5 101t20.5 103q0 47 -32 94q-79 -57 -141.5 -121.5t-105.5 -126.5t-87 -145q-83 -161 -144.5 -251.5t-128.5 -150.5
q-81 -74 -176.5 -127t-196.5 -80.5t-200 -27.5q-100 0 -150.5 33.5t-50.5 91.5q0 30 22.5 53.5t51.5 23.5q45 0 45 -43q0 -39 -45 -39q-17 0 -24.5 7.5t-18.5 29.5v2q-14 -9 -14 -45q0 -37 50 -68.5t136 -31.5q147 0 274.5 69t235 188.5t215.5 285.5q68 106 124 180
t107.5 127.5t102.5 96t108 83.5q-73 88 -209 88q-159 0 -298.5 -55.5t-241.5 -140t-160.5 -179t-58.5 -163.5q0 -50 29.5 -81.5t78.5 -31.5q94 0 204 68t199.5 184.5t125.5 249.5z" />
    <glyph glyph-name="Q" unicode="Q" horiz-adv-x="961" 
d="M977 266l-163.5 -136t-117 -83t-97 -47.5t-81.5 -15.5q-86 0 -131 34q-84 -34 -166 -34q-83 0 -129.5 50.5t-46.5 137.5q0 142 107.5 308.5t282.5 317t360 241.5t329 91q88 0 136.5 -36.5t48.5 -104.5q0 -65 -41.5 -107t-126.5 -63v10q77 19 116 62t39 98q0 60 -43 93.5
t-129 33.5q-187 0 -372.5 -120t-334 -294.5t-240 -340.5t-91.5 -242q0 -56 36.5 -88.5t104.5 -32.5q66 0 152 35q-8 24 -12 47q-20 108 -103 108q-44 0 -102 -34l-8 10q59 39 108 39q50 0 86.5 -29.5t85.5 -112.5q79 44 132 85t126 112q88 86 181.5 204t157 238t63.5 211
q0 48 -26 76.5t-71 28.5q-80 0 -185.5 -57t-204 -164.5t-158.5 -251.5l-17 4q35 93 98.5 180.5t143 155t165 107.5t160.5 40q51 0 80 -34.5t29 -86.5q0 -111 -88 -260.5t-213 -290t-209 -206.5q-53 -43 -154 -103q24 -32 42 -41.5t53 -9.5q112 0 438 285v-17z" />
    <glyph glyph-name="R" unicode="R" horiz-adv-x="1430" 
d="M1260 463q-17 65 -72 65q-22 0 -35.5 -11t-13.5 -30q0 -21 17.5 -27.5t47.5 -6.5q25 0 56 10zM1149 979l12 2q-23 -140 -85.5 -243t-145.5 -169t-162.5 -95.5t-142.5 -29.5q-76 0 -113 32.5t-37 88.5q0 71 54.5 166.5t160.5 188t258.5 151.5t335.5 59q96 0 157.5 -18.5
t123.5 -71.5q81 44 161 68l3 -10q-85 -30 -154 -68q76 -93 76 -201q0 -82 -41.5 -153.5t-125.5 -129.5t-206 -97q0 -75 -22 -121.5t-93 -124.5q-104 -117 -104 -174q0 -31 28 -31q36 0 124.5 75.5t228.5 209.5v-17q-99 -105 -206 -193.5t-147 -88.5q-49 0 -49 63
q0 79 34 138t87 114q52 53 72.5 83t28.5 62q-31 -6 -70 -6q-31 0 -48.5 14t-17.5 35q0 25 18.5 40.5t45.5 15.5q59 0 88 -74q115 41 188.5 123.5t105.5 169.5t32 143q0 67 -43 115q-81 -50 -144.5 -104.5t-126 -132.5t-153.5 -212l-19 -26l-71.5 -104.5t-49 -65.5t-59.5 -66
q-316 -325 -684 -325q-106 0 -161.5 32t-55.5 93q0 31 17 54t44 23q41 0 41 -34q0 -13 -11 -23t-24 -10q-29 0 -32 39q-7 0 -14 -17t-7 -35q0 -51 52.5 -79.5t146.5 -28.5q126 0 228.5 39.5t188 107t155.5 145.5t179 212l29 35q130 159 240.5 275.5t277.5 219.5
q-46 45 -104.5 64.5t-159.5 19.5q-176 0 -325.5 -58t-251 -146t-156.5 -182t-55 -159q0 -50 34 -81t90 -31q73 0 154.5 35t159.5 104t136.5 167.5t80.5 213.5z" />
    <glyph glyph-name="S" unicode="S" horiz-adv-x="1110" 
d="M1094 586q107 66 210.5 142.5t190 151.5t134.5 129t48 76q0 31 -39 31q-82 0 -182 -68t-186 -174q-46 -55 -86.5 -122t-89.5 -166zM1087 569l-20 -39q-287 -546 -788 -546q-106 0 -167 33.5t-61 91.5q0 25 12.5 44t38.5 19q19 0 30 -12t11 -29q0 -10 -9.5 -20.5
t-22.5 -10.5q-15 0 -21.5 2.5t-15.5 18.5q-4 -4 -4 -23q0 -20 17.5 -43t68.5 -40t137 -17q177 0 317 92.5t225.5 206t153.5 240.5q-130 -37 -223 -37q-127 0 -210 61.5t-83 155.5q0 102 91 201t252.5 162t352.5 63v-13q-200 -1 -355.5 -66t-236.5 -159t-81 -180
q0 -95 74 -154t192 -59q116 0 239 43q11 13 35 51q84 130 170 230.5t162 164.5t145 96.5t123 32.5q56 0 56 -43q0 -68 -91.5 -171t-231.5 -199t-282 -148z" />
    <glyph glyph-name="T" unicode="T" horiz-adv-x="1153" 
d="M1233 952h14q-81 -164 -184 -246t-179.5 -103t-115.5 -21q-76 0 -120 37t-44 100q0 54 37.5 121.5t116 130t202 103t289.5 40.5q115 0 301 -18q171 -17 258 -17q85 0 142 10t80 27h18q-40 -36 -133 -58t-166 -22q-40 0 -219 27q-256 37 -324 37q-132 0 -244 -36.5
t-189.5 -97t-117 -126t-39.5 -123.5q0 -56 40.5 -89.5t105.5 -33.5q50 0 115.5 23.5t130 68t125.5 114.5t100 152zM1040 522l27 37q247 345 506 471l10 -8q-90 -47 -160.5 -100.5t-127 -122t-103.5 -152.5q-86 -154 -132 -225.5t-95 -126.5q-68 -75 -150.5 -135t-166.5 -98
t-176.5 -58t-182.5 -20q-119 0 -173.5 35.5t-54.5 89.5q0 34 19 55.5t45 21.5q45 0 45 -39q0 -13 -9.5 -23.5t-23.5 -10.5q-47 0 -31 55q-17 -10 -23.5 -23t-6.5 -34q0 -48 53.5 -80.5t149.5 -32.5q145 0 273 49t193 113q39 37 72 73.5t88 106.5t135 182z" />
    <glyph glyph-name="U" unicode="U" horiz-adv-x="897" 
d="M633 1028h14q-26 -76 -72 -139.5t-109 -116t-128.5 -80.5t-128.5 -28q-111 0 -111 90q0 77 70.5 166.5t189.5 149.5t252 60q162 0 162 -129q0 -149 -117 -284l-481 -547q-56 -65 -77 -93.5t-21 -45.5q0 -33 43 -33q92 0 233 99t273 225t184 186l463 524h92l-838 -954
q-26 -31 -26 -53q0 -27 30 -27q52 0 142.5 73t236.5 212v-17q-149 -143 -235.5 -212.5t-149.5 -69.5q-18 0 -31.5 13.5t-13.5 35.5q0 97 144 262q15 19 19 22l9 7q-140 -129 -244.5 -205.5t-172 -105.5t-121.5 -29q-40 0 -54 19t-14 30q0 55 33.5 113.5t101.5 136.5l463 528
q113 130 113 205q0 45 -37.5 72.5t-116.5 27.5q-123 0 -236 -59.5t-182 -145.5t-71 -153q-1 -36 26 -58t66 -22q64 0 146 39t158 118.5t124 192.5z" />
    <glyph glyph-name="V" unicode="V" horiz-adv-x="725" 
d="M193 78l-70 -72q138 58 278 172t253 232l276 299l125 135t139 127.5t170 111.5t176 47q137 0 137 -96q0 -21 -12 -35t-31 -14q-37 0 -37 33q0 21 13 28t37 7q10 0 10 4q0 21 -32 40t-83 19q-95 0 -203 -65t-214 -164t-187.5 -192l-112.5 -128l-142 -153t-174.5 -168
t-197.5 -151.5t-219 -110.5l-6 10q107 105 175.5 187t141.5 196l29 45q110 172 195 272l32 39l211 246q-57 -40 -94.5 -58t-93.5 -18q-109 0 -109 78q0 4 4.5 28t4.5 33q0 35 -34 54.5t-87 19.5q-79 0 -144.5 -23.5t-112.5 -62.5t-73.5 -83.5t-26.5 -86.5q0 -54 41 -88.5
t101 -34.5q75 0 150 45t132 107l11 -4q-59 -77 -138.5 -119.5t-152.5 -42.5q-68 0 -113 38t-45 95q0 72 54 135.5t140 101t169 37.5q109 0 138.5 -48.5t29.5 -116.5q0 -27 10.5 -37t38.5 -10q85 0 153.5 46t130.5 115l16.5 18.5l15 16.5t14.5 12t14 4q13 0 1 -14.5
t-42.5 -44t-61.5 -63.5q-34 -40 -86 -114t-84 -128q-65 -113 -119.5 -192t-116 -155.5t-119 -138.5z" />
    <glyph glyph-name="W" unicode="W" horiz-adv-x="1044" 
d="M1081 541l173 179.5t213.5 203t207 147t195.5 59.5q57 0 91 -25t34 -69q0 -23 -11 -37t-28 -14q-33 0 -33 31t31 31q4 0 11 -2.5t9 -2.5q6 0 6 11q0 27 -29.5 45t-78.5 18q-90 0 -198 -63t-196 -141.5t-175.5 -170l-128.5 -135.5l-189 -192.5l-200.5 -199.5t-166 -141
t-153.5 -91l-8 12q121 133 176 231q203 354 368 543l66 74l121 133q63 63 55 63q-7 0 -78.5 -66.5l-164.5 -159.5t-160 -167l-39 -43l-161 -175.5t-181 -181t-185 -158.5t-174 -105l-8 12q65 58 128.5 146.5t150.5 228.5l53 86l14 24q159 241 332 414l72 72
q-94 -66 -172 -66q-82 0 -82 72q0 3 4 30t4 33q0 16 -16 35.5t-48 33t-77 13.5q-99 0 -178.5 -44t-121.5 -107.5t-42 -116.5q0 -52 39.5 -85.5t101.5 -33.5q82 0 150.5 41t138.5 123l6 -10q-127 -168 -297 -168q-70 0 -112 36t-42 97t45 127.5t126 110.5t188 44
q80 0 129 -35.5t49 -90.5q0 -5 -2 -25t-2 -23q0 -43 49 -43q71 0 144.5 56t140.5 123l20 20.5t14.5 13t14.5 4.5t8 -4q0 -7 -45 -47q-106 -92 -183.5 -194t-160.5 -242q-67 -112 -102.5 -165.5t-116.5 -151t-230 -260.5l-41 -46q80 47 154 105t126.5 107l111.5 108.5
l159 167.5l72 78l163 175.5l146 150t134 123.5t126 95l13 -10q-172 -193 -207 -241l-60 -92l-83 -128.5l-85 -128.5q-134 -194 -198.5 -273.5t-182.5 -205.5l-28 -31q65 36 150 105t163.5 145l149.5 150.5z" />
    <glyph glyph-name="X" unicode="X" horiz-adv-x="1260" 
d="M1108 608q267 78 436 160.5t244.5 157t75.5 133.5q0 27 -16 42t-48 15q-89 0 -211.5 -68.5t-251 -186t-229.5 -253.5zM965 561q-216 -47 -385.5 -112t-283 -136.5t-171 -138.5t-57.5 -121q0 -55 88 -55q57 0 143 31t189 95.5t223.5 172t253.5 264.5zM1081 989l13 -4
q-69 -139 -160.5 -211.5t-162 -92t-112.5 -19.5q-63 0 -99 30.5t-36 81.5q0 75 67.5 159t182.5 140.5t248 56.5q55 0 97 -21t63.5 -65t21.5 -108q0 -49 -9 -92t-30 -96q192 180 357.5 281t281.5 101q35 0 54.5 -16.5t19.5 -48.5q0 -65 -69 -141t-249 -164t-470 -170
q-112 -129 -170.5 -209.5t-106.5 -163.5q-33 -58 -49 -99t-16 -65q0 -25 19 -40t50 -15q55 0 130 36.5t159 101.5t168 147v-17q-290 -282 -459 -282q-40 0 -64 20t-24 57q0 96 129 312q-145 -139 -279 -227.5t-238 -125t-183 -36.5q-50 0 -76.5 13t-26.5 54
q0 89 119.5 191.5t331 192t481.5 145.5q77 94 119.5 158.5t61 117t18.5 107.5q0 70 -46 111.5t-114 41.5q-140 0 -251 -58.5t-172.5 -139t-61.5 -142.5q0 -46 32.5 -73t90.5 -27q77 0 157.5 39t147.5 109.5t114 164.5z" />
    <glyph glyph-name="Y" unicode="Y" horiz-adv-x="918" 
d="M741 993l15 -2q-15 -65 -78 -136.5t-153.5 -117t-180.5 -45.5q-38 0 -70 21.5t-32 72.5q0 77 69 158t176.5 133.5t212.5 52.5q174 0 174 -157q0 -49 -17.5 -97.5t-55 -101.5t-105.5 -127l-39 -43l-41 -41q-105 -109 -147.5 -161t-42.5 -80q0 -19 16 -33.5t45 -14.5
q75 0 160.5 47t159 112t119.5 118l434 481h86l-559 -633q-129 -146 -225 -233t-195.5 -134.5t-208.5 -47.5q-56 0 -100 16.5t-68 47.5t-24 71q0 36 18 57t51 21q37 0 37 -33q0 -31 -33 -31q-25 0 -35 35q-10 -3 -17 -18t-7 -31q0 -54 51 -87.5t127 -33.5q99 0 187.5 44
t162 115.5t146.5 164.5l133 170q-113 -127 -220 -179.5t-175 -52.5q-80 0 -80 70q0 58 47 139.5t217 251.5q97 97 137.5 163t40.5 122q0 50 -40 80t-103 30q-116 0 -222 -54.5t-169.5 -132.5t-63.5 -141q0 -38 25 -59.5t65 -21.5q92 0 176.5 44.5t144 114t74.5 127.5z" />
    <glyph glyph-name="Z" unicode="Z" horiz-adv-x="1110" 
d="M1124 891q114 22 203.5 64t136.5 82.5t47 58.5q0 20 -26 20q-32 0 -88 -32t-135 -90zM1087 887h9l39 31q119 95 208 153.5t148 58.5q15 0 25 -8.5t10 -21.5q0 -35 -56.5 -81.5t-154.5 -87t-203 -54.5l-223 -242q44 -12 80 -12q28 0 51 7t51 23l6 -10q-41 -30 -88.5 -43
t-138.5 -6q-58 -59 -177.5 -167.5t-189.5 -162.5q47 18 95.5 31.5t102 23t85.5 9.5q96 0 96 -70q0 -75 -102 -164q-62 -52 -62 -78q0 -20 35 -20q26 0 84 32.5t138 98.5t169 156l2 -17q-80 -85 -156 -148.5t-137.5 -98.5t-99.5 -35q-49 0 -49 51q0 43 20 81.5t78 78.5
q62 41 62 77q0 19 -18.5 30t-59.5 11q-42 0 -153.5 -26t-172.5 -56q-129 -109 -205.5 -163t-117.5 -72q-28 -12 -43 -12q-21 0 -21 18q0 37 64 78t231 121l82 39l352 370q-51 17 -86 17q-51 0 -102 -45l-10 6q32 40 95.5 57t141.5 2l131 115l73.5 60t57.5 52q-139 5 -139 84
q0 24 12 52q13 26 13 39q0 28 -47 47.5t-109 19.5q-124 0 -209 -43.5t-123.5 -102t-38.5 -100.5q0 -48 37.5 -77t100.5 -29q87 0 157 38t154 122l10 -9q-77 -83 -154.5 -124t-164.5 -41q-70 0 -112 33.5t-42 86.5q0 54 44.5 115t132 103t204.5 42q90 0 144.5 -29t54.5 -85
q0 -21 -13 -53q-8 -20 -8 -29q0 -47 100 -47z" />
    <glyph glyph-name="bracketleft" unicode="[" horiz-adv-x="555" 
d="M-254 -238l1188 1356h250l-10 -14h-195l-1161 -1327h254l-11 -15h-315z" />
    <glyph glyph-name="backslash" unicode="\" horiz-adv-x="319" 
d="M-119 -165l-43 1l629 1061l45 -1z" />
    <glyph glyph-name="bracketright" unicode="]" horiz-adv-x="555" 
d="M1036 1118l-1188 -1356h-249l10 15h194l1162 1327h-254l10 14h315z" />
    <glyph glyph-name="asciicircum" unicode="^" horiz-adv-x="512" 
d="M303 739l256 -430h-57l-209 353l-209 -353h-57l258 430h18z" />
    <glyph glyph-name="underscore" unicode="_" horiz-adv-x="1024" 
d="M1040 -154v-102h-1056v102h1056z" />
    <glyph glyph-name="grave" unicode="`" horiz-adv-x="682" 
d="M606 602h-12q-71 91 -94 182h92q-5 -109 14 -182z" />
    <glyph glyph-name="a" unicode="a" horiz-adv-x="532" 
d="M281 385q-60 0 -133.5 -59t-128 -134t-54.5 -106q0 -15 10 -25t25 -10q41 0 118 57t139 129t62 113q0 35 -38 35zM545 262l-51 -43q-120 -100 -177.5 -141t-101.5 -41q-29 0 -29 33q0 35 27 98q-143 -131 -211 -131q-30 0 -49 23.5t-19 68.5q0 51 30 100.5t80.5 87.5
t113 60t121.5 22q29 0 42.5 -10.5t14.5 -34.5q-1 -5 -1.5 -9.5t-2 -12.5l-2.5 -13l63 74l84 6l-26 -32l-52 -62.5l-34 -40.5q-156 -169 -156 -198q0 -15 14 -15q19 0 57 22.5t85.5 59.5l108.5 87.5l71 58.5v-17z" />
    <glyph glyph-name="b" unicode="b" horiz-adv-x="492" 
d="M436 659l234 261h86l-645 -717q-69 -77 -83.5 -114.5t13.5 -37.5q76 0 159 53t139 122.5t56 109.5q0 55 31 55q12 0 12 -12q0 -66 -86 -166q54 -2 81 10t71 60v-17q-42 -47 -73 -58.5t-91 -6.5q-75 -84 -155.5 -124t-145.5 -40q-45 0 -45 43q0 37 18.5 75.5t63.5 96.5
q11 16 37 45.5l70.5 79.5l82 92.5t39.5 44.5l-317 -272v16l32 29l150 131l128 113l94.5 85t43.5 43z" />
    <glyph glyph-name="c" unicode="c" horiz-adv-x="406" 
d="M418 283v-17q-237 -229 -395 -229q-42 0 -61 21.5t-19 76.5q0 48 30.5 97t80.5 86.5t110 59t117 21.5q26 0 42.5 -13t16.5 -36q0 -26 -20.5 -46.5t-45.5 -20.5q-30 0 -30 26q0 39 35 39q20 0 24 -18q4 -6 8 -6q5 0 10 8t5 18q0 16 -11 25.5t-30 9.5q-53 0 -128.5 -57
t-130.5 -130t-55 -114q0 -33 49 -33q91 0 177 56t221 176z" />
    <glyph glyph-name="d" unicode="d" horiz-adv-x="532" 
d="M287 385q-41 0 -117 -57.5t-134.5 -130t-58.5 -113.5q0 -33 31 -33q44 0 121.5 57.5t138 129.5t60.5 110q0 37 -41 37zM330 303l540 617h82l-630 -719l-46 -54t-36.5 -47t-16 -33t14.5 -16q25 0 123 77.5t184 154.5v-17q-118 -103 -198.5 -166t-117.5 -63q-26 0 -26 31
q0 40 28 104q0 1 -1.5 2.5t-2.5 1.5q-139 -139 -219 -139q-57 0 -57 94q0 74 56 136t138 97t146 35q51 0 51 -43q0 -30 -12 -53z" />
    <glyph glyph-name="e" unicode="e" horiz-adv-x="406" 
d="M63 238q83 0 140 21t86.5 50t29.5 47q0 29 -34 29q-45 0 -105 -39.5t-117 -107.5zM418 283v-17q-112 -112 -205 -170.5t-188 -58.5q-84 0 -84 96q0 80 60.5 140.5t142 93t132.5 32.5q29 0 45.5 -13.5t16.5 -35.5q0 -34 -37 -62.5t-103 -47t-155 -21.5q-76 -86 -76 -131
q0 -16 16.5 -26.5t41.5 -10.5q161 0 393 232z" />
    <glyph glyph-name="f" unicode="f" horiz-adv-x="406" 
d="M-12 250v18q2 2 31.5 21.5t31.5 21.5q1 31 17.5 57.5t33.5 26.5q27 0 19 -39l147 74l240 279q262 307 385 307q23 0 39 -14t16 -37q0 -61 -79.5 -149t-221 -187t-311.5 -183l-215 -258q39 -20 72 -20q72 0 115 26.5t110 88.5v-17q-64 -64 -110 -87t-113 -23q-44 0 -84 20
l-482 -577h-80l185 213q48 56 113 143t112.5 157.5t89.5 143.5l-2 33l-29.5 -18.5t-29.5 -20.5zM240 401q-43 -20 -121 -63q-1 -9 -7 -20t-12.5 -20l-15.5 -22q-16 -19 -16 -28q3 -14 18 -29q10 14 77 91t77 91zM457 592l-97 -117q113 57 214.5 122.5t183.5 134.5t129 129.5
t47 101.5q0 18 -11 28t-30 10q-66 0 -171.5 -108t-264.5 -301zM74 205l-19 33q-3 -5 -35.5 -55l-54 -83.5l-47.5 -74.5z" />
    <glyph glyph-name="g" unicode="g" horiz-adv-x="532" 
d="M322 346q0 16 -13.5 25.5t-32.5 9.5q-56 0 -129.5 -57t-127.5 -131t-54 -109q0 -12 12.5 -21.5t26.5 -9.5q40 0 117 57t139 128.5t62 107.5zM-23 -104q-186 -80 -274 -126.5t-147 -109.5q-50 -56 -50 -96q0 -21 15 -33t39 -12q48 0 107.5 41t142.5 131q124 145 167 205z
M-4 -82l149 188q-17 -10 -28 -18q-72 -49 -113 -49q-70 0 -70 92q0 56 34.5 105t88.5 84.5t112 55t107 19.5q60 0 60 -43q0 -12 -8 -37l69 80h84l-372 -424q94 46 194.5 119.5t241.5 192.5v-17q-97 -84 -166 -138.5t-142 -100.5t-151 -82q-128 -140 -214.5 -226.5
t-144 -132.5t-96.5 -64t-73 -18q-30 0 -48 17t-18 43q0 42 42 92t120 99.5t182 92.5l146 62z" />
    <glyph glyph-name="h" unicode="h" horiz-adv-x="662" 
d="M698 920h82l-665 -754q95 80 212.5 156.5t157.5 76.5q45 0 45 -49q0 -57 -37 -101t-100 -91q-78 -57 -78 -86q0 -21 25 -21q48 0 129 57t205 171v-17l-29 -26q-100 -92 -179.5 -145.5t-125.5 -53.5q-45 0 -45 43q0 82 88 158q67 59 92 85t25 46q0 5 -5.5 10.5t-13.5 5.5
q-39 0 -219 -129q-148 -107 -258 -219h-86l531 604l-461 -399v16l286 252l185 163t114 110t125 137z" />
    <glyph glyph-name="i" unicode="i" horiz-adv-x="319" 
d="M336 602q22 0 22 -27q0 -16 -9 -26t-23 -10q-27 0 -27 24q0 14 11 26.5t26 12.5zM-10 244l-2 16q76 69 178 131h90l-236 -264q-25 -28 -32 -52t12 -24q50 0 149 74t183 156v-17q-97 -93 -187 -160t-147 -67q-33 0 -33 35q0 104 162 266q9 9 16.5 17.5t14.5 15.5
q-90 -54 -168 -127z" />
    <glyph glyph-name="j" unicode="j" horiz-adv-x="362" 
d="M362 600q25 0 25 -25q0 -14 -10 -26t-23 -12q-10 0 -19 7t-9 15q0 15 11 28t25 13zM-301 -268l90 116q35 47 78 111q-144 -79 -233 -136t-153.5 -123t-64.5 -124q0 -49 45 -49q78 0 238 205zM-12 246v16q71 64 114.5 91t87.5 38h91l-301 -364q86 34 196.5 106t196.5 146
v-17q-194 -168 -416 -260l-20 -25q-185 -221 -274.5 -317t-128 -121.5t-73.5 -25.5q-27 0 -43 16t-16 45q0 86 143 199q56 46 144.5 100.5t197.5 108.5l299 395q-38 -9 -80 -38t-118 -93z" />
    <glyph glyph-name="k" unicode="k" horiz-adv-x="662" 
d="M266 498l174 149q65 55 136.5 132t123.5 141h84l-780 -873h-84l516 578l-67 -59l-61 -52.5l-68 -58.5l-120 -103l-100 -84l-32 -26v16l106 92q-1 0 172 148zM672 283v-17l-49 -43q-120 -104 -186.5 -145t-123.5 -41q-47 0 -47 53q0 51 47 109q21 25 21 43q0 12 -12 12
q-3 0 -17 -2t-18 -2q-43 0 -43 16q0 13 26 13q17 0 58 -13q44 19 98 64q49 40 80.5 54.5t68.5 14.5q56 0 56 -32q0 -23 -23 -23q-26 0 -26 23l4 18q0 4 -6 4q-50 0 -115 -59q-38 -36 -121 -72q21 -30 21 -61q0 -45 -39 -84q-31 -36 -31 -45q0 -17 22 -17q49 0 129.5 53
t225.5 179z" />
    <glyph glyph-name="l" unicode="l" horiz-adv-x="319" 
d="M616 866l50 54h77l-630 -705q-113 -124 -113 -145q0 -19 20 -19q35 0 80 29.5t121.5 98.5l112.5 100v-17q-136 -125 -199 -175t-115 -50q-18 0 -30.5 13.5t-12.5 31.5q0 51 50 119t135 159q6 8 36 42.5l58 68.5q-69 -52 -266 -227v16l284 246q52 44 342 360z" />
    <glyph glyph-name="m" unicode="m" horiz-adv-x="938" 
d="M-12 242v18q74 67 124 103t89 36q32 0 32 -43q0 -36 -21 -69.5t-71 -96.5q140 115 210.5 162t121.5 47q37 0 37 -34q0 -68 -100 -187l28 21l128 94t117.5 75.5t90.5 30.5q16 0 25.5 -12.5t9.5 -36.5q0 -46 -30.5 -90.5t-104.5 -99.5q-30 -22 -57 -51t-27 -39
q0 -19 28 -19q44 0 116.5 53.5t215.5 174.5v-17q-136 -117 -208.5 -171t-127.5 -54q-39 0 -39 39q0 43 29 87t98 109q80 75 80 95q0 18 -16 18q-26 0 -113 -55.5t-192.5 -137t-173.5 -145.5h-84l155 170l48.5 51t55.5 61.5t23 37.5q0 5 -4.5 10.5t-13.5 5.5q-56 0 -167 -87
t-261 -222l-29 -27h-86l211 236q72 74 72 88t-12 14q-17 0 -51 -21.5t-74 -53.5z" />
    <glyph glyph-name="n" unicode="n" horiz-adv-x="662" 
d="M-14 242v16q152 141 213 141q34 0 34 -43q0 -34 -21 -67t-85 -115q124 103 215 164t156 61q34 0 34 -47q0 -46 -32 -91.5t-105 -98.5q-78 -59 -78 -84q0 -10 9.5 -18.5t19.5 -8.5q35 0 92.5 38.5t125.5 98l110 95.5v-17l-119 -106.5t-115.5 -86t-95.5 -36.5
q-24 0 -34.5 16t-10.5 33q0 38 30 85.5t83 92.5q61 54 84.5 86.5t-13.5 32.5q-47 0 -142 -63.5t-178 -134l-157 -138.5h-78l133 150q146 163 146 178q0 10 -12 10q-44 0 -209 -143z" />
    <glyph glyph-name="o" unicode="o" horiz-adv-x="426" 
d="M279 385q-56 0 -128.5 -63.5t-130 -139.5t-57.5 -94q0 -16 14.5 -26.5t36.5 -10.5q53 0 127.5 52.5t131.5 124t57 112.5q0 20 -14.5 32.5t-36.5 12.5zM438 283v-17q-56 -67 -125 -67l-14 2t-16 2q-160 -166 -277 -166q-22 0 -40.5 11.5t-28 30.5t-9.5 44q0 67 59 131
t142.5 104.5t146.5 40.5q68 0 68 -63q0 -51 -49 -119q10 -4 22 -4q63 0 121 70z" />
    <glyph glyph-name="p" unicode="p" horiz-adv-x="598" 
d="M393 627h51l-374 -451l144 112.5t116 76t102 34.5q37 0 37 -51q0 -44 -29.5 -85.5t-97.5 -94.5q-88 -68 -88 -94q0 -23 29 -23q51 0 327 232v-17q-102 -87 -197.5 -158t-131.5 -71q-48 3 -48 47q0 69 127 184q82 74 82 97q0 20 -20 20q-28 0 -121 -59.5t-189 -137.5
t-132 -120l-402 -471h-88l840 950q-40 -38 -342 -305v16l213.5 190.5t191.5 178.5z" />
    <glyph glyph-name="q" unicode="q" horiz-adv-x="492" 
d="M287 385q-47 0 -124.5 -57.5t-136.5 -130t-59 -117.5q0 -13 9.5 -21t23.5 -8q39 0 117 57t141.5 129t63.5 113q0 13 -10 24t-25 11zM-203 -403h-86l490 555q-124 -115 -199 -115q-61 0 -61 94q0 65 54.5 128t135 101.5t152.5 38.5q53 0 53 -43q0 -21 -17 -59l101 102h39
l-447 -546l115 101.5l139.5 122.5l147 128t90.5 78v-17l-488 -434q-32 -29 -74.5 -75.5z" />
    <glyph glyph-name="r" unicode="r" horiz-adv-x="406" 
d="M-12 258l89.5 73t88.5 70q-8 31 8 55.5t39 24.5q13 0 23 -7.5t10 -18.5q0 -13 -8.5 -21t-20.5 -8t-33 20q-6 -8 -6 -22q-1 -12 9.5 -22.5t23.5 -10.5q9 0 27 4q20 4 24 4q8 0 13.5 -15t5.5 -36q0 -18 -24.5 -47.5t-84.5 -96.5t-83 -95t-23 -43t20 -15q28 0 119.5 65.5
t212.5 166.5v-17q-269 -229 -340 -229q-27 0 -27 33q0 47 18.5 89t63.5 93l117 129q-21 -8 -47.5 -7t-32.5 15q-133 -110 -182 -147v16z" />
    <glyph glyph-name="s" unicode="s" horiz-adv-x="426" 
d="M-12 258l209 180l44 53.5t29 24.5q8 0 14.5 -4.5t6.5 -13.5q0 -19 -55 -47q32 -48 46 -84t17 -91q-3 -34 -8 -57q36 -9 65.5 1.5t81.5 62.5v-17q-40 -50 -74 -62t-79 1q-24 -54 -78 -92.5t-111 -57t-98 -18.5q-39 0 -63.5 15.5t-24.5 43.5q0 25 14.5 40.5t42.5 15.5
q18 0 29.5 -9.5t11.5 -25.5q0 -13 -12.5 -23t-26.5 -10q-19 0 -28 31q-13 -9 -13 -27q0 -11 20.5 -24t47.5 -13q53 0 112 45.5t98.5 114.5t39.5 133q0 46 -29 94l-229 -196v16z" />
    <glyph glyph-name="t" unicode="t" horiz-adv-x="385" 
d="M330 539l166 188h86l-166 -188h127l-11 -17h-129l-243 -276q-40 -44 -88.5 -106t-48.5 -68q0 -21 22 -21q82 0 352 232v-17l-53 -47q-207 -182 -301 -182q-23 0 -36 13t-13 30q0 40 56.5 133t221.5 258q-102 -68 -284 -229v16q61 58 151 131.5t176 132.5h-73l14 17h74z
" />
    <glyph glyph-name="u" unicode="u" horiz-adv-x="598" 
d="M-12 242v16q66 64 184 133h84l-223 -254q-56 -64 -56 -74t17 -10q55 0 180 97.5t277 240.5h79l-233 -266q-4 -5 -16.5 -19t-19 -25.5t-5.5 -19.5q0 -10 16 -10q37 0 139 66.5t199 165.5v-17q-99 -99 -197.5 -164t-144.5 -65q-35 0 -35 35q0 33 30.5 83t94.5 128l19 22
l-37 -33q-121 -108 -208.5 -171.5t-137.5 -63.5q-37 0 -37 43q0 28 16.5 61.5t44 69.5t58.5 70.5l63 70.5l-51 -30q-69 -51 -100 -80z" />
    <glyph glyph-name="v" unicode="v" horiz-adv-x="512" 
d="M-12 242v16l47 40t61 48t60 38.5t47 14.5q15 0 24 -12t9 -33q0 -78 -127 -190q-76 -65 -76 -96q0 -17 30 -17q51 0 111.5 32.5t115 84t86.5 98t34 72.5q3 61 22 61t19 -26q0 -28 -22 -65.5t-69 -90.5q16 -10 35 -10q53 0 129 76v-17q-74 -71 -125 -71q-24 0 -47 12
q-77 -79 -147.5 -124.5t-151.5 -45.5q-20 0 -34.5 14.5t-14.5 36.5q0 45 31.5 89.5t105.5 101.5q80 58 80 92q0 14 -20 14q-29 0 -65.5 -26t-147.5 -117z" />
    <glyph glyph-name="w" unicode="w" horiz-adv-x="768" 
d="M567 391l-262 -295q-12 -14 -12 -26q0 -19 20 -19q72 0 175 69t151 126q31 35 45 96q12 57 31 57q14 0 14 -16q0 -73 -100 -172q42 -9 77.5 6t73.5 66v-17q-31 -45 -69.5 -61.5t-96.5 -5.5q-174 -162 -307 -162q-41 0 -41 39q0 73 150 231q-151 -137 -246 -203.5
t-150 -66.5q-32 0 -32 39q0 75 145 237q28 28 45 52q-97 -44 -190 -123v16q55 44 102.5 77t112.5 56h84l-240 -276q-31 -39 -31 -47q0 -5 5 -11t10 -6q38 0 131 67.5t168 135.5q35 34 79 72l74 65h84z" />
    <glyph glyph-name="x" unicode="x" horiz-adv-x="641" 
d="M-12 242v16q80 70 144 105.5t130 35.5q55 0 55 -47q0 -16 -8 -57q53 53 92.5 78.5t92.5 25.5q25 0 43 -14t18 -37q0 -49 -43 -51q-31 0 -31 31q0 12 8 19t19 7q16 0 29 -18q7 25 -6 37t-39 12q-33 0 -70.5 -25t-91.5 -86q-65 -72 -97 -116.5t-32 -71.5q0 -35 45 -35
q76 0 179 62.5t228 169.5v-17q-72 -68 -148.5 -120.5t-143.5 -80.5t-117 -28q-62 0 -62 53q0 32 21 88l-29 -26l-50 -46t-70 -50t-79 -19q-67 0 -67 55t53 55q17 0 27 -9t10 -23q0 -11 -10 -21t-23 -10q-34 0 -37 33q-17 -66 49 -66q34 0 62 14t53.5 36t51 52.5l30.5 36.5
l103.5 123t21.5 45q0 27 -35 27q-66 0 -129.5 -37t-146.5 -106z" />
    <glyph glyph-name="y" unicode="y" horiz-adv-x="662" 
d="M141 -49q-210 -105 -355.5 -212t-145.5 -179q0 -18 12.5 -29.5t30.5 -11.5q35 0 79 24.5t98.5 76.5t127.5 138l84.5 103.5t68.5 89.5zM-12 242v16q80 69 131.5 105t89.5 36q31 0 31 -41q0 -87 -119 -192q-86 -76 -86 -100q0 -15 18 -15q37 0 128.5 61.5t190 143
t152.5 135.5h76l-321 -366q112 45 192.5 98.5t202.5 159.5v-17q-114 -105 -200 -161t-218 -105l-18 -20q-209 -234 -338 -355t-213 -121q-62 0 -62 58q0 42 56.5 105.5t175.5 141t303 162.5q98 126 254 297l-140 -108t-81 -58.5t-83.5 -48.5t-64.5 -16q-17 0 -28 11t-11 30
q0 33 13 63t41.5 60.5t76.5 66.5q86 64 86 99q0 18 -20 18q-34 0 -88 -41t-127 -102z" />
    <glyph glyph-name="z" unicode="z" horiz-adv-x="432" 
d="M-12 258l116 96q-6 26 10.5 45t41.5 19q28 0 28 -27q0 -13 -7 -21t-19 -8q-25 0 -35 13q-4 -14 10.5 -25.5t44.5 -11.5q72 0 103 24l34 29q50 43 70 43q14 0 14 -10q0 -49 -133 -84l-215 -182q53 16 90 16q54 0 54 -43q0 -18 -23 -41q-9 -9 -10 -19t8 -10
q20 0 106.5 70.5t167.5 151.5v-17q-234 -229 -303 -229q-14 0 -25.5 9.5t-11.5 27.5q0 24 33 53q19 11 23.5 22t-29.5 11q-49 0 -133 -51q-14 -15 -28 -32.5t-27.5 -28.5t-24.5 -11q-20 0 -20 14q0 28 114 90l228 191q-47 -8 -68 -8q-45 0 -59 24l-125 -106v16z" />
    <glyph glyph-name="braceleft" unicode="{" horiz-adv-x="748" 
d="M203 315v19q34 5 74.5 32t68 71.5t27.5 94.5q0 42 -17 150q-16 110 -16 123q0 123 65.5 213t167.5 112v-14q-50 -9 -88 -45t-56.5 -80.5t-18.5 -85.5q0 -11 2.5 -32t6 -48t9.5 -65q18 -108 18 -139q0 -120 -74 -197.5t-141 -97.5q38 -11 88.5 -47.5t88.5 -104t38 -160.5
q0 -34 -18 -137q-18 -128 -18 -135q0 -67 39 -126.5t124 -84.5v-14q-110 32 -171.5 124.5t-61.5 202.5q0 29 16 123q17 89 17 133q0 38 -17.5 77t-42 67t-55 48t-55.5 23z" />
    <glyph glyph-name="bar" unicode="|" horiz-adv-x="1004" 
d="M483 920h37v-1323h-37v1323z" />
    <glyph glyph-name="braceright" unicode="}" horiz-adv-x="748" 
d="M573 315q-33 -5 -73.5 -37t-68.5 -80t-28 -98q0 -44 17 -133q16 -94 16 -123q0 -113 -61.5 -204t-171.5 -123v14q85 26 124 84.5t39 126.5q0 7 -18 135q-18 103 -18 137q0 93 38 160.5t88.5 104t88.5 47.5q-67 20 -141 97.5t-74 197.5q0 31 18 139q18 137 18 145
q0 41 -18.5 85.5t-56.5 80.5t-88 45v14q66 -13 119.5 -59.5t83.5 -115.5t30 -150q0 -13 -16 -123q-17 -108 -17 -150q0 -50 27.5 -94.5t68 -71.5t74.5 -32v-19z" />
    <glyph glyph-name="asciitilde" unicode="~" 
d="M733 399h25q-2 -51 -20.5 -85t-52 -53t-73.5 -19q-22 0 -50 7.5t-97 35.5q-99 42 -139 55.5t-70 13.5q-95 0 -115 -112h-24q5 60 24 94q19 31 49.5 47t61.5 16q30 0 64 -9.5t124 -47.5q97 -39 123.5 -47t54.5 -8q43 0 76.5 25.5t38.5 86.5z" />
    <glyph glyph-name="Adieresis" unicode="&#xc4;" horiz-adv-x="1386" 
d="M1022 449q-19 104 -89 189t-173 85q-74 0 -113.5 -41.5t-52 -87.5t-12.5 -72q0 -95 33 -166t112 -153q106 82 295 246zM1036 461l324 280.5t232.5 184.5t195 126t164.5 62l10 -8l-29 -27q-132 -124 -235.5 -231l-221 -239.5t-219 -258.5l-213.5 -276q47 0 110 29.5
t127.5 78t117.5 101.5v-17q-60 -64 -165.5 -135.5t-197.5 -71.5l-41 -59h-92l53 70q-73 14 -121.5 39t-107.5 73q-87 -56 -161 -97.5t-157 -71t-165 -29.5q-83 0 -129.5 31t-46.5 85q0 37 23 65t56 28q21 0 32 -11t11 -22q0 -31 -38 -31q-31 0 -37 33q-31 -26 -31 -66
q0 -46 41 -72t117 -26q78 0 160.5 29t156.5 71t154 95q-78 86 -112 156t-34 157q0 92 48 161.5t143 69.5q105 0 176.5 -76.5t101.5 -199.5zM1565 743l26 29q42 45 163.5 161.5l162.5 153.5q-78 -15 -202 -95t-250 -181.5t-234.5 -197.5l-188.5 -167q12 -91 2.5 -163
t-43.5 -156q39 49 97 113l96 104.5l122.5 131zM1026 434q-41 -38 -129 -112l-158 -129q61 -49 111 -74.5t117 -36.5q44 94 57 177t2 175zM1954 1315q32 0 32 -41q0 -25 -13.5 -44.5t-33.5 -19.5q-14 0 -23.5 11.5t-9.5 29.5q0 24 16 44t32 20zM1794 1315q33 0 33 -41
q0 -26 -13.5 -45t-34.5 -19q-14 0 -23 12t-9 29q0 24 15 44t32 20z" />
    <glyph glyph-name="Aring" unicode="&#xc5;" horiz-adv-x="1386" 
d="M1022 449q-19 104 -89 189t-173 85q-74 0 -113.5 -41.5t-52 -87.5t-12.5 -72q0 -95 33 -166t112 -153q106 82 295 246zM1036 461l324 280.5t232.5 184.5t195 126t164.5 62l10 -8l-29 -27q-132 -124 -235.5 -231l-221 -239.5t-219 -258.5l-213.5 -276q47 0 110 29.5
t127.5 78t117.5 101.5v-17q-60 -64 -165.5 -135.5t-197.5 -71.5l-41 -59h-92l53 70q-73 14 -121.5 39t-107.5 73q-87 -56 -161 -97.5t-157 -71t-165 -29.5q-83 0 -129.5 31t-46.5 85q0 37 23 65t56 28q21 0 32 -11t11 -22q0 -31 -38 -31q-31 0 -37 33q-31 -26 -31 -66
q0 -46 41 -72t117 -26q78 0 160.5 29t156.5 71t154 95q-78 86 -112 156t-34 157q0 92 48 161.5t143 69.5q105 0 176.5 -76.5t101.5 -199.5zM1565 743l26 29q42 45 163.5 161.5l162.5 153.5q-78 -15 -202 -95t-250 -181.5t-234.5 -197.5l-188.5 -167q12 -91 2.5 -163
t-43.5 -156q39 49 97 113l96 104.5l122.5 131zM1026 434q-41 -38 -129 -112l-158 -129q61 -49 111 -74.5t117 -36.5q44 94 57 177t2 175zM1909 1401q41 0 68.5 -27.5t27.5 -67.5q0 -38 -28 -67t-66 -29t-67 29t-29 67q0 39 28 67t66 28zM1913 1386q-34 0 -58 -23t-24 -57
t24 -58t56 -24q36 0 58 23t22 57q0 20 -10 39.5t-27 31t-41 11.5z" />
    <glyph glyph-name="Ccedilla" unicode="&#xc7;" horiz-adv-x="938" 
d="M510 575q161 39 317 101t271 130.5t180 135t65 119.5q0 55 -61 55q-101 0 -238.5 -82t-275 -203.5t-258.5 -255.5zM365 -18l-39 -56q38 -11 64 -28.5t26 -59.5q0 -125 -238 -125h-59l2 17q113 -5 168 18q38 16 58 43t20 55q0 33 -12 44t-52 32l49 66q-68 7 -113.5 53.5
t-45.5 134.5q0 85 42 167t148 200q-173 -11 -245 51t-72 158q0 52 32 116t110.5 123.5t218.5 99t349 39.5v-14q-218 0 -361 -42.5t-213 -102t-96 -118.5t-26 -105q0 -93 74.5 -148t240.5 -45q83 89 200 190.5t242.5 188.5t242.5 141.5t204 54.5q76 0 76 -71
q0 -76 -122 -175.5t-320 -186.5t-420 -136q-97 -107 -155 -185.5t-86 -140t-28 -112.5q0 -50 46.5 -87.5t121.5 -37.5q91 0 196.5 51t178 128t72.5 153q0 54 -31 81t-88 27q-76 0 -180.5 -68.5t-204.5 -254.5l-14 10q91 172 197 250t204 78q65 0 98 -34t33 -87
q0 -75 -69.5 -158t-184 -137.5t-239.5 -54.5z" />
    <glyph glyph-name="Eacute" unicode="&#xc9;" horiz-adv-x="885" 
d="M641 717q137 21 258 84t193.5 137.5t72.5 126.5q0 24 -20 36.5t-58 12.5q-73 0 -164.5 -51t-168.5 -141.5t-113 -204.5zM637 653q7 -48 26.5 -73t63.5 -25q20 0 34.5 11.5t14.5 29.5q0 29 -37 45.5t-102 11.5zM616 664l-4 30q-88 -12 -145 -12q-129 0 -205 47.5
t-76 134.5q0 48 38 108t150 109t316 49v-14q-148 0 -248 -29t-150.5 -71.5t-68.5 -83.5t-18 -76q0 -59 61.5 -109.5t204.5 -50.5q44 0 139 15q2 72 21 120.5t67 104.5q75 83 188 138.5t206 55.5q42 0 65 -17t23 -46q0 -47 -46 -106.5t-122.5 -114t-171 -94t-201.5 -54.5
l-4 -32q69 8 112.5 -11t43.5 -59q0 -27 -20.5 -41t-47.5 -14q-81 0 -105 110q-130 -24 -227.5 -89.5t-156 -144.5t-87 -153.5t-28.5 -120.5q0 -145 170 -145q108 0 218.5 52t181.5 133.5t71 162.5q0 46 -31.5 72t-85.5 26q-68 0 -142 -35.5t-134 -99.5q-37 -37 -60 -75
t-53 -107h-14q35 82 58.5 119.5t61.5 77.5q135 133 287 133q59 0 93 -29t34 -80q0 -90 -73 -174.5t-186.5 -137t-219.5 -52.5q-117 0 -174.5 59t-57.5 164q0 78 44 153.5t119 136t177 104.5t213 63zM1061 1210h-26q108 75 170 180h108q-80 -86 -252 -180z" />
    <glyph glyph-name="Ntilde" unicode="&#xd1;" horiz-adv-x="1237" 
d="M1171 788l-43 -233q-10 -59 -30.5 -129.5t-50.5 -163.5l188 254q204 278 334 408q98 98 201 152t196 54q156 0 156 -94q0 -26 -15 -43.5t-34 -17.5q-10 0 -18.5 9.5t-8.5 21.5q0 14 8 22t21 8q6 0 14.5 -5t13.5 -9q4 0 4 14q0 82 -139 82q-113 0 -244.5 -88.5
t-273.5 -257.5q-48 -57 -120.5 -151.5l-151.5 -206l-154 -219.5q-85 -123 -121 -167t-65 -44q-11 0 -11 6q0 11 29 30q63 43 101.5 110.5t52.5 180.5l4 33q20 162 52 265t85 233q19 44 25 55l-15 -16l-18 -25l-167.5 -217.5t-151 -185l-135.5 -151t-116 -120.5
q-51 -49 -96 -84t-91 -59.5t-98 -39.5t-106 -15q-74 0 -114.5 26.5t-40.5 75.5q0 34 20 57t49 23q39 0 39 -37t-39 -37q-31 0 -39 35q-16 -22 -16 -47q0 -35 38.5 -58.5t96.5 -23.5q63 0 120.5 19t119 59.5t127 100t145.5 147.5q91 99 223.5 258t192.5 241l102 142l34.5 47
t43.5 61q36 57 49 57q8 0 8 -8q0 -5 -10 -18q-131 -159 -160 -316zM1483 1210h-23q45 51 84 74q46 22 92 22q40 0 105 -26q55 -23 86 -23q44 0 92 47h20q-47 -53 -83 -73.5t-85 -20.5q-38 0 -110 27q-47 19 -78 22q-34 0 -49.5 -7.5t-50.5 -41.5z" />
    <glyph glyph-name="Odieresis" unicode="&#xd6;" horiz-adv-x="897" 
d="M444 549h-12q48 120 123 214t156.5 153.5t157 88.5t126.5 29q50 0 79.5 -32.5t29.5 -88.5q0 -97 -86 -254t-224 -314t-291 -259t-282 -102q-77 0 -125.5 46t-48.5 138q0 104 52 215.5t157 232t256 242.5q170 135 322.5 203.5t289.5 68.5q86 0 135.5 -35.5t49.5 -97.5
q0 -69 -44 -109.5t-128 -62.5l2 15q78 18 116.5 60.5t38.5 96.5q0 57 -47 88t-129 31q-148 0 -306 -77.5t-296 -219.5q-81 -83 -157 -179t-139 -194.5t-100.5 -181.5t-37.5 -139q0 -52 35.5 -89.5t97.5 -37.5q124 0 274.5 100.5t289 255.5t225 309.5t86.5 249.5
q0 50 -24.5 79.5t-68.5 29.5q-51 0 -129 -31.5t-156 -90t-151 -149.5t-117 -202zM1203 1315q32 0 32 -41q0 -25 -13.5 -44.5t-33.5 -19.5q-14 0 -23.5 11.5t-9.5 29.5q0 24 16 44t32 20zM1043 1315q33 0 33 -41q0 -26 -13.5 -45t-34.5 -19q-14 0 -23 12t-9 29q0 24 15 44
t32 20z" />
    <glyph glyph-name="Udieresis" unicode="&#xdc;" horiz-adv-x="897" 
d="M633 1028h14q-26 -76 -72 -139.5t-109 -116t-128.5 -80.5t-128.5 -28q-111 0 -111 90q0 77 70.5 166.5t189.5 149.5t252 60q162 0 162 -129q0 -149 -117 -284l-481 -547q-56 -65 -77 -93.5t-21 -45.5q0 -33 43 -33q92 0 233 99t273 225t184 186l463 524h92l-838 -954
q-26 -31 -26 -53q0 -27 30 -27q52 0 142.5 73t236.5 212v-17q-149 -143 -235.5 -212.5t-149.5 -69.5q-18 0 -31.5 13.5t-13.5 35.5q0 97 144 262q15 19 19 22l9 7q-140 -129 -244.5 -205.5t-172 -105.5t-121.5 -29q-40 0 -54 19t-14 30q0 55 33.5 113.5t101.5 136.5l463 528
q113 130 113 205q0 45 -37.5 72.5t-116.5 27.5q-123 0 -236 -59.5t-182 -145.5t-71 -153q-1 -36 26 -58t66 -22q64 0 146 39t158 118.5t124 192.5zM1182 1315q32 0 32 -41q0 -25 -13.5 -44.5t-33.5 -19.5q-14 0 -23.5 11.5t-9.5 29.5q0 24 16 44t32 20zM1022 1315
q33 0 33 -41q0 -26 -13.5 -45t-34.5 -19q-14 0 -23 12t-9 29q0 24 15 44t32 20z" />
    <glyph glyph-name="aacute" unicode="&#xe1;" horiz-adv-x="532" 
d="M281 385q-60 0 -133.5 -59t-128 -134t-54.5 -106q0 -15 10 -25t25 -10q41 0 118 57t139 129t62 113q0 35 -38 35zM545 262l-51 -43q-120 -100 -177.5 -141t-101.5 -41q-29 0 -29 33q0 35 27 98q-143 -131 -211 -131q-30 0 -49 23.5t-19 68.5q0 51 30 100.5t80.5 87.5
t113 60t121.5 22q29 0 42.5 -10.5t14.5 -34.5q-1 -5 -1.5 -9.5t-2 -12.5l-2.5 -13l63 74l84 6l-26 -32l-52 -62.5l-34 -40.5q-156 -169 -156 -198q0 -15 14 -15q19 0 57 22.5t85.5 59.5l108.5 87.5l71 58.5v-17zM362 602h-26q108 75 170 180h108q-80 -86 -252 -180z" />
    <glyph glyph-name="agrave" unicode="&#xe0;" horiz-adv-x="532" 
d="M281 385q-60 0 -133.5 -59t-128 -134t-54.5 -106q0 -15 10 -25t25 -10q41 0 118 57t139 129t62 113q0 35 -38 35zM545 262l-51 -43q-120 -100 -177.5 -141t-101.5 -41q-29 0 -29 33q0 35 27 98q-143 -131 -211 -131q-30 0 -49 23.5t-19 68.5q0 51 30 100.5t80.5 87.5
t113 60t121.5 22q29 0 42.5 -10.5t14.5 -34.5q-1 -5 -1.5 -9.5t-2 -12.5l-2.5 -13l63 74l84 6l-26 -32l-52 -62.5l-34 -40.5q-156 -169 -156 -198q0 -15 14 -15q19 0 57 22.5t85.5 59.5l108.5 87.5l71 58.5v-17zM450 602h-12q-71 91 -94 182h92q-5 -109 14 -182z" />
    <glyph glyph-name="acircumflex" unicode="&#xe2;" horiz-adv-x="532" 
d="M281 385q-60 0 -133.5 -59t-128 -134t-54.5 -106q0 -15 10 -25t25 -10q41 0 118 57t139 129t62 113q0 35 -38 35zM545 262l-51 -43q-120 -100 -177.5 -141t-101.5 -41q-29 0 -29 33q0 35 27 98q-143 -131 -211 -131q-30 0 -49 23.5t-19 68.5q0 51 30 100.5t80.5 87.5
t113 60t121.5 22q29 0 42.5 -10.5t14.5 -34.5q-1 -5 -1.5 -9.5t-2 -12.5l-2.5 -13l63 74l84 6l-26 -32l-52 -62.5l-34 -40.5q-156 -169 -156 -198q0 -15 14 -15q19 0 57 22.5t85.5 59.5l108.5 87.5l71 58.5v-17zM223 602h-27q210 104 307 182h66q-43 -113 -45 -182h-10
q-22 79 -31 141q-74 -60 -260 -141z" />
    <glyph glyph-name="adieresis" unicode="&#xe4;" horiz-adv-x="532" 
d="M281 385q-60 0 -133.5 -59t-128 -134t-54.5 -106q0 -15 10 -25t25 -10q41 0 118 57t139 129t62 113q0 35 -38 35zM545 262l-51 -43q-120 -100 -177.5 -141t-101.5 -41q-29 0 -29 33q0 35 27 98q-143 -131 -211 -131q-30 0 -49 23.5t-19 68.5q0 51 30 100.5t80.5 87.5
t113 60t121.5 22q29 0 42.5 -10.5t14.5 -34.5q-1 -5 -1.5 -9.5t-2 -12.5l-2.5 -13l63 74l84 6l-26 -32l-52 -62.5l-34 -40.5q-156 -169 -156 -198q0 -15 14 -15q19 0 57 22.5t85.5 59.5l108.5 87.5l71 58.5v-17zM508 707q32 0 32 -41q0 -25 -13.5 -44.5t-33.5 -19.5
q-14 0 -23.5 11.5t-9.5 29.5q0 24 16 44t32 20zM348 707q33 0 33 -41q0 -26 -13.5 -45t-34.5 -19q-14 0 -23 12t-9 29q0 24 15 44t32 20z" />
    <glyph glyph-name="atilde" unicode="&#xe3;" horiz-adv-x="532" 
d="M281 385q-60 0 -133.5 -59t-128 -134t-54.5 -106q0 -15 10 -25t25 -10q41 0 118 57t139 129t62 113q0 35 -38 35zM545 262l-51 -43q-120 -100 -177.5 -141t-101.5 -41q-29 0 -29 33q0 35 27 98q-143 -131 -211 -131q-30 0 -49 23.5t-19 68.5q0 51 30 100.5t80.5 87.5
t113 60t121.5 22q29 0 42.5 -10.5t14.5 -34.5q-1 -5 -1.5 -9.5t-2 -12.5l-2.5 -13l63 74l84 6l-26 -32l-52 -62.5l-34 -40.5q-156 -169 -156 -198q0 -15 14 -15q19 0 57 22.5t85.5 59.5l108.5 87.5l71 58.5v-17zM185 602h-23q45 51 84 74q46 22 92 22q40 0 105 -26
q55 -23 86 -23q44 0 92 47h20q-47 -53 -83 -73.5t-85 -20.5q-38 0 -110 27q-47 19 -78 22q-34 0 -49.5 -7.5t-50.5 -41.5z" />
    <glyph glyph-name="aring" unicode="&#xe5;" horiz-adv-x="532" 
d="M281 385q-60 0 -133.5 -59t-128 -134t-54.5 -106q0 -15 10 -25t25 -10q41 0 118 57t139 129t62 113q0 35 -38 35zM545 262l-51 -43q-120 -100 -177.5 -141t-101.5 -41q-29 0 -29 33q0 35 27 98q-143 -131 -211 -131q-30 0 -49 23.5t-19 68.5q0 51 30 100.5t80.5 87.5
t113 60t121.5 22q29 0 42.5 -10.5t14.5 -34.5q-1 -5 -1.5 -9.5t-2 -12.5l-2.5 -13l63 74l84 6l-26 -32l-52 -62.5l-34 -40.5q-156 -169 -156 -198q0 -15 14 -15q19 0 57 22.5t85.5 59.5l108.5 87.5l71 58.5v-17zM387 793q41 0 68.5 -27.5t27.5 -67.5q0 -38 -28 -67t-66 -29
t-67 29t-29 67q0 39 28 67t66 28zM391 778q-34 0 -58 -23t-24 -57t24 -58t56 -24q36 0 58 23t22 57q0 20 -10 39.5t-27 31t-41 11.5z" />
    <glyph glyph-name="ccedilla" unicode="&#xe7;" horiz-adv-x="406" 
d="M12 37l-16 -23q31 -4 31 -37q0 -65 -152 -65v14q44 0 79.5 12t35.5 33q0 13 -5 18t-18 11l27 37q-27 9 -39 26t-12 72q0 48 30.5 97t80.5 86.5t110 59t117 21.5q26 0 42.5 -13t16.5 -36q0 -26 -20.5 -46.5t-45.5 -20.5q-30 0 -30 26q0 39 35 39q20 0 24 -18q4 -6 8 -6
q5 0 10 8t5 18q0 16 -11 25.5t-30 9.5q-53 0 -128.5 -57t-130.5 -130t-55 -114q0 -33 49 -33q91 0 177 56t221 176v-17q-99 -99 -175 -149.5t-128 -65t-103 -14.5z" />
    <glyph glyph-name="eacute" unicode="&#xe9;" horiz-adv-x="406" 
d="M63 238q83 0 140 21t86.5 50t29.5 47q0 29 -34 29q-45 0 -105 -39.5t-117 -107.5zM418 283v-17q-112 -112 -205 -170.5t-188 -58.5q-84 0 -84 96q0 80 60.5 140.5t142 93t132.5 32.5q29 0 45.5 -13.5t16.5 -35.5q0 -34 -37 -62.5t-103 -47t-155 -21.5q-76 -86 -76 -131
q0 -16 16.5 -26.5t41.5 -10.5q161 0 393 232zM299 602h-26q108 75 170 180h108q-80 -86 -252 -180z" />
    <glyph glyph-name="egrave" unicode="&#xe8;" horiz-adv-x="406" 
d="M63 238q83 0 140 21t86.5 50t29.5 47q0 29 -34 29q-45 0 -105 -39.5t-117 -107.5zM418 283v-17q-112 -112 -205 -170.5t-188 -58.5q-84 0 -84 96q0 80 60.5 140.5t142 93t132.5 32.5q29 0 45.5 -13.5t16.5 -35.5q0 -34 -37 -62.5t-103 -47t-155 -21.5q-76 -86 -76 -131
q0 -16 16.5 -26.5t41.5 -10.5q161 0 393 232zM387 602h-12q-71 91 -94 182h92q-5 -109 14 -182z" />
    <glyph glyph-name="ecircumflex" unicode="&#xea;" horiz-adv-x="406" 
d="M63 238q83 0 140 21t86.5 50t29.5 47q0 29 -34 29q-45 0 -105 -39.5t-117 -107.5zM418 283v-17q-112 -112 -205 -170.5t-188 -58.5q-84 0 -84 96q0 80 60.5 140.5t142 93t132.5 32.5q29 0 45.5 -13.5t16.5 -35.5q0 -34 -37 -62.5t-103 -47t-155 -21.5q-76 -86 -76 -131
q0 -16 16.5 -26.5t41.5 -10.5q161 0 393 232zM160 602h-27q210 104 307 182h66q-43 -113 -45 -182h-10q-22 79 -31 141q-74 -60 -260 -141z" />
    <glyph glyph-name="edieresis" unicode="&#xeb;" horiz-adv-x="406" 
d="M63 238q83 0 140 21t86.5 50t29.5 47q0 29 -34 29q-45 0 -105 -39.5t-117 -107.5zM418 283v-17q-112 -112 -205 -170.5t-188 -58.5q-84 0 -84 96q0 80 60.5 140.5t142 93t132.5 32.5q29 0 45.5 -13.5t16.5 -35.5q0 -34 -37 -62.5t-103 -47t-155 -21.5q-76 -86 -76 -131
q0 -16 16.5 -26.5t41.5 -10.5q161 0 393 232zM445 707q32 0 32 -41q0 -25 -13.5 -44.5t-33.5 -19.5q-14 0 -23.5 11.5t-9.5 29.5q0 24 16 44t32 20zM285 707q33 0 33 -41q0 -26 -13.5 -45t-34.5 -19q-14 0 -23 12t-9 29q0 24 15 44t32 20z" />
    <glyph glyph-name="iacute" unicode="&#xed;" horiz-adv-x="319" 
d="M-10 244l-2 16q76 69 178 131h90l-236 -264q-25 -28 -32 -52t12 -24q50 0 149 74t183 156v-17q-97 -93 -187 -160t-147 -67q-33 0 -33 35q0 104 162 266q9 9 16.5 17.5t14.5 15.5q-90 -54 -168 -127zM256 602h-26q108 75 170 180h108q-80 -86 -252 -180z" />
    <glyph glyph-name="igrave" unicode="&#xec;" horiz-adv-x="319" 
d="M-10 244l-2 16q76 69 178 131h90l-236 -264q-25 -28 -32 -52t12 -24q50 0 149 74t183 156v-17q-97 -93 -187 -160t-147 -67q-33 0 -33 35q0 104 162 266q9 9 16.5 17.5t14.5 15.5q-90 -54 -168 -127zM364 602h-12q-71 91 -94 182h92q-5 -109 14 -182z" />
    <glyph glyph-name="icircumflex" unicode="&#xee;" horiz-adv-x="319" 
d="M-10 244l-2 16q76 69 178 131h90l-236 -264q-25 -28 -32 -52t12 -24q50 0 149 74t183 156v-17q-97 -93 -187 -160t-147 -67q-33 0 -33 35q0 104 162 266q9 9 16.5 17.5t14.5 15.5q-90 -54 -168 -127zM117 602h-27q210 104 307 182h66q-43 -113 -45 -182h-10
q-22 79 -31 141q-74 -60 -260 -141z" />
    <glyph glyph-name="idieresis" unicode="&#xef;" horiz-adv-x="319" 
d="M-10 244l-2 16q76 69 178 131h90l-236 -264q-25 -28 -32 -52t12 -24q50 0 149 74t183 156v-17q-97 -93 -187 -160t-147 -67q-33 0 -33 35q0 104 162 266q9 9 16.5 17.5t14.5 15.5q-90 -54 -168 -127zM402 707q32 0 32 -41q0 -25 -13.5 -44.5t-33.5 -19.5
q-14 0 -23.5 11.5t-9.5 29.5q0 24 16 44t32 20zM242 707q33 0 33 -41q0 -26 -13.5 -45t-34.5 -19q-14 0 -23 12t-9 29q0 24 15 44t32 20z" />
    <glyph glyph-name="ntilde" unicode="&#xf1;" horiz-adv-x="662" 
d="M-14 242v16q152 141 213 141q34 0 34 -43q0 -34 -21 -67t-85 -115q124 103 215 164t156 61q34 0 34 -47q0 -46 -32 -91.5t-105 -98.5q-78 -59 -78 -84q0 -10 9.5 -18.5t19.5 -8.5q35 0 92.5 38.5t125.5 98l110 95.5v-17l-119 -106.5t-115.5 -86t-95.5 -36.5
q-24 0 -34.5 16t-10.5 33q0 38 30 85.5t83 92.5q61 54 84.5 86.5t-13.5 32.5q-47 0 -142 -63.5t-178 -134l-157 -138.5h-78l133 150q146 163 146 178q0 10 -12 10q-44 0 -209 -143zM269 602h-23q45 51 84 74q46 22 92 22q40 0 105 -26q55 -23 86 -23q44 0 92 47h20
q-47 -53 -83 -73.5t-85 -20.5q-38 0 -110 27q-47 19 -78 22q-34 0 -49.5 -7.5t-50.5 -41.5z" />
    <glyph glyph-name="oacute" unicode="&#xf3;" horiz-adv-x="426" 
d="M279 385q-56 0 -128.5 -63.5t-130 -139.5t-57.5 -94q0 -16 14.5 -26.5t36.5 -10.5q53 0 127.5 52.5t131.5 124t57 112.5q0 20 -14.5 32.5t-36.5 12.5zM438 283v-17q-56 -67 -125 -67l-14 2t-16 2q-160 -166 -277 -166q-22 0 -40.5 11.5t-28 30.5t-9.5 44q0 67 59 131
t142.5 104.5t146.5 40.5q68 0 68 -63q0 -51 -49 -119q10 -4 22 -4q63 0 121 70zM309 602h-26q108 75 170 180h108q-80 -86 -252 -180z" />
    <glyph glyph-name="ograve" unicode="&#xf2;" horiz-adv-x="426" 
d="M279 385q-56 0 -128.5 -63.5t-130 -139.5t-57.5 -94q0 -16 14.5 -26.5t36.5 -10.5q53 0 127.5 52.5t131.5 124t57 112.5q0 20 -14.5 32.5t-36.5 12.5zM438 283v-17q-56 -67 -125 -67l-14 2t-16 2q-160 -166 -277 -166q-22 0 -40.5 11.5t-28 30.5t-9.5 44q0 67 59 131
t142.5 104.5t146.5 40.5q68 0 68 -63q0 -51 -49 -119q10 -4 22 -4q63 0 121 70zM397 602h-12q-71 91 -94 182h92q-5 -109 14 -182z" />
    <glyph glyph-name="ocircumflex" unicode="&#xf4;" horiz-adv-x="426" 
d="M279 385q-56 0 -128.5 -63.5t-130 -139.5t-57.5 -94q0 -16 14.5 -26.5t36.5 -10.5q53 0 127.5 52.5t131.5 124t57 112.5q0 20 -14.5 32.5t-36.5 12.5zM438 283v-17q-56 -67 -125 -67l-14 2t-16 2q-160 -166 -277 -166q-22 0 -40.5 11.5t-28 30.5t-9.5 44q0 67 59 131
t142.5 104.5t146.5 40.5q68 0 68 -63q0 -51 -49 -119q10 -4 22 -4q63 0 121 70zM170 602h-27q210 104 307 182h66q-43 -113 -45 -182h-10q-22 79 -31 141q-74 -60 -260 -141z" />
    <glyph glyph-name="odieresis" unicode="&#xf6;" horiz-adv-x="426" 
d="M279 385q-56 0 -128.5 -63.5t-130 -139.5t-57.5 -94q0 -16 14.5 -26.5t36.5 -10.5q53 0 127.5 52.5t131.5 124t57 112.5q0 20 -14.5 32.5t-36.5 12.5zM438 283v-17q-56 -67 -125 -67l-14 2t-16 2q-160 -166 -277 -166q-22 0 -40.5 11.5t-28 30.5t-9.5 44q0 67 59 131
t142.5 104.5t146.5 40.5q68 0 68 -63q0 -51 -49 -119q10 -4 22 -4q63 0 121 70zM435 707q32 0 32 -41q0 -25 -13.5 -44.5t-33.5 -19.5q-14 0 -23.5 11.5t-9.5 29.5q0 24 16 44t32 20zM275 707q33 0 33 -41q0 -26 -13.5 -45t-34.5 -19q-14 0 -23 12t-9 29q0 24 15 44t32 20z
" />
    <glyph glyph-name="otilde" unicode="&#xf5;" horiz-adv-x="426" 
d="M279 385q-56 0 -128.5 -63.5t-130 -139.5t-57.5 -94q0 -16 14.5 -26.5t36.5 -10.5q53 0 127.5 52.5t131.5 124t57 112.5q0 20 -14.5 32.5t-36.5 12.5zM438 283v-17q-56 -67 -125 -67l-14 2t-16 2q-160 -166 -277 -166q-22 0 -40.5 11.5t-28 30.5t-9.5 44q0 67 59 131
t142.5 104.5t146.5 40.5q68 0 68 -63q0 -51 -49 -119q10 -4 22 -4q63 0 121 70zM132 602h-23q45 51 84 74q46 22 92 22q40 0 105 -26q55 -23 86 -23q44 0 92 47h20q-47 -53 -83 -73.5t-85 -20.5q-38 0 -110 27q-47 19 -78 22q-34 0 -49.5 -7.5t-50.5 -41.5z" />
    <glyph glyph-name="uacute" unicode="&#xfa;" horiz-adv-x="598" 
d="M-12 242v16q66 64 184 133h84l-223 -254q-56 -64 -56 -74t17 -10q55 0 180 97.5t277 240.5h79l-233 -266q-4 -5 -16.5 -19t-19 -25.5t-5.5 -19.5q0 -10 16 -10q37 0 139 66.5t199 165.5v-17q-99 -99 -197.5 -164t-144.5 -65q-35 0 -35 35q0 33 30.5 83t94.5 128l19 22
l-37 -33q-121 -108 -208.5 -171.5t-137.5 -63.5q-37 0 -37 43q0 28 16.5 61.5t44 69.5t58.5 70.5l63 70.5l-51 -30q-69 -51 -100 -80zM395 602h-26q108 75 170 180h108q-80 -86 -252 -180z" />
    <glyph glyph-name="ugrave" unicode="&#xf9;" horiz-adv-x="598" 
d="M-12 242v16q66 64 184 133h84l-223 -254q-56 -64 -56 -74t17 -10q55 0 180 97.5t277 240.5h79l-233 -266q-4 -5 -16.5 -19t-19 -25.5t-5.5 -19.5q0 -10 16 -10q37 0 139 66.5t199 165.5v-17q-99 -99 -197.5 -164t-144.5 -65q-35 0 -35 35q0 33 30.5 83t94.5 128l19 22
l-37 -33q-121 -108 -208.5 -171.5t-137.5 -63.5q-37 0 -37 43q0 28 16.5 61.5t44 69.5t58.5 70.5l63 70.5l-51 -30q-69 -51 -100 -80zM483 602h-12q-71 91 -94 182h92q-5 -109 14 -182z" />
    <glyph glyph-name="ucircumflex" unicode="&#xfb;" horiz-adv-x="598" 
d="M-12 242v16q66 64 184 133h84l-223 -254q-56 -64 -56 -74t17 -10q55 0 180 97.5t277 240.5h79l-233 -266q-4 -5 -16.5 -19t-19 -25.5t-5.5 -19.5q0 -10 16 -10q37 0 139 66.5t199 165.5v-17q-99 -99 -197.5 -164t-144.5 -65q-35 0 -35 35q0 33 30.5 83t94.5 128l19 22
l-37 -33q-121 -108 -208.5 -171.5t-137.5 -63.5q-37 0 -37 43q0 28 16.5 61.5t44 69.5t58.5 70.5l63 70.5l-51 -30q-69 -51 -100 -80zM297 602h-27q210 104 307 182h66q-43 -113 -45 -182h-10q-22 79 -31 141q-74 -60 -260 -141z" />
    <glyph glyph-name="udieresis" unicode="&#xfc;" horiz-adv-x="598" 
d="M-12 242v16q66 64 184 133h84l-223 -254q-56 -64 -56 -74t17 -10q55 0 180 97.5t277 240.5h79l-233 -266q-4 -5 -16.5 -19t-19 -25.5t-5.5 -19.5q0 -10 16 -10q37 0 139 66.5t199 165.5v-17q-99 -99 -197.5 -164t-144.5 -65q-35 0 -35 35q0 33 30.5 83t94.5 128l19 22
l-37 -33q-121 -108 -208.5 -171.5t-137.5 -63.5q-37 0 -37 43q0 28 16.5 61.5t44 69.5t58.5 70.5l63 70.5l-51 -30q-69 -51 -100 -80zM521 707q32 0 32 -41q0 -25 -13.5 -44.5t-33.5 -19.5q-14 0 -23.5 11.5t-9.5 29.5q0 24 16 44t32 20zM361 707q33 0 33 -41
q0 -26 -13.5 -45t-34.5 -19q-14 0 -23 12t-9 29q0 24 15 44t32 20z" />
    <glyph glyph-name="dagger" unicode="&#x2020;" horiz-adv-x="977" 
d="M543 358l319 353q-63 4 -211 -13q-28 -2 -84 -8t-80 -6q-100 0 -100 29q0 45 143 45q34 0 178.5 -14.5t172.5 -14.5q47 47 75 81.5t74 104.5q144 215 213 215q10 0 16.5 -5.5t6.5 -12.5q0 -42 -148 -168q-126 -107 -215 -215q49 -2 184 12q48 6 116.5 11.5t88.5 5.5
q51 0 72.5 -5t21.5 -22q0 -22 -42 -34.5t-107 -12.5q-50 0 -188 16q-88 11 -164 11l-342 -377q-34 -36 -76 -91l-98 -126l-106 -128.5t-79 -94.5q-39 -44 -68 -63t-59 -19q-14 0 -14 10q0 52 201 241l91 85.5l93 89.5z" />
    <glyph glyph-name="degree" unicode="&#xb0;" horiz-adv-x="492" 
d="M322 741q50 0 91.5 -24.5t67 -66.5t25.5 -93q0 -75 -54.5 -130.5t-129.5 -55.5q-77 0 -132 55t-55 131q0 77 54.5 130.5t132.5 53.5zM319 690q-55 0 -94 -39t-39 -94q0 -56 38.5 -95.5t94.5 -39.5q57 0 96.5 39.5t39.5 95.5t-40.5 94.5t-95.5 38.5z" />
    <glyph glyph-name="cent" unicode="&#xa2;" horiz-adv-x="406" 
d="M-20 66l264 313q-33 -4 -101.5 -57.5t-121 -120t-52.5 -107.5q0 -12 11 -28zM260 397l148 170h16l-143 -170q19 0 38 -13t19 -32q0 -27 -19 -48t-43 -21q-32 0 -32 30q0 14 10.5 23.5t26.5 9.5q21 0 30 -20q11 14 11 24q0 12 -14 22t-40 11l-274 -326q24 -6 39 -6
q50 0 102 24t101.5 60t110.5 88t71 60v-17l-92 -79.5t-90 -70.5t-105.5 -57t-110.5 -22q-11 0 -38 6l-166 -197h-19l172 205q-30 34 -30 82q0 96 94 174t227 90z" />
    <glyph glyph-name="sterling" unicode="&#xa3;" horiz-adv-x="1366" 
d="M973 532q141 38 268 107t226 152t151.5 155.5t52.5 114.5q0 55 -67 55q-100 0 -202 -73.5t-188 -174.5t-158 -210zM408 39q-128 34 -168.5 43.5t-94.5 9.5q-56 0 -91.5 -14t-35.5 -35q0 -45 150 -45q66 0 130 10t110 31zM1016 1130v-14q-136 0 -253.5 -39.5t-195 -101
t-119.5 -133t-42 -135.5q0 -103 79.5 -163.5t210.5 -60.5q77 0 178 23l25 33l134 172.5t166.5 184t202 166t200.5 68.5q39 0 61.5 -17.5t22.5 -49.5q0 -50 -54.5 -125.5t-154.5 -158t-234.5 -154.5t-279.5 -111l-103 -156q92 -20 135 -20q85 0 172 51l9 -12
q-64 -42 -131 -62t-144 -20q-26 0 -88 6q-143 -171 -344 -260q128 -43 254 -43q106 0 194 34.5t173 121.5l14 -9q-85 -86 -169.5 -123.5t-205.5 -37.5q-122 0 -283 45q-7 0 -22 -6q-116 -39 -254 -39q-170 0 -170 57q0 29 39.5 47t105.5 18q60 0 120.5 -13t166.5 -44
q91 38 172 113t137 149q-69 17 -116 17q-60 0 -106.5 -16t-98.5 -56l-8 12q71 53 137.5 79t161.5 26q41 0 71 -2l82 116q-98 -18 -174 -18q-139 0 -226 62.5t-87 162.5q0 102 80.5 204t226 167t332.5 65z" />
    <glyph glyph-name="section" unicode="&#xa7;" horiz-adv-x="981" 
d="M705 412l8 57q32 240 57 317q26 77 37 104.5t39 74.5q-48 10 -86 10q-43 0 -73 -11.5t-64 -45.5q-52 -52 -68.5 -112t-54.5 -278l-13 -71l-4 -33q-21 -178 -47.5 -267.5t-79.5 -185.5q50 -12 72 -12q97 0 151.5 59t78 146t47.5 248zM858 981q109 149 283 149
q74 0 123 -34.5t49 -87.5q0 -17 -13 -30t-28 -13q-31 0 -31 28q0 29 33 29q12 0 12 8q0 7 -11 26t-40 36.5t-84 17.5q-80 0 -150 -51t-114 -141q-38 -76 -57 -179.5t-39 -273.5q-22 -183 -55.5 -293.5t-101.5 -170.5t-183 -60q-49 0 -109 16q-112 -147 -272 -147
q-70 0 -123 31.5t-53 86.5q0 22 12.5 37t30.5 15q17 0 27.5 -10.5t10.5 -22.5q0 -13 -9 -22t-19 -9q-31 0 -31 -4q0 -24 40.5 -52t98.5 -28q78 0 148 51.5t114 141.5q23 46 43 122.5t29.5 142.5t22.5 183q11 112 28 198.5t51.5 161.5t95 119.5t154.5 44.5q69 0 117 -16z" />
    <glyph glyph-name="bullet" unicode="&#x2022;" horiz-adv-x="469" 
d="M274 731q41 0 77.5 -21t57.5 -57t21 -78q0 -41 -21 -77t-57.5 -57t-77.5 -21t-77 21t-57 57t-21 77q0 42 21 78t57 57t77 21z" />
    <glyph glyph-name="paragraph" unicode="&#xb6;" horiz-adv-x="1087" 
d="M784 1071v-1481h-41v1481h-178v-1481h-43v885q-405 0 -405 322q0 140 98 228.5t283 88.5h420v-43h-134z" />
    <glyph glyph-name="germandbls" unicode="&#xdf;" horiz-adv-x="897" 
d="M750 559q-10 16 -35 26.5t-45 10.5q-41 0 -41 -25q0 -22 55 -22q44 0 66 10zM-14 242v16l155.5 123.5l160.5 129l129.5 108.5t96.5 86l204.5 191.5t119.5 89.5t104 32q68 0 91.5 -35.5t23.5 -101.5q0 -111 -79 -200.5t-214 -133.5q23 -50 23 -96q0 -108 -79 -204.5
t-193 -153t-203 -56.5q-101 0 -101 90q0 77 90 150t203 104l4 -12q-127 -46 -189.5 -98t-76.5 -87t-14 -57q0 -31 21.5 -51.5t58.5 -20.5q60 0 136.5 46t148.5 119t117.5 151.5t45.5 136.5q0 14 -8 37q-48 -10 -70 -10q-78 0 -78 40q0 35 54 35q25 0 55.5 -14.5t44.5 -32.5
q62 26 126 90.5t104 141.5t40 133q0 76 -69 76q-41 0 -87 -30.5t-83.5 -68t-77.5 -82.5l-223 -248.5l-260.5 -293l-312.5 -352l-302 -339.5h-84l895 1006z" />
    <glyph glyph-name="registered" unicode="&#xae;" horiz-adv-x="854" 
d="M308 983h209q74 0 117.5 -34.5t43.5 -88.5q0 -86 -121 -121l115 -161q32 -48 66 -48v-18h-101l-159 221h-41v-170q0 -33 63 -33v-18h-199v18q39 0 47.5 15t8.5 59v285q0 46 -7.5 60t-41.5 14v20zM437 950v-194q59 0 107 18t48 80q0 42 -30 73t-80 31q-21 0 -45 -8z
M496 1130q102 0 191.5 -51t141.5 -139.5t52 -194.5q0 -104 -51.5 -192.5t-139.5 -140.5t-194 -52q-77 0 -148 30t-124 83t-83 124t-30 148q0 107 52 195t140 139t193 51zM496 1098q-96 0 -176.5 -46.5t-128.5 -129t-48 -177.5q0 -96 47.5 -176.5t128.5 -128t177 -47.5
t176.5 47.5t128 128t47.5 176.5q0 95 -48 177.5t-128.5 129t-175.5 46.5z" />
    <glyph glyph-name="copyright" unicode="&#xa9;" horiz-adv-x="854" 
d="M686 993l10 -151h-20q-40 127 -164 127q-78 0 -127 -55t-49 -156q0 -75 32.5 -150.5t147.5 -75.5q106 0 170 89l21 -11q-77 -108 -209 -108q-111 0 -181.5 70.5t-70.5 168.5q0 68 33.5 125.5t95 92t143.5 34.5q25 0 107 -22q4 0 7 -0.5t7 -1.5q11 0 16 6t11 18h20z
M496 1130q102 0 191.5 -51t141.5 -139.5t52 -194.5q0 -104 -51.5 -192.5t-139.5 -140.5t-194 -52q-77 0 -148 30t-124 83t-83 124t-30 148q0 107 52 195t140 139t193 51zM496 1098q-96 0 -176.5 -46.5t-128.5 -129t-48 -177.5q0 -96 47.5 -176.5t128.5 -128t177 -47.5
t176.5 47.5t128 128t47.5 176.5q0 95 -48 177.5t-128.5 129t-175.5 46.5z" />
    <glyph glyph-name="trademark" unicode="&#x2122;" horiz-adv-x="1174" 
d="M29 1114h385l10 -96h-12q-8 36 -28.5 56t-82.5 20h-41v-316q0 -45 11.5 -61.5t45.5 -16.5v-14h-190v14q32 0 43.5 17.5t11.5 60.5v316h-43q-56 0 -77 -19.5t-29 -56.5h-15zM621 1114l153 -319l148 319h141v-14q-41 0 -51.5 -15.5t-10.5 -64.5v-242q0 -46 11 -62t51 -16
v-14h-205v14q45 0 55.5 17.5t10.5 60.5v289l-176 -381h-11l-178 375v-283q0 -47 12 -62.5t58 -15.5v-14h-154v14q40 0 51 16t11 62v242q0 48 -9 64t-53 16v14h146z" />
    <glyph glyph-name="acute" unicode="&#xb4;" horiz-adv-x="682" 
d="M518 602h-26q108 75 170 180h108q-80 -86 -252 -180z" />
    <glyph glyph-name="dieresis" unicode="&#xa8;" horiz-adv-x="682" 
d="M664 707q32 0 32 -41q0 -25 -13.5 -44.5t-33.5 -19.5q-14 0 -23.5 11.5t-9.5 29.5q0 24 16 44t32 20zM504 707q33 0 33 -41q0 -26 -13.5 -45t-34.5 -19q-14 0 -23 12t-9 29q0 24 15 44t32 20z" />
    <glyph glyph-name="notequal" unicode="&#x2260;" 
d="M117 160v43h267l57 234h-326v43h336l41 168h49l-41 -167h258v-44h-269l-56 -234h325v-44h-336l-34 -141h-49l35 142h-257z" />
    <glyph glyph-name="AE" unicode="&#xc6;" horiz-adv-x="1067" 
d="M1208 844q56 16 90.5 58t34.5 91q0 37 -23.5 65.5t-66.5 43t-104 14.5q-108 0 -219 -42.5t-200.5 -103.5t-148.5 -118q-114 -114 -218 -246t-171 -258t-67 -215q0 -63 40 -99t111 -36t183 35q-72 65 -72 172q0 85 52 169.5t147.5 151.5t226.5 107q-4 48 -4 49
q0 91 50.5 170t124.5 124.5t138 45.5q52 0 77 -26t28 -85l-3 -24.5t-2.5 -20t-3.5 -22.5zM1057 817l2 12q73 -7 129 7q10 39 12 77q-3 88 -72 88q-52 0 -124 -58.5t-124.5 -144t-56.5 -161.5q34 9 69 3.5t58 -24t23 -47.5q0 -25 -17 -41t-45 -16q-37 0 -63 25t-43 77
q-69 -27 -135.5 -79.5t-120 -119.5t-84.5 -138.5t-31 -133.5q0 -60 37 -100q84 34 162.5 85t161.5 134q52 52 127 141.5t148 199.5t112 218q-69 -13 -125 -4zM823 623q20 -97 92 -97q17 0 30 11.5t13 27.5q0 41 -45 56t-90 2zM1079 283v-17q-288 -282 -483 -282
q-72 0 -129 36q-121 -36 -203 -36q-98 0 -151.5 54.5t-53.5 147.5q0 105 97 266.5t256 317.5t350 258t377 102q103 0 157 -35t54 -104q0 -116 -148 -166q-57 -155 -200.5 -346.5t-272.5 -298.5q-127 -103 -240 -149q49 -33 105 -33q110 0 226 77.5t259 207.5z" />
    <glyph glyph-name="Oslash" unicode="&#xd8;" horiz-adv-x="897" 
d="M1104 920l176 131q-48 65 -162 65q-131 0 -294 -86t-317.5 -229.5t-267.5 -312t-155 -328.5l1006 749q-7 50 -26.5 78.5t-68.5 28.5q-59 0 -135 -31.5t-156.5 -93t-149 -149.5t-112.5 -197l-16 -2q45 117 118.5 209.5t158.5 155t161.5 92.5t126.5 30q95 0 113 -110z
M1092 891l-1012 -752q-1 -69 36 -106t97 -37q126 0 280.5 104t295.5 261.5t226.5 307t76.5 222.5zM4 98l47 35q-4 25 -4 60q0 107 102.5 267.5t267.5 314.5t354.5 254.5t358.5 100.5q115 0 162 -69l21 16l8 -12l-21 -16q13 -22 13 -58q0 -63 -43.5 -109.5t-126.5 -62.5v12
q76 18 115.5 63t39.5 97q0 27 -8 47l-184 -135q13 -80 -73.5 -235.5t-228.5 -313t-300.5 -264t-282.5 -106.5q-69 0 -108.5 30.5t-57.5 100.5l-43 -29z" />
    <glyph glyph-name="infinity" unicode="&#x221e;" horiz-adv-x="1460" 
d="M738 608l110.5 97t72 53t81.5 43q72 32 143 27.5t131 -41t97 -93.5t43 -123q8 -78 -29.5 -154.5t-110 -123t-161.5 -37.5q-70 7 -134 34.5t-109 61t-87.5 76t-46.5 45.5l-56.5 -56t-76.5 -65.5t-108 -61t-136 -34.5q-89 -9 -161.5 37.5t-110 123t-29.5 154.5q7 67 44 124
t97 93t131 40.5t142 -27.5q45 -20 81.5 -43t72 -53zM671 541q-88 75 -141.5 112t-102.5 54q-61 22 -110.5 12.5t-84.5 -40.5t-52 -71.5t-17 -77.5q1 -56 37 -101.5t91 -64.5t109 -6q81 19 124 50.5t147 132.5zM806 541q68 -67 105 -99.5t73 -51.5t92 -32q55 -13 110 6
t91 64.5t37 101.5q2 49 -29.5 102.5t-92 78t-143.5 -3.5q-50 -18 -103 -55.5t-140 -110.5z" />
    <glyph glyph-name="plusminus" unicode="&#xb1;" 
d="M117 43h641v-43h-641v43zM117 461h299v299h43v-299h299v-43h-299v-299h-43v299h-299v43z" />
    <glyph glyph-name="lessequal" unicode="&#x2264;" 
d="M758 199l-641 272v39l641 272v-47l-586 -243l586 -246v-47zM117 36h641v-43h-641v43z" />
    <glyph glyph-name="greaterequal" unicode="&#x2265;" 
d="M116 199v47l586 246l-586 243v47l641 -272v-39zM757 36v-43h-641v43h641z" />
    <glyph glyph-name="yen" unicode="&#xa5;" horiz-adv-x="918" 
d="M616 625l-45 -45h322l403 450h88l-399 -450h229l-8 -15h-233l-148 -166q-196 -220 -332.5 -317.5t-293.5 -97.5q-86 0 -140.5 37.5t-54.5 97.5q0 31 19 54.5t49 23.5q41 0 41 -33q0 -35 -31 -35q-13 0 -24.5 9.5t-10.5 27.5q-29 -14 -29 -43q0 -53 51 -89t128 -36
q105 0 194.5 49.5t174 136t194.5 222.5q28 34 65 86l-55 -52q-76 -71 -170.5 -125.5t-171.5 -54.5q-78 0 -78 70q0 48 26.5 101t90.5 134h-238l9 15h239l103 108q124 130 168.5 196t44.5 124q0 50 -39 79t-101 29q-106 0 -213 -50t-176 -127t-69 -153q0 -35 24.5 -57
t65.5 -22q100 0 219.5 77t175.5 209l14 -2q-38 -90 -107.5 -158.5t-150 -104.5t-153.5 -36q-47 0 -75 25.5t-28 68.5q0 79 70 159t179 132.5t218 52.5q77 0 121.5 -42t44.5 -115q0 -80 -43.5 -159t-153.5 -189zM881 565h-324l-42.5 -44.5t-73 -81.5t-55 -73t-19.5 -49
q0 -20 15.5 -31.5t41.5 -11.5q100 0 218 85t239 206z" />
    <glyph glyph-name="mu" unicode="&#xb5;" horiz-adv-x="598" 
d="M-518 -432l506 602q29 48 102 127l24 28l21 25l-2 2q-80 -54 -143 -108v14q65 63 182 133h84l-223 -254q-56 -64 -56 -74q0 -12 19 -12q48 0 178.5 98.5t276.5 241.5h79l-262 -299q-12 -15 -12 -31q0 -12 16 -12q20 0 58 21q33 16 109.5 71.5t142.5 112.5q4 4 7.5 7
t6.5 5v-16l-31 -25q-97 -82 -175 -134t-122 -52q-37 0 -37 35q0 57 127 209l19 22l-37 -33q-261 -235 -346 -235q-25 0 -25 12l-399 -481h-88z" />
    <glyph glyph-name="partialdiff" unicode="&#x2202;" horiz-adv-x="1012" 
d="M220 1366l-80 102q76 34 177 52t194 -4q102 -24 188.5 -89t155.5 -186q42 -73 64 -164t28 -160.5t6 -111.5q0 -47 -10 -143t-34.5 -205.5t-61.5 -188.5q-48 -102 -91.5 -160t-121.5 -102q-102 -56 -208.5 -48.5t-191.5 65.5q-45 31 -80 70.5t-60.5 96.5t-31.5 129
q-9 111 27 204t86 155q58 71 128 109.5t163 35.5q88 -3 147 -31t160 -108q18 99 22 238q3 65 -19.5 168.5t-45.5 156.5q-24 59 -84.5 117.5t-144.5 65.5q-56 5 -89.5 3t-56.5 -9t-64 -26zM757 612q-59 67 -101 99.5t-121 31.5q-117 -3 -196 -110q-41 -58 -62.5 -110.5
t-31 -107t-9.5 -112.5q0 -74 17.5 -144.5t77.5 -111.5q44 -28 83.5 -29t86.5 19q103 45 165 190q36 88 57.5 186.5t33.5 198.5z" />
    <glyph glyph-name="summation" unicode="&#x2211;" horiz-adv-x="1460" 
d="M1264 1526l12 -326h-41q-32 102 -50.5 139t-79 66t-183.5 29h-539l559 -734l-602 -694h760q83 0 128 19.5t77 66t71 146.5h47q-45 -185 -56 -245t-32 -214l-80 14.5t-77 7.5h-1031q-14 0 -36.5 -1.5l-45 -3t-36.5 -1.5l714 815l-710 930q32 -2 105 -8t108 -6h1018z" />
    <glyph glyph-name="product" unicode="&#x220f;" horiz-adv-x="1686" 
d="M1446 1288v-1282q0 -69 23.5 -105t67 -48.5t108.5 -12.5v-47h-627v47q100 0 148 33t48 133v1419h-733v-1419q0 -69 23.5 -105t67 -48.5t108.5 -12.5v-47h-629v47q102 0 150.5 33t48.5 133v1282q0 203 -195 203v47h1583v-47q-192 0 -192 -203z" />
    <glyph glyph-name="pi" unicode="&#x3c0;" horiz-adv-x="1124" 
d="M686 821h-231q-17 -201 -33 -329.5t-31 -221t-31 -168.5q-13 -59 -38 -92.5t-74 -46.5q-40 -10 -79.5 16t-47.5 62q-6 27 -3 45.5t11 34.5t18 29l21 26q3 4 34.5 41t47.5 67.5t20 67.5l60 469h-97q-41 0 -78 -19.5t-57 -45.5l-43 -64h-35l35 93.5t58 105.5q29 43 78 74.5
t114 31.5h764v-176h-258q-25 -239 -25 -481q0 -44 15 -86t37 -64q28 -26 68.5 -33.5t82.5 25.5q23 18 33.5 41t13.5 44l6 42h43q-1 -83 -25 -149.5t-57 -107t-65 -58.5q-36 -22 -84 -26.5t-88 22.5q-66 48 -100 151q-19 60 -21.5 158.5t6.5 192.5z" />
    <glyph glyph-name="integral" unicode="&#x222b;" horiz-adv-x="561" 
d="M395 999l-2 -442q-2 -364 -70 -600q-21 -76 -59 -125q-17 -22 -75.5 -42t-104.5 1q-22 11 -41.5 36t-26.5 44q-12 35 0 65t49 48q34 17 60.5 5t56.5 -46q29 -30 48.5 -4t27.5 82.5t6 130.5q-2 76 -4 141t-4 119.5t-3 163t-1 219.5v295q0 90 2 192t7.5 181.5t16 139.5
t27.5 121q10 34 37.5 75.5t54.5 58.5q26 16 56.5 17.5t59.5 -8.5t44 -20q27 -17 40.5 -60t-13.5 -77q-15 -18 -43 -29.5t-56 -8.5t-47 24q-22 22 -40.5 24t-29 -11.5t-12.5 -33.5q-1 -26 2 -62.5l14 -173t17 -243t6 -197.5z" />
    <glyph glyph-name="ordfeminine" unicode="&#xaa;" horiz-adv-x="406" 
d="M313 618q-20 -2 -52 -22t-61.5 -47t-53 -60.5t-23.5 -52.5q0 -9 7 -18.5t17 -9.5q23 0 70.5 39t87 84.5t39.5 60.5q0 11 -10 18.5t-21 7.5zM532 549l-26 -21q-93 -70 -143.5 -102.5t-77.5 -32.5q-43 0 -13 80q-35 -32 -55.5 -48t-38 -24t-37.5 -8q-21 0 -37 19t-16 47
q0 40 30 80t82 67t111 27q29 0 38 -11.5t9 -35.5l35 43l76 4l-139 -164l-14 -16.5t-14 -18t-9 -15.5t2 -9q7 -1 40.5 17t83.5 53t109 83z" />
    <glyph glyph-name="ordmasculine" unicode="&#xba;" horiz-adv-x="299" 
d="M309 612q-36 0 -81 -35t-82 -79.5t-37 -57.5q0 -18 6 -28.5t26 -10.5q36 0 82.5 33.5t81.5 77t35 68.5q0 32 -31 32zM416 547l4 -8q-39 -33 -60 -41t-51 -6q-29 -37 -76 -71t-98 -34q-18 0 -35.5 16.5t-17.5 42.5q0 41 31.5 83t83 70t108.5 28q49 0 49 -43q0 -30 -32 -82
q26 1 42 9.5t52 35.5z" />
    <glyph glyph-name="Omega" unicode="&#x2126;" horiz-adv-x="1573" 
d="M641 311l33 -311h-604v332h30q20 -78 45.5 -101.5t90.5 -23.5h323l-4 57q-89 27 -145.5 53.5t-106.5 68.5t-90 101q-69 103 -90.5 212.5t-4 212t61.5 180.5q52 95 106.5 140t127.5 87q69 41 169.5 65.5t204.5 24.5q105 0 205.5 -24.5t169.5 -65.5q73 -42 127 -86
t107 -141q44 -78 61.5 -180.5t-4 -212t-90.5 -212.5q-60 -87 -137.5 -135.5t-204.5 -87.5l-4 -57h323q65 0 91.5 24.5t44.5 100.5h30v-332h-604l33 311l55.5 24.5t61.5 35.5t64 65.5t61 108.5q37 86 47.5 215.5t-22.5 261t-118 215.5q-106 106 -297 106t-296 -106
q-85 -84 -118 -215.5t-22.5 -261t47.5 -215.5q28 -65 60.5 -108t64.5 -66t61 -36z" />
    <glyph glyph-name="ae" unicode="&#xe6;" horiz-adv-x="705" 
d="M360 238q99 0 176.5 38.5t77.5 81.5q0 12 -9.5 19.5t-22.5 7.5q-47 0 -109 -41t-113 -106zM293 385q-59 0 -133 -55t-129.5 -127.5t-55.5 -110.5q0 -15 12 -28t27 -13q53 0 128.5 59.5t134.5 134.5t59 105q0 15 -11.5 25t-31.5 10zM719 283v-17q-239 -229 -397 -229
q-117 0 -84 137q-76 -76 -128.5 -106.5t-101.5 -30.5q-34 0 -52.5 27t-18.5 65q0 67 51.5 130t134 101.5t164.5 38.5q41 0 58 -19.5t3 -57.5l60 69h84l-27 -33q78 41 117 41q21 0 37 -13.5t16 -33.5q0 -32 -34.5 -62t-98.5 -48.5t-158 -20.5q-78 -89 -78 -133q0 -37 58 -37
q155 0 395 232z" />
    <glyph glyph-name="oslash" unicode="&#xf8;" horiz-adv-x="426" 
d="M-37 76l359 278q-1 12 -12 21.5t-27 9.5q-35 0 -115.5 -56t-142.5 -128t-62 -125zM328 342l-357 -279q23 -12 43 -12q43 0 119.5 50t136 119t58.5 122zM-100 27l47 36q-19 32 -19 62q0 64 59.5 128t144 105t149.5 41q43 0 57 -34l43 32l6 -8l-45 -37q9 -72 -59 -151
q32 -14 67.5 7t87.5 75v-17q-90 -117 -168 -80q-155 -149 -262 -149q-30 0 -51 16l-45 -37z" />
    <glyph glyph-name="questiondown" unicode="&#xbf;" horiz-adv-x="606" 
d="M57 8l-10 6q48 66 106.5 106t106.5 40q22 0 36.5 -13.5t14.5 -35.5q0 -41 -38.5 -85.5t-96 -72t-108.5 -27.5q-86 0 -86 99q0 61 27 105t66.5 74.5t100.5 65.5q114 67 170.5 112.5t116.5 117.5h16q-38 -50 -82 -91t-135 -112q-115 -92 -186.5 -166.5t-71.5 -138.5
q0 -51 68 -51q48 0 100.5 29t88.5 70.5t36 70.5q0 15 -10.5 24.5t-26.5 9.5q-43 0 -99.5 -39t-103.5 -98zM563 590q0 -15 -16 -30t-27 -15q-14 0 -14 16q0 11 13 27t28 16q16 0 16 -14z" />
    <glyph glyph-name="exclamdown" unicode="&#xa1;" horiz-adv-x="330" 
d="M365 557q0 15 14 28t27 13q7 0 10.5 -4.5t3.5 -13.5q0 -15 -13 -26t-26 -11q-16 0 -16 14zM190 356l132 144h24l-141 -158q-119 -135 -252 -309q-59 -75 -75 -91t-32 -16q-26 0 -26 23q0 15 13 31.5t79 82.5l199.5 208.5z" />
    <glyph glyph-name="logicalnot" unicode="&#xac;" 
d="M117 481h641v-336h-43v293h-598v43z" />
    <glyph glyph-name="radical" unicode="&#x221a;" horiz-adv-x="1124" 
d="M53 854l-33 68l299 147l404 -825l260 1634l72 -10l-307 -1946l-498 1028z" />
    <glyph glyph-name="florin" unicode="&#x192;" horiz-adv-x="788" 
d="M428 379l-190 -242q-92 -117 -193.5 -205t-192.5 -130t-165 -42q-29 0 -53.5 15t-24.5 49q0 23 11.5 38t29.5 15q12 0 21.5 -8.5t9.5 -24.5q0 -17 -10 -28t-25 -11q-12 0 -21 9q0 -20 23 -29.5t45 -9.5q111 0 239.5 117t233.5 253l182 234h-260l10 14h262l115 133.5
t159.5 163t191.5 134t206 55.5q28 0 55 -10.5t27 -39.5q0 -34 -29 -34q-24 0 -24 22q0 4 6 18t6 15q0 14 -43 14q-83 0 -172.5 -52.5t-163 -125t-135 -146.5l-121.5 -147h258l-12 -14h-256z" />
    <glyph glyph-name="approxequal" unicode="&#x2248;" 
d="M749 479l5 -46q-90 -110 -162 -110q-36 0 -67 16q-25 13 -131 82q-94 62 -124 63q-31 1 -66.5 -24t-84.5 -82l-8 48q93 98 162 97q48 -1 128 -57l74 -49t47 -32q40 -22 63 -22q77 0 164 116zM752 228l5 -46q-90 -110 -162 -110q-36 0 -67 16q-7 4 -129 85q-86 57 -123 58
q-31 1 -67.5 -22t-86.5 -82l-8 48q93 98 162 97q43 -1 127 -59q24 -18 49 -34l47 -29t26 -17q38 -21 63 -21q77 0 164 116z" />
    <glyph glyph-name="Delta" unicode="&#x2206;" horiz-adv-x="1253" 
d="M668 1409l577 -1409h-1233zM594 1059l-447 -959h844z" />
    <glyph glyph-name="guillemotleft" unicode="&#xab;" horiz-adv-x="575" 
d="M500 369l10 -13q-52 -55 -174 -125q13 -22 13 -60t-19 -77l-15 4q16 43 7 71.5t-39 74.5q110 28 217 125zM403 432l11 -12q-107 -96 -269 -158q17 -29 30.5 -78.5t-11.5 -109.5l-14 4q2 61 -15.5 106.5t-83.5 83.5q183 45 352 164z" />
    <glyph glyph-name="guillemotright" unicode="&#xbb;" horiz-adv-x="575" 
d="M61 137l-10 13q30 32 68.5 59.5t105.5 64.5q-12 21 -12.5 60t18.5 78l15 -4q-11 -29 -9 -53t9.5 -38.5t32.5 -54.5q-110 -28 -218 -125zM158 74l-11 12q107 96 269 158l-16 36t-17 68.5t14 83.5l15 -4q-2 -60 15 -105t83 -85q-183 -45 -352 -164z" />
    <glyph glyph-name="ellipsis" unicode="&#x2026;" horiz-adv-x="2048" 
d="M1712 98q27 0 27 -24q0 -14 -11.5 -24.5t-25.5 -10.5q-9 0 -17 7t-8 17q0 11 11 23t24 12zM1028 98q12 0 19.5 -6t7.5 -16q0 -15 -12 -26t-25 -11q-25 0 -25 22q0 13 11 25t24 12zM346 98q10 0 17.5 -6t7.5 -16q0 -14 -12.5 -25.5t-24.5 -11.5q-25 0 -25 24
q0 12 11.5 23.5t25.5 11.5z" />
    <glyph glyph-name="nonbreakingspace" unicode="&#xa0;" horiz-adv-x="320" 
 />
    <glyph glyph-name="Agrave" unicode="&#xc0;" horiz-adv-x="1386" 
d="M1022 449q-19 104 -89 189t-173 85q-74 0 -113.5 -41.5t-52 -87.5t-12.5 -72q0 -95 33 -166t112 -153q106 82 295 246zM1036 461l324 280.5t232.5 184.5t195 126t164.5 62l10 -8l-29 -27q-132 -124 -235.5 -231l-221 -239.5t-219 -258.5l-213.5 -276q47 0 110 29.5
t127.5 78t117.5 101.5v-17q-60 -64 -165.5 -135.5t-197.5 -71.5l-41 -59h-92l53 70q-73 14 -121.5 39t-107.5 73q-87 -56 -161 -97.5t-157 -71t-165 -29.5q-83 0 -129.5 31t-46.5 85q0 37 23 65t56 28q21 0 32 -11t11 -22q0 -31 -38 -31q-31 0 -37 33q-31 -26 -31 -66
q0 -46 41 -72t117 -26q78 0 160.5 29t156.5 71t154 95q-78 86 -112 156t-34 157q0 92 48 161.5t143 69.5q105 0 176.5 -76.5t101.5 -199.5zM1565 743l26 29q42 45 163.5 161.5l162.5 153.5q-78 -15 -202 -95t-250 -181.5t-234.5 -197.5l-188.5 -167q12 -91 2.5 -163
t-43.5 -156q39 49 97 113l96 104.5l122.5 131zM1026 434q-41 -38 -129 -112l-158 -129q61 -49 111 -74.5t117 -36.5q44 94 57 177t2 175zM1978 1210h-12q-71 91 -94 182h92q-5 -109 14 -182z" />
    <glyph glyph-name="Atilde" unicode="&#xc3;" horiz-adv-x="1386" 
d="M1022 449q-19 104 -89 189t-173 85q-74 0 -113.5 -41.5t-52 -87.5t-12.5 -72q0 -95 33 -166t112 -153q106 82 295 246zM1036 461l324 280.5t232.5 184.5t195 126t164.5 62l10 -8l-29 -27q-132 -124 -235.5 -231l-221 -239.5t-219 -258.5l-213.5 -276q47 0 110 29.5
t127.5 78t117.5 101.5v-17q-60 -64 -165.5 -135.5t-197.5 -71.5l-41 -59h-92l53 70q-73 14 -121.5 39t-107.5 73q-87 -56 -161 -97.5t-157 -71t-165 -29.5q-83 0 -129.5 31t-46.5 85q0 37 23 65t56 28q21 0 32 -11t11 -22q0 -31 -38 -31q-31 0 -37 33q-31 -26 -31 -66
q0 -46 41 -72t117 -26q78 0 160.5 29t156.5 71t154 95q-78 86 -112 156t-34 157q0 92 48 161.5t143 69.5q105 0 176.5 -76.5t101.5 -199.5zM1565 743l26 29q42 45 163.5 161.5l162.5 153.5q-78 -15 -202 -95t-250 -181.5t-234.5 -197.5l-188.5 -167q12 -91 2.5 -163
t-43.5 -156q39 49 97 113l96 104.5l122.5 131zM1026 434q-41 -38 -129 -112l-158 -129q61 -49 111 -74.5t117 -36.5q44 94 57 177t2 175zM1639 1210h-23q45 51 84 74q46 22 92 22q40 0 105 -26q55 -23 86 -23q44 0 92 47h20q-47 -53 -83 -73.5t-85 -20.5q-38 0 -110 27
q-47 19 -78 22q-34 0 -49.5 -7.5t-50.5 -41.5z" />
    <glyph glyph-name="Otilde" unicode="&#xd5;" horiz-adv-x="897" 
d="M444 549h-12q48 120 123 214t156.5 153.5t157 88.5t126.5 29q50 0 79.5 -32.5t29.5 -88.5q0 -97 -86 -254t-224 -314t-291 -259t-282 -102q-77 0 -125.5 46t-48.5 138q0 104 52 215.5t157 232t256 242.5q170 135 322.5 203.5t289.5 68.5q86 0 135.5 -35.5t49.5 -97.5
q0 -69 -44 -109.5t-128 -62.5l2 15q78 18 116.5 60.5t38.5 96.5q0 57 -47 88t-129 31q-148 0 -306 -77.5t-296 -219.5q-81 -83 -157 -179t-139 -194.5t-100.5 -181.5t-37.5 -139q0 -52 35.5 -89.5t97.5 -37.5q124 0 274.5 100.5t289 255.5t225 309.5t86.5 249.5
q0 50 -24.5 79.5t-68.5 29.5q-51 0 -129 -31.5t-156 -90t-151 -149.5t-117 -202zM891 1210h-23q45 51 84 74q46 22 92 22q40 0 105 -26q55 -23 86 -23q44 0 92 47h20q-47 -53 -83 -73.5t-85 -20.5q-38 0 -110 27q-47 19 -78 22q-34 0 -49.5 -7.5t-50.5 -41.5z" />
    <glyph glyph-name="OE" unicode="&#x152;" horiz-adv-x="1556" 
d="M950 121l-14 6q57 137 136 209.5t148.5 95.5t118.5 23q61 0 96 -30t35 -83q0 -72 -62.5 -157t-172 -143t-242.5 -58q-76 0 -127 24.5t-77.5 73t-26.5 119.5q0 57 22 121q-175 -188 -304.5 -263t-252.5 -75q-52 0 -90.5 22t-59 64.5t-20.5 101.5q0 95 42.5 191t133.5 208
q98 118 242 245.5t320 220.5t340 93q69 0 109.5 -20t57.5 -51.5t17 -65.5q0 -71 -47 -114t-129 -56l4 15q74 13 115 54.5t41 96.5q0 57 -39.5 92t-128.5 35q-74 0 -149 -19t-156 -60t-158 -98t-156 -136q-39 -39 -107 -119.5t-138.5 -180.5t-122.5 -205.5t-52 -180.5
q0 -56 34.5 -87.5t100.5 -31.5q109 0 236.5 80t242 199t196.5 239.5t104 192.5q-65 25 -94 68t-29 93q0 74 63 74q50 0 73.5 -41t23.5 -96q-4 -49 -15 -90q93 -19 154 -21q72 3 123 11q0 97 54 177.5t133 134t162 82.5t130 29q41 0 64.5 -20.5t23.5 -52.5q0 -44 -39.5 -97.5
t-112.5 -106t-172.5 -95t-216.5 -64.5l2 -26q55 7 101.5 -7t46.5 -67q0 -26 -17 -41.5t-45 -15.5q-76 0 -106 110q-98 -16 -164 -49t-129 -90q-97 -86 -151 -186t-54 -187q0 -65 49.5 -101t114.5 -36q103 0 190.5 35.5t150.5 89.5t97.5 112t34.5 101q0 47 -31 75.5t-82 28.5
q-106 0 -184.5 -54t-120.5 -115.5t-73 -123.5zM1339 649q19 -98 84 -98q47 0 47 45q0 38 -44 49.5t-87 3.5zM1311 664l-2 28q-61 -10 -123 -10q-93 0 -158 20q-33 -95 -106 -206q80 54 135.5 83t111.5 48.5t142 36.5zM1016 723q12 32 12 82q0 53 -19 89t-59 36
q-22 0 -35.5 -17.5t-13.5 -44.5q0 -93 115 -145zM1341 715q90 14 182.5 50t171 88t123 106t44.5 102q0 22 -22 38.5t-52 16.5q-61 0 -132.5 -35.5t-138.5 -97t-112.5 -130.5t-63.5 -138z" />
    <glyph glyph-name="oe" unicode="&#x153;" horiz-adv-x="725" 
d="M371 238q135 0 199.5 38t64.5 78q0 13 -11.5 22t-27.5 9q-90 0 -225 -147zM283 385q-51 0 -124 -59.5t-132.5 -136t-59.5 -101.5q0 -37 41 -37q62 0 134.5 56.5t126 129t53.5 103.5q0 17 -9.5 31t-29.5 14zM737 283v-17q-231 -229 -405 -229q-86 0 -86 94l2 25t2 24
q-131 -143 -244 -143q-80 0 -80 84q0 66 60 131t144.5 106t148.5 41q45 0 56 -32t-3 -68q50 43 117.5 71.5t136.5 28.5q32 0 50.5 -12.5t18.5 -32.5q0 -51 -77 -93t-226 -42q-76 -87 -76 -133q0 -15 16.5 -25t41.5 -10q52 0 110 21.5t132.5 73.5t160.5 137z" />
    <glyph glyph-name="endash" unicode="&#x2013;" horiz-adv-x="1024" 
d="M-12 215v14h1048v-14h-1048z" />
    <glyph glyph-name="emdash" unicode="&#x2014;" horiz-adv-x="2048" 
d="M-12 215v14h2072v-14h-2072z" />
    <glyph glyph-name="quotedblleft" unicode="&#x201c;" horiz-adv-x="469" 
d="M696 920l6 -11q-42 -21 -64 -41t-31 -36l-17 -29q-19 -19 -35 -19q-18 0 -18 21q0 26 42 52.5t117 62.5zM854 920l6 -11q-42 -21 -64 -41t-31 -36l-17 -29q-19 -19 -35 -19q-19 0 -19 21q0 26 43 53.5t117 61.5z" />
    <glyph glyph-name="quotedblright" unicode="&#x201d;" horiz-adv-x="469" 
d="M700 784l-6 11q40 20 63.5 41t32.5 36.5l17 28.5q19 19 35 19q9 0 13.5 -6.5t4.5 -14.5q0 -25 -39.5 -50.5t-120.5 -64.5zM543 784l-6 11q36 19 55.5 34t30 29t16 26t10.5 17q20 19 35 19q9 0 13.5 -6.5t4.5 -14.5q0 -25 -41.5 -51.5t-117.5 -63.5z" />
    <glyph glyph-name="quoteleft" unicode="&#x2018;" horiz-adv-x="338" 
d="M696 920l6 -11q-42 -21 -64 -41t-31 -36l-17 -29q-19 -19 -35 -19q-18 0 -18 21q0 26 42 52.5t117 62.5z" />
    <glyph glyph-name="quoteright" unicode="&#x2019;" horiz-adv-x="338" 
d="M543 784l-6 11q36 19 55.5 34t30 29t16 26t10.5 17q20 19 35 19q9 0 13.5 -6.5t4.5 -14.5q0 -25 -41.5 -51.5t-117.5 -63.5z" />
    <glyph glyph-name="divide" unicode="&#xf7;" 
d="M438 561q13 0 22 -9t9 -24q0 -30 -31 -30q-12 0 -22 10t-10 20q0 33 32 33zM117 342h641v-43h-641v43zM438 143q13 0 22 -8t9 -22q0 -33 -31 -33q-12 0 -22 10t-10 23t9.5 21.5t22.5 8.5z" />
    <glyph glyph-name="lozenge" unicode="&#x25ca;" 
d="M748 529l-329 507l-328 -507l328 -506zM388 1059h63l338 -530l-338 -529h-63l-338 529z" />
    <glyph glyph-name="ydieresis" unicode="&#xff;" horiz-adv-x="662" 
d="M141 -49q-210 -105 -355.5 -212t-145.5 -179q0 -18 12.5 -29.5t30.5 -11.5q35 0 79 24.5t98.5 76.5t127.5 138l84.5 103.5t68.5 89.5zM-12 242v16q80 69 131.5 105t89.5 36q31 0 31 -41q0 -87 -119 -192q-86 -76 -86 -100q0 -15 18 -15q37 0 128.5 61.5t190 143
t152.5 135.5h76l-321 -366q112 45 192.5 98.5t202.5 159.5v-17q-114 -105 -200 -161t-218 -105l-18 -20q-209 -234 -338 -355t-213 -121q-62 0 -62 58q0 42 56.5 105.5t175.5 141t303 162.5q98 126 254 297l-140 -108t-81 -58.5t-83.5 -48.5t-64.5 -16q-17 0 -28 11t-11 30
q0 33 13 63t41.5 60.5t76.5 66.5q86 64 86 99q0 18 -20 18q-34 0 -88 -41t-127 -102zM572 707q32 0 32 -41q0 -25 -13.5 -44.5t-33.5 -19.5q-14 0 -23.5 11.5t-9.5 29.5q0 24 16 44t32 20zM412 707q33 0 33 -41q0 -26 -13.5 -45t-34.5 -19q-14 0 -23 12t-9 29q0 24 15 44
t32 20z" />
    <glyph glyph-name="Ydieresis" unicode="&#x178;" horiz-adv-x="918" 
d="M741 993l15 -2q-15 -65 -78 -136.5t-153.5 -117t-180.5 -45.5q-38 0 -70 21.5t-32 72.5q0 77 69 158t176.5 133.5t212.5 52.5q174 0 174 -157q0 -49 -17.5 -97.5t-55 -101.5t-105.5 -127l-39 -43l-41 -41q-105 -109 -147.5 -161t-42.5 -80q0 -19 16 -33.5t45 -14.5
q75 0 160.5 47t159 112t119.5 118l434 481h86l-559 -633q-129 -146 -225 -233t-195.5 -134.5t-208.5 -47.5q-56 0 -100 16.5t-68 47.5t-24 71q0 36 18 57t51 21q37 0 37 -33q0 -31 -33 -31q-25 0 -35 35q-10 -3 -17 -18t-7 -31q0 -54 51 -87.5t127 -33.5q99 0 187.5 44
t162 115.5t146.5 164.5l133 170q-113 -127 -220 -179.5t-175 -52.5q-80 0 -80 70q0 58 47 139.5t217 251.5q97 97 137.5 163t40.5 122q0 50 -40 80t-103 30q-116 0 -222 -54.5t-169.5 -132.5t-63.5 -141q0 -38 25 -59.5t65 -21.5q92 0 176.5 44.5t144 114t74.5 127.5z
M1289 1315q32 0 32 -41q0 -25 -13.5 -44.5t-33.5 -19.5q-14 0 -23.5 11.5t-9.5 29.5q0 24 16 44t32 20zM1129 1315q33 0 33 -41q0 -26 -13.5 -45t-34.5 -19q-14 0 -23 12t-9 29q0 24 15 44t32 20z" />
    <glyph glyph-name="fraction" unicode="&#x2215;" horiz-adv-x="0" 
d="M-336 102l805 543l12 -14l-807 -543z" />
    <glyph glyph-name="currency" unicode="&#xa4;" horiz-adv-x="831" 
d="M588 522l76 76l28 -33l-74 -73q62 -83 62 -173q0 -61 -16.5 -96.5t-45.5 -72.5l74 -76l-28 -31l-76 74q-21 -15 -44 -28.5t-56 -23.5t-76 -10q-57 0 -87.5 14t-78.5 48l-76 -74l-31 31l74 76q-32 43 -47.5 78t-15.5 94q0 58 16.5 95t46.5 75l-74 73l31 33l74 -74
q42 30 78 46t94 16q59 0 96 -16.5t76 -47.5zM416 541q-57 0 -108.5 -29t-82 -79.5t-30.5 -110.5q0 -59 30 -110.5t80.5 -81.5t110.5 -30q92 0 155.5 65.5t63.5 156.5q0 59 -30 110t-81 80t-108 29z" />
    <glyph glyph-name="guilsinglleft" unicode="&#x2039;" horiz-adv-x="469" 
d="M158 74l-13 2q5 40 5 37q0 85 -95 155q103 26 183.5 63.5t167.5 100.5l8 -10q-50 -43 -84.5 -66t-84 -49t-102.5 -47q33 -44 33 -104q0 -41 -18 -82z" />
    <glyph glyph-name="guilsinglright" unicode="&#x203a;" horiz-adv-x="469" 
d="M49 74l-8 8q129 105 272 164q-34 52 -34 100q0 34 18 84l8 -4q-5 -48 11 -94.5t83 -91.5q-95 -25 -177.5 -64t-172.5 -102z" />
    <glyph glyph-name="fi" unicode="&#xf001;" horiz-adv-x="725" 
d="M109 348q12 10 61.5 35t87.5 39l104 123l233 265.5t155 144.5t135 59q51 0 51 -53q0 -58 -76 -145t-216 -185.5t-318 -188.5l-215 -262q39 -18 77 -18q57 0 112.5 36t115.5 85t147 104h88l-252 -287q-18 -22 -18 -39q0 -10 20 -10q51 0 132.5 61t203.5 171v-17
q-247 -231 -338 -231q-32 0 -32 39q0 94 165 266q9 10 17 18q-28 -16 -41.5 -26t-41 -32t-38.5 -30l-46 -36.5t-57.5 -40.5t-67 -33.5t-69.5 -12.5q-52 0 -90 23l-467 -571h-82l158 182q68 79 137 174t110 157.5l87 137.5q-4 27 -2 37q-13 -13 -22.5 -20.5t-28.5 -24.5v16
q30 30 51 45q9 35 27 60.5t30 25.5q13 0 14.5 -9t-1.5 -32zM369 494l-23 -27q248 128 412 271t164 223q0 18 -11.5 28t-29.5 10q-38 0 -97 -46.5t-131.5 -126l-141 -161.5zM55 242l17 -33q13 13 161 190q-60 -25 -131 -69q-23 -59 -47 -88zM733 598q27 0 27 -25
q0 -38 -35 -38q-11 0 -19 8t-8 18q0 17 10 27t25 10zM66 199l-19 30l-135 -206z" />
    <glyph glyph-name="fl" unicode="&#xf002;" horiz-adv-x="725" 
d="M-12 242v16q15 14 21 19l11.5 9.5t20.5 18.5l4 8q9 31 24.5 51.5t28.5 20.5q22 0 13 -39q55 35 141 66l130.5 152.5t200.5 226.5t168 155t138 64q21 0 36 -15t15 -39q0 -71 -98.5 -169.5t-240.5 -192.5t-275 -156l-211 -258q39 -18 78 -18q65 0 131 44t161 126
l166.5 142.5t124.5 119.5l285 313h84l-586 -651q-115 -129 -136.5 -156t-21.5 -37q0 -12 29 -12t126 77t181 155v-17q-80 -80 -181 -155.5t-140 -75.5q-16 0 -26.5 9.5t-10.5 25.5q0 31 20 69t56.5 85.5t90.5 109l122 139.5l-205 -180q-89 -75 -149.5 -110.5t-120.5 -35.5
q-38 0 -91 19l-471 -567h-77l153 178q63 75 149 191t187 274l-2 45l-37 -31zM350 465q126 63 261 155t225 183t90 151q0 41 -39 41q-40 0 -119 -66.5t-164 -159t-147.5 -168.5t-106.5 -136zM57 242l19 -31l54 62l99 116q-69 -27 -127 -65q-19 -49 -45 -82zM66 199l-17 26
l-135 -205z" />
    <glyph glyph-name="daggerdbl" unicode="&#x2021;" horiz-adv-x="1067" 
d="M946 715h-28q-24 0 -183.5 -13.5t-175.5 -13.5q-94 0 -94 29q0 18 41 31.5t106 13.5q34 0 146 -14q110 -17 205 -17q74 81 143 182q75 112 132 166t89 54q21 0 21 -17q0 -43 -154 -178q-118 -103 -207 -207q7 0 85.5 6t132 11t98 8.5t63.5 3.5q107 0 107 -25
q0 -22 -44.5 -34.5t-119.5 -12.5q-29 0 -71 4.5l-89 9.5q-90 13 -178 13l-441 -490q29 0 190 14.5t204 14.5q84 0 84 -29q0 -19 -46.5 -32t-119.5 -13q-60 0 -162 17q-100 16 -168 12q-39 -40 -67.5 -76.5t-82.5 -114.5q-51 -72 -87 -116.5t-66.5 -67t-61.5 -22.5
q-22 0 -22 14q0 24 48 73t114 109q161 154 200 201h-22q-33 0 -179.5 -14.5t-176.5 -14.5q-103 0 -103 25q0 24 39 36.5t109 12.5q32 0 176.5 -14.5t173.5 -14.5z" />
    <glyph glyph-name="periodcentered" unicode="&#x2219;" horiz-adv-x="641" 
d="M330 328q0 -13 -12 -24t-25 -11q-8 0 -16.5 7.5t-8.5 14.5q0 14 12.5 25.5t26.5 11.5q12 0 18.5 -6.5t4.5 -17.5z" />
    <glyph glyph-name="quotesinglbase" unicode="&#x201a;" horiz-adv-x="338" 
d="M-76 -43l-6 10q42 21 64 41t35 42.5t14 23.5q18 18 35 18q18 0 18 -20q0 -25 -39.5 -50.5t-120.5 -64.5z" />
    <glyph glyph-name="quotedblbase" unicode="&#x201e;" horiz-adv-x="469" 
d="M70 -43l-7 10q40 20 63.5 41t32.5 37l17 29q18 18 35 18q18 0 18 -20q0 -25 -41.5 -51.5t-117.5 -63.5zM-88 -43l-6 10q42 21 64 41t31 36.5t17 29.5q19 18 35 18q19 0 19 -20q0 -25 -39.5 -50.5t-120.5 -64.5z" />
    <glyph glyph-name="perthousand" unicode="&#x2030;" horiz-adv-x="1024" 
d="M567 729q-60 0 -178 -121q-57 -59 -83.5 -95t-26.5 -58q0 -29 38 -29q43 0 114 44.5t124 106t53 107.5q0 20 -11.5 32.5t-29.5 12.5zM-4 98l842 568q-38 -11 -80 -11q-84 0 -135 37q0 -48 -30.5 -99t-80.5 -92.5t-102.5 -65t-98.5 -23.5q-30 0 -48.5 21.5t-18.5 55.5
q0 49 35.5 97t88 83.5t104 54.5t87.5 19q32 0 68 -32q55 -41 131 -41q32 0 114 20l9 -12l-877 -592zM524 299q-35 0 -104.5 -53.5t-128 -120t-58.5 -96.5q0 -12 13 -21.5t28 -9.5q40 0 110.5 45t125.5 106.5t55 110.5q0 19 -11 29t-30 10zM516 313q32 0 50 -14t18 -39
q0 -63 -56 -127.5t-132.5 -106.5t-129.5 -42q-30 0 -47.5 20.5t-17.5 56.5q0 65 56 123.5t131.5 93.5t127.5 35zM901 299q-34 0 -105 -54.5t-128.5 -120t-57.5 -95.5q0 -12 13 -21.5t28 -9.5q40 0 110.5 45t125.5 106.5t55 110.5q0 19 -11 29t-30 10zM893 313q32 0 50 -14
t18 -39q0 -63 -56 -127.5t-132.5 -106.5t-129.5 -42q-30 0 -47.5 20.5t-17.5 56.5q0 65 56 123.5t131.5 93.5t127.5 35z" />
    <glyph glyph-name="Acircumflex" unicode="&#xc2;" horiz-adv-x="1386" 
d="M1022 449q-19 104 -89 189t-173 85q-74 0 -113.5 -41.5t-52 -87.5t-12.5 -72q0 -95 33 -166t112 -153q106 82 295 246zM1036 461l324 280.5t232.5 184.5t195 126t164.5 62l10 -8l-29 -27q-132 -124 -235.5 -231l-221 -239.5t-219 -258.5l-213.5 -276q47 0 110 29.5
t127.5 78t117.5 101.5v-17q-60 -64 -165.5 -135.5t-197.5 -71.5l-41 -59h-92l53 70q-73 14 -121.5 39t-107.5 73q-87 -56 -161 -97.5t-157 -71t-165 -29.5q-83 0 -129.5 31t-46.5 85q0 37 23 65t56 28q21 0 32 -11t11 -22q0 -31 -38 -31q-31 0 -37 33q-31 -26 -31 -66
q0 -46 41 -72t117 -26q78 0 160.5 29t156.5 71t154 95q-78 86 -112 156t-34 157q0 92 48 161.5t143 69.5q105 0 176.5 -76.5t101.5 -199.5zM1565 743l26 29q42 45 163.5 161.5l162.5 153.5q-78 -15 -202 -95t-250 -181.5t-234.5 -197.5l-188.5 -167q12 -91 2.5 -163
t-43.5 -156q39 49 97 113l96 104.5l122.5 131zM1026 434q-41 -38 -129 -112l-158 -129q61 -49 111 -74.5t117 -36.5q44 94 57 177t2 175zM1751 1210h-27q210 104 307 182h66q-43 -113 -45 -182h-10q-22 79 -31 141q-74 -60 -260 -141z" />
    <glyph glyph-name="Ecircumflex" unicode="&#xca;" horiz-adv-x="885" 
d="M641 717q137 21 258 84t193.5 137.5t72.5 126.5q0 24 -20 36.5t-58 12.5q-73 0 -164.5 -51t-168.5 -141.5t-113 -204.5zM637 653q7 -48 26.5 -73t63.5 -25q20 0 34.5 11.5t14.5 29.5q0 29 -37 45.5t-102 11.5zM616 664l-4 30q-88 -12 -145 -12q-129 0 -205 47.5
t-76 134.5q0 48 38 108t150 109t316 49v-14q-148 0 -248 -29t-150.5 -71.5t-68.5 -83.5t-18 -76q0 -59 61.5 -109.5t204.5 -50.5q44 0 139 15q2 72 21 120.5t67 104.5q75 83 188 138.5t206 55.5q42 0 65 -17t23 -46q0 -47 -46 -106.5t-122.5 -114t-171 -94t-201.5 -54.5
l-4 -32q69 8 112.5 -11t43.5 -59q0 -27 -20.5 -41t-47.5 -14q-81 0 -105 110q-130 -24 -227.5 -89.5t-156 -144.5t-87 -153.5t-28.5 -120.5q0 -145 170 -145q108 0 218.5 52t181.5 133.5t71 162.5q0 46 -31.5 72t-85.5 26q-68 0 -142 -35.5t-134 -99.5q-37 -37 -60 -75
t-53 -107h-14q35 82 58.5 119.5t61.5 77.5q135 133 287 133q59 0 93 -29t34 -80q0 -90 -73 -174.5t-186.5 -137t-219.5 -52.5q-117 0 -174.5 59t-57.5 164q0 78 44 153.5t119 136t177 104.5t213 63zM922 1210h-27q210 104 307 182h66q-43 -113 -45 -182h-10q-22 79 -31 141
q-74 -60 -260 -141z" />
    <glyph glyph-name="Aacute" unicode="&#xc1;" horiz-adv-x="1386" 
d="M1022 449q-19 104 -89 189t-173 85q-74 0 -113.5 -41.5t-52 -87.5t-12.5 -72q0 -95 33 -166t112 -153q106 82 295 246zM1036 461l324 280.5t232.5 184.5t195 126t164.5 62l10 -8l-29 -27q-132 -124 -235.5 -231l-221 -239.5t-219 -258.5l-213.5 -276q47 0 110 29.5
t127.5 78t117.5 101.5v-17q-60 -64 -165.5 -135.5t-197.5 -71.5l-41 -59h-92l53 70q-73 14 -121.5 39t-107.5 73q-87 -56 -161 -97.5t-157 -71t-165 -29.5q-83 0 -129.5 31t-46.5 85q0 37 23 65t56 28q21 0 32 -11t11 -22q0 -31 -38 -31q-31 0 -37 33q-31 -26 -31 -66
q0 -46 41 -72t117 -26q78 0 160.5 29t156.5 71t154 95q-78 86 -112 156t-34 157q0 92 48 161.5t143 69.5q105 0 176.5 -76.5t101.5 -199.5zM1565 743l26 29q42 45 163.5 161.5l162.5 153.5q-78 -15 -202 -95t-250 -181.5t-234.5 -197.5l-188.5 -167q12 -91 2.5 -163
t-43.5 -156q39 49 97 113l96 104.5l122.5 131zM1026 434q-41 -38 -129 -112l-158 -129q61 -49 111 -74.5t117 -36.5q44 94 57 177t2 175zM1890 1210h-26q108 75 170 180h108q-80 -86 -252 -180z" />
    <glyph glyph-name="Edieresis" unicode="&#xcb;" horiz-adv-x="885" 
d="M641 717q137 21 258 84t193.5 137.5t72.5 126.5q0 24 -20 36.5t-58 12.5q-73 0 -164.5 -51t-168.5 -141.5t-113 -204.5zM637 653q7 -48 26.5 -73t63.5 -25q20 0 34.5 11.5t14.5 29.5q0 29 -37 45.5t-102 11.5zM616 664l-4 30q-88 -12 -145 -12q-129 0 -205 47.5
t-76 134.5q0 48 38 108t150 109t316 49v-14q-148 0 -248 -29t-150.5 -71.5t-68.5 -83.5t-18 -76q0 -59 61.5 -109.5t204.5 -50.5q44 0 139 15q2 72 21 120.5t67 104.5q75 83 188 138.5t206 55.5q42 0 65 -17t23 -46q0 -47 -46 -106.5t-122.5 -114t-171 -94t-201.5 -54.5
l-4 -32q69 8 112.5 -11t43.5 -59q0 -27 -20.5 -41t-47.5 -14q-81 0 -105 110q-130 -24 -227.5 -89.5t-156 -144.5t-87 -153.5t-28.5 -120.5q0 -145 170 -145q108 0 218.5 52t181.5 133.5t71 162.5q0 46 -31.5 72t-85.5 26q-68 0 -142 -35.5t-134 -99.5q-37 -37 -60 -75
t-53 -107h-14q35 82 58.5 119.5t61.5 77.5q135 133 287 133q59 0 93 -29t34 -80q0 -90 -73 -174.5t-186.5 -137t-219.5 -52.5q-117 0 -174.5 59t-57.5 164q0 78 44 153.5t119 136t177 104.5t213 63zM1166 1315q32 0 32 -41q0 -25 -13.5 -44.5t-33.5 -19.5q-14 0 -23.5 11.5
t-9.5 29.5q0 24 16 44t32 20zM1006 1315q33 0 33 -41q0 -26 -13.5 -45t-34.5 -19q-14 0 -23 12t-9 29q0 24 15 44t32 20z" />
    <glyph glyph-name="Egrave" unicode="&#xc8;" horiz-adv-x="885" 
d="M641 717q137 21 258 84t193.5 137.5t72.5 126.5q0 24 -20 36.5t-58 12.5q-73 0 -164.5 -51t-168.5 -141.5t-113 -204.5zM637 653q7 -48 26.5 -73t63.5 -25q20 0 34.5 11.5t14.5 29.5q0 29 -37 45.5t-102 11.5zM616 664l-4 30q-88 -12 -145 -12q-129 0 -205 47.5
t-76 134.5q0 48 38 108t150 109t316 49v-14q-148 0 -248 -29t-150.5 -71.5t-68.5 -83.5t-18 -76q0 -59 61.5 -109.5t204.5 -50.5q44 0 139 15q2 72 21 120.5t67 104.5q75 83 188 138.5t206 55.5q42 0 65 -17t23 -46q0 -47 -46 -106.5t-122.5 -114t-171 -94t-201.5 -54.5
l-4 -32q69 8 112.5 -11t43.5 -59q0 -27 -20.5 -41t-47.5 -14q-81 0 -105 110q-130 -24 -227.5 -89.5t-156 -144.5t-87 -153.5t-28.5 -120.5q0 -145 170 -145q108 0 218.5 52t181.5 133.5t71 162.5q0 46 -31.5 72t-85.5 26q-68 0 -142 -35.5t-134 -99.5q-37 -37 -60 -75
t-53 -107h-14q35 82 58.5 119.5t61.5 77.5q135 133 287 133q59 0 93 -29t34 -80q0 -90 -73 -174.5t-186.5 -137t-219.5 -52.5q-117 0 -174.5 59t-57.5 164q0 78 44 153.5t119 136t177 104.5t213 63zM1179 1210h-12q-71 91 -94 182h92q-5 -109 14 -182z" />
    <glyph glyph-name="Iacute" unicode="&#xcd;" horiz-adv-x="961" 
d="M909 541q139 184 246 287.5t200.5 163.5t229.5 126q-202 -3 -353 -51t-245 -120t-138 -146t-44 -127q0 -113 104 -133zM242 -2q122 0 227 54t185.5 138.5t149 189l95.5 146.5q-64 15 -100.5 57.5t-36.5 106.5q0 53 39.5 126t136 145.5t266.5 120.5t422 48v-10
q-143 -62 -251.5 -140t-181 -157t-117.5 -149.5t-87 -147.5q241 3 289 283h14q-40 -299 -315 -299q-48 -96 -122 -188.5t-172.5 -170t-211 -122.5t-233.5 -45q-88 0 -144.5 35.5t-56.5 93.5q0 34 19 55.5t48 21.5q21 0 33.5 -10.5t12.5 -29.5q0 -39 -46 -39q-30 0 -38 36
q-11 -14 -11 -36q0 -56 58.5 -84.5t128.5 -28.5zM1415 1210h-26q108 75 170 180h108q-80 -86 -252 -180z" />
    <glyph glyph-name="Icircumflex" unicode="&#xce;" horiz-adv-x="961" 
d="M909 541q139 184 246 287.5t200.5 163.5t229.5 126q-202 -3 -353 -51t-245 -120t-138 -146t-44 -127q0 -113 104 -133zM242 -2q122 0 227 54t185.5 138.5t149 189l95.5 146.5q-64 15 -100.5 57.5t-36.5 106.5q0 53 39.5 126t136 145.5t266.5 120.5t422 48v-10
q-143 -62 -251.5 -140t-181 -157t-117.5 -149.5t-87 -147.5q241 3 289 283h14q-40 -299 -315 -299q-48 -96 -122 -188.5t-172.5 -170t-211 -122.5t-233.5 -45q-88 0 -144.5 35.5t-56.5 93.5q0 34 19 55.5t48 21.5q21 0 33.5 -10.5t12.5 -29.5q0 -39 -46 -39q-30 0 -38 36
q-11 -14 -11 -36q0 -56 58.5 -84.5t128.5 -28.5zM1317 1210h-27q210 104 307 182h66q-43 -113 -45 -182h-10q-22 79 -31 141q-74 -60 -260 -141z" />
    <glyph glyph-name="Idieresis" unicode="&#xcf;" horiz-adv-x="961" 
d="M909 541q139 184 246 287.5t200.5 163.5t229.5 126q-202 -3 -353 -51t-245 -120t-138 -146t-44 -127q0 -113 104 -133zM242 -2q122 0 227 54t185.5 138.5t149 189l95.5 146.5q-64 15 -100.5 57.5t-36.5 106.5q0 53 39.5 126t136 145.5t266.5 120.5t422 48v-10
q-143 -62 -251.5 -140t-181 -157t-117.5 -149.5t-87 -147.5q241 3 289 283h14q-40 -299 -315 -299q-48 -96 -122 -188.5t-172.5 -170t-211 -122.5t-233.5 -45q-88 0 -144.5 35.5t-56.5 93.5q0 34 19 55.5t48 21.5q21 0 33.5 -10.5t12.5 -29.5q0 -39 -46 -39q-30 0 -38 36
q-11 -14 -11 -36q0 -56 58.5 -84.5t128.5 -28.5zM1541 1315q32 0 32 -41q0 -25 -13.5 -44.5t-33.5 -19.5q-14 0 -23.5 11.5t-9.5 29.5q0 24 16 44t32 20zM1381 1315q33 0 33 -41q0 -26 -13.5 -45t-34.5 -19q-14 0 -23 12t-9 29q0 24 15 44t32 20z" />
    <glyph glyph-name="Igrave" unicode="&#xcc;" horiz-adv-x="961" 
d="M909 541q139 184 246 287.5t200.5 163.5t229.5 126q-202 -3 -353 -51t-245 -120t-138 -146t-44 -127q0 -113 104 -133zM242 -2q122 0 227 54t185.5 138.5t149 189l95.5 146.5q-64 15 -100.5 57.5t-36.5 106.5q0 53 39.5 126t136 145.5t266.5 120.5t422 48v-10
q-143 -62 -251.5 -140t-181 -157t-117.5 -149.5t-87 -147.5q241 3 289 283h14q-40 -299 -315 -299q-48 -96 -122 -188.5t-172.5 -170t-211 -122.5t-233.5 -45q-88 0 -144.5 35.5t-56.5 93.5q0 34 19 55.5t48 21.5q21 0 33.5 -10.5t12.5 -29.5q0 -39 -46 -39q-30 0 -38 36
q-11 -14 -11 -36q0 -56 58.5 -84.5t128.5 -28.5zM1544 1210h-12q-71 91 -94 182h92q-5 -109 14 -182z" />
    <glyph glyph-name="Oacute" unicode="&#xd3;" horiz-adv-x="897" 
d="M444 549h-12q48 120 123 214t156.5 153.5t157 88.5t126.5 29q50 0 79.5 -32.5t29.5 -88.5q0 -97 -86 -254t-224 -314t-291 -259t-282 -102q-77 0 -125.5 46t-48.5 138q0 104 52 215.5t157 232t256 242.5q170 135 322.5 203.5t289.5 68.5q86 0 135.5 -35.5t49.5 -97.5
q0 -69 -44 -109.5t-128 -62.5l2 15q78 18 116.5 60.5t38.5 96.5q0 57 -47 88t-129 31q-148 0 -306 -77.5t-296 -219.5q-81 -83 -157 -179t-139 -194.5t-100.5 -181.5t-37.5 -139q0 -52 35.5 -89.5t97.5 -37.5q124 0 274.5 100.5t289 255.5t225 309.5t86.5 249.5
q0 50 -24.5 79.5t-68.5 29.5q-51 0 -129 -31.5t-156 -90t-151 -149.5t-117 -202zM1110 1210h-26q108 75 170 180h108q-80 -86 -252 -180z" />
    <glyph glyph-name="Ocircumflex" unicode="&#xd4;" horiz-adv-x="897" 
d="M444 549h-12q48 120 123 214t156.5 153.5t157 88.5t126.5 29q50 0 79.5 -32.5t29.5 -88.5q0 -97 -86 -254t-224 -314t-291 -259t-282 -102q-77 0 -125.5 46t-48.5 138q0 104 52 215.5t157 232t256 242.5q170 135 322.5 203.5t289.5 68.5q86 0 135.5 -35.5t49.5 -97.5
q0 -69 -44 -109.5t-128 -62.5l2 15q78 18 116.5 60.5t38.5 96.5q0 57 -47 88t-129 31q-148 0 -306 -77.5t-296 -219.5q-81 -83 -157 -179t-139 -194.5t-100.5 -181.5t-37.5 -139q0 -52 35.5 -89.5t97.5 -37.5q124 0 274.5 100.5t289 255.5t225 309.5t86.5 249.5
q0 50 -24.5 79.5t-68.5 29.5q-51 0 -129 -31.5t-156 -90t-151 -149.5t-117 -202zM973 1210h-27q210 104 307 182h66q-43 -113 -45 -182h-10q-22 79 -31 141q-74 -60 -260 -141z" />
    <glyph glyph-name="Ograve" unicode="&#xd2;" horiz-adv-x="897" 
d="M444 549h-12q48 120 123 214t156.5 153.5t157 88.5t126.5 29q50 0 79.5 -32.5t29.5 -88.5q0 -97 -86 -254t-224 -314t-291 -259t-282 -102q-77 0 -125.5 46t-48.5 138q0 104 52 215.5t157 232t256 242.5q170 135 322.5 203.5t289.5 68.5q86 0 135.5 -35.5t49.5 -97.5
q0 -69 -44 -109.5t-128 -62.5l2 15q78 18 116.5 60.5t38.5 96.5q0 57 -47 88t-129 31q-148 0 -306 -77.5t-296 -219.5q-81 -83 -157 -179t-139 -194.5t-100.5 -181.5t-37.5 -139q0 -52 35.5 -89.5t97.5 -37.5q124 0 274.5 100.5t289 255.5t225 309.5t86.5 249.5
q0 50 -24.5 79.5t-68.5 29.5q-51 0 -129 -31.5t-156 -90t-151 -149.5t-117 -202zM1145 1210h-12q-71 91 -94 182h92q-5 -109 14 -182z" />
    <glyph glyph-name="Uacute" unicode="&#xda;" horiz-adv-x="897" 
d="M633 1028h14q-26 -76 -72 -139.5t-109 -116t-128.5 -80.5t-128.5 -28q-111 0 -111 90q0 77 70.5 166.5t189.5 149.5t252 60q162 0 162 -129q0 -149 -117 -284l-481 -547q-56 -65 -77 -93.5t-21 -45.5q0 -33 43 -33q92 0 233 99t273 225t184 186l463 524h92l-838 -954
q-26 -31 -26 -53q0 -27 30 -27q52 0 142.5 73t236.5 212v-17q-149 -143 -235.5 -212.5t-149.5 -69.5q-18 0 -31.5 13.5t-13.5 35.5q0 97 144 262q15 19 19 22l9 7q-140 -129 -244.5 -205.5t-172 -105.5t-121.5 -29q-40 0 -54 19t-14 30q0 55 33.5 113.5t101.5 136.5l463 528
q113 130 113 205q0 45 -37.5 72.5t-116.5 27.5q-123 0 -236 -59.5t-182 -145.5t-71 -153q-1 -36 26 -58t66 -22q64 0 146 39t158 118.5t124 192.5zM1087 1210h-26q108 75 170 180h108q-80 -86 -252 -180z" />
    <glyph glyph-name="Ucircumflex" unicode="&#xdb;" horiz-adv-x="897" 
d="M633 1028h14q-26 -76 -72 -139.5t-109 -116t-128.5 -80.5t-128.5 -28q-111 0 -111 90q0 77 70.5 166.5t189.5 149.5t252 60q162 0 162 -129q0 -149 -117 -284l-481 -547q-56 -65 -77 -93.5t-21 -45.5q0 -33 43 -33q92 0 233 99t273 225t184 186l463 524h92l-838 -954
q-26 -31 -26 -53q0 -27 30 -27q52 0 142.5 73t236.5 212v-17q-149 -143 -235.5 -212.5t-149.5 -69.5q-18 0 -31.5 13.5t-13.5 35.5q0 97 144 262q15 19 19 22l9 7q-140 -129 -244.5 -205.5t-172 -105.5t-121.5 -29q-40 0 -54 19t-14 30q0 55 33.5 113.5t101.5 136.5l463 528
q113 130 113 205q0 45 -37.5 72.5t-116.5 27.5q-123 0 -236 -59.5t-182 -145.5t-71 -153q-1 -36 26 -58t66 -22q64 0 146 39t158 118.5t124 192.5zM969 1210h-27q210 104 307 182h66q-43 -113 -45 -182h-10q-22 79 -31 141q-74 -60 -260 -141z" />
    <glyph glyph-name="Ugrave" unicode="&#xd9;" horiz-adv-x="897" 
d="M633 1028h14q-26 -76 -72 -139.5t-109 -116t-128.5 -80.5t-128.5 -28q-111 0 -111 90q0 77 70.5 166.5t189.5 149.5t252 60q162 0 162 -129q0 -149 -117 -284l-481 -547q-56 -65 -77 -93.5t-21 -45.5q0 -33 43 -33q92 0 233 99t273 225t184 186l463 524h92l-838 -954
q-26 -31 -26 -53q0 -27 30 -27q52 0 142.5 73t236.5 212v-17q-149 -143 -235.5 -212.5t-149.5 -69.5q-18 0 -31.5 13.5t-13.5 35.5q0 97 144 262q15 19 19 22l9 7q-140 -129 -244.5 -205.5t-172 -105.5t-121.5 -29q-40 0 -54 19t-14 30q0 55 33.5 113.5t101.5 136.5l463 528
q113 130 113 205q0 45 -37.5 72.5t-116.5 27.5q-123 0 -236 -59.5t-182 -145.5t-71 -153q-1 -36 26 -58t66 -22q64 0 146 39t158 118.5t124 192.5zM1145 1210h-12q-71 91 -94 182h92q-5 -109 14 -182z" />
    <glyph glyph-name="dotlessi" unicode="&#x131;" horiz-adv-x="319" 
d="M-10 244l-2 16q76 69 178 131h90l-236 -264q-25 -28 -32 -52t12 -24q50 0 149 74t183 156v-17q-97 -93 -187 -160t-147 -67q-33 0 -33 35q0 104 162 266q9 9 16.5 17.5t14.5 15.5q-90 -54 -168 -127z" />
    <glyph glyph-name="circumflex" unicode="&#x2c6;" horiz-adv-x="682" 
d="M379 602h-27q210 104 307 182h66q-43 -113 -45 -182h-10q-22 79 -31 141q-74 -60 -260 -141z" />
    <glyph glyph-name="tilde" unicode="&#x2dc;" horiz-adv-x="682" 
d="M365 602h-23q45 51 84 74q46 22 92 22q40 0 105 -26q55 -23 86 -23q44 0 92 47h20q-47 -53 -83 -73.5t-85 -20.5q-38 0 -110 27q-47 19 -78 22q-34 0 -49.5 -7.5t-50.5 -41.5z" />
    <glyph glyph-name="uni02C9" unicode="&#x2c9;" horiz-adv-x="682" 
d="M438 627l19 37h360l-18 -37h-361z" />
    <glyph glyph-name="breve" unicode="&#x2d8;" horiz-adv-x="682" 
d="M735 782h17q-109 -180 -228 -180q-43 0 -69.5 21t-26.5 57q0 50 49 102h21q-25 -32 -25 -63q0 -25 19.5 -42.5t46.5 -17.5q93 0 196 123z" />
    <glyph glyph-name="dotaccent" unicode="&#x2d9;" horiz-adv-x="682" 
d="M586 707q32 0 32 -41q0 -25 -13.5 -44.5t-33.5 -19.5q-14 0 -23 12t-9 29q0 24 15 44t32 20z" />
    <glyph glyph-name="ring" unicode="&#x2da;" horiz-adv-x="682" 
d="M471 793q41 0 68.5 -27.5t27.5 -67.5q0 -38 -28 -67t-66 -29t-67 29t-29 67q0 39 28 67t66 28zM475 778q-34 0 -58 -23t-24 -57t24 -58t56 -24q36 0 58 23t22 57q0 20 -10 39.5t-27 31t-41 11.5z" />
    <glyph glyph-name="cedilla" unicode="&#xb8;" horiz-adv-x="682" 
d="M121 43h18l-18 -23q31 -4 31 -36q0 -66 -152 -66v14q115 0 115 58q0 13 -15 28z" />
    <glyph glyph-name="hungarumlaut" unicode="&#x2dd;" horiz-adv-x="682" 
d="M518 602h-24q106 76 168 180h108q-80 -86 -252 -180zM748 602h-25q105 74 168 180h108q-43 -46 -98 -86.5t-153 -93.5z" />
    <glyph glyph-name="ogonek" unicode="&#x2db;" horiz-adv-x="682" 
d="M317 -104l2 -19q-39 -43 -71.5 -60.5t-73.5 -17.5q-43 0 -68.5 21.5t-25.5 58.5q0 53 55 105l35 14q-41 -59 -41 -94q0 -29 21.5 -49.5t48.5 -20.5q54 0 118 62z" />
    <glyph glyph-name="caron" unicode="&#x2c7;" horiz-adv-x="682" 
d="M530 602h-63q42 115 45 182h12q18 -72 29 -141q78 60 256 141h29q-190 -88 -308 -182z" />
    <glyph glyph-name="Scaron" unicode="&#x160;" horiz-adv-x="1110" 
d="M1094 586q107 66 210.5 142.5t190 151.5t134.5 129t48 76q0 31 -39 31q-82 0 -182 -68t-186 -174q-46 -55 -86.5 -122t-89.5 -166zM1087 569l-20 -39q-287 -546 -788 -546q-106 0 -167 33.5t-61 91.5q0 25 12.5 44t38.5 19q19 0 30 -12t11 -29q0 -10 -9.5 -20.5
t-22.5 -10.5q-15 0 -21.5 2.5t-15.5 18.5q-4 -4 -4 -23q0 -20 17.5 -43t68.5 -40t137 -17q177 0 317 92.5t225.5 206t153.5 240.5q-130 -37 -223 -37q-127 0 -210 61.5t-83 155.5q0 102 91 201t252.5 162t352.5 63v-13q-200 -1 -355.5 -66t-236.5 -159t-81 -180
q0 -95 74 -154t192 -59q116 0 239 43q11 13 35 51q84 130 170 230.5t162 164.5t145 96.5t123 32.5q56 0 56 -43q0 -68 -91.5 -171t-231.5 -199t-282 -148zM1564 1210h-63q42 115 45 182h12q18 -72 29 -141q78 60 256 141h29q-190 -88 -308 -182z" />
    <glyph glyph-name="scaron" unicode="&#x161;" horiz-adv-x="426" 
d="M-12 258l209 180l44 53.5t29 24.5q8 0 14.5 -4.5t6.5 -13.5q0 -19 -55 -47q32 -48 46 -84t17 -91q-3 -34 -8 -57q36 -9 65.5 1.5t81.5 62.5v-17q-40 -50 -74 -62t-79 1q-24 -54 -78 -92.5t-111 -57t-98 -18.5q-39 0 -63.5 15.5t-24.5 43.5q0 25 14.5 40.5t42.5 15.5
q18 0 29.5 -9.5t11.5 -25.5q0 -13 -12.5 -23t-26.5 -10q-19 0 -28 31q-13 -9 -13 -27q0 -11 20.5 -24t47.5 -13q53 0 112 45.5t98.5 114.5t39.5 133q0 46 -29 94l-229 -196v16zM317 602h-63q42 115 45 182h12q18 -72 29 -141q78 60 256 141h29q-190 -88 -308 -182z" />
    <glyph glyph-name="brokenbar" unicode="&#xa6;" horiz-adv-x="1004" 
d="M479 193h43v-596h-43v596zM479 920h43v-596h-43v596z" />
    <glyph glyph-name="Eth" unicode="&#xd0;" horiz-adv-x="1386" 
d="M1386 924q-66 -50 -156.5 -182.5t-170.5 -276.5h125l-6 -16h-129q-74 -107 -142 -177t-134.5 -114t-135.5 -71.5t-168 -61.5q103 -27 186 -27q167 0 309 80.5t242.5 205.5t154.5 259t54 233q0 72 -29 148zM995 969h15q0 -103 -47 -202t-125 -181t-166.5 -129t-167.5 -47
q-156 0 -156 161q0 103 58 204t160 182t228 127t257 46q126 0 206 -42.5t136 -139.5q65 59 202 121l7 -10q-103 -53 -203 -125q20 -51 25.5 -83t5.5 -79q0 -102 -54 -237.5t-156.5 -262t-247 -207.5t-317.5 -81q-122 0 -213 32q-123 -32 -252 -32q-157 0 -157 51
q0 29 35.5 45t97.5 16q70 0 130.5 -14.5t145.5 -48.5q131 29 226 94.5t158.5 143.5t129.5 178h-145l6 14h152q114 169 222 289.5t189 187.5q-52 92 -129 134t-194 42q-141 0 -268.5 -59t-220 -150.5t-144 -189.5t-51.5 -168q0 -58 34.5 -91.5t92.5 -33.5q71 0 157.5 46.5
t163 123.5t125.5 178t49 197zM418 27q-83 29 -136 42t-114 13q-54 0 -87.5 -13t-33.5 -34q0 -37 123 -37q135 0 248 29z" />
    <glyph glyph-name="eth" unicode="&#xf0;" horiz-adv-x="532" 
d="M590 760l39 160h16l-35 -152l127 45v-16l-129 -45q-45 -183 -124 -321t-169 -225t-171 -128t-134 -41q-37 0 -59.5 23.5t-22.5 62.5q0 68 59 131t142.5 104t142.5 41q33 0 52 -16t21.5 -40.5t-9.5 -53.5q85 108 122 160.5t65.5 117t60.5 174.5l-99 -30v16zM279 385
q-41 0 -116 -59.5t-136.5 -131t-61.5 -102.5q0 -41 49 -41q32 0 84.5 30t106.5 77.5t89.5 96.5t35.5 85q0 20 -14.5 32.5t-36.5 12.5z" />
    <glyph glyph-name="Yacute" unicode="&#xdd;" horiz-adv-x="918" 
d="M741 993l15 -2q-15 -65 -78 -136.5t-153.5 -117t-180.5 -45.5q-38 0 -70 21.5t-32 72.5q0 77 69 158t176.5 133.5t212.5 52.5q174 0 174 -157q0 -49 -17.5 -97.5t-55 -101.5t-105.5 -127l-39 -43l-41 -41q-105 -109 -147.5 -161t-42.5 -80q0 -19 16 -33.5t45 -14.5
q75 0 160.5 47t159 112t119.5 118l434 481h86l-559 -633q-129 -146 -225 -233t-195.5 -134.5t-208.5 -47.5q-56 0 -100 16.5t-68 47.5t-24 71q0 36 18 57t51 21q37 0 37 -33q0 -31 -33 -31q-25 0 -35 35q-10 -3 -17 -18t-7 -31q0 -54 51 -87.5t127 -33.5q99 0 187.5 44
t162 115.5t146.5 164.5l133 170q-113 -127 -220 -179.5t-175 -52.5q-80 0 -80 70q0 58 47 139.5t217 251.5q97 97 137.5 163t40.5 122q0 50 -40 80t-103 30q-116 0 -222 -54.5t-169.5 -132.5t-63.5 -141q0 -38 25 -59.5t65 -21.5q92 0 176.5 44.5t144 114t74.5 127.5z
M1163 1210h-26q108 75 170 180h108q-80 -86 -252 -180z" />
    <glyph glyph-name="yacute" unicode="&#xfd;" horiz-adv-x="662" 
d="M141 -49q-210 -105 -355.5 -212t-145.5 -179q0 -18 12.5 -29.5t30.5 -11.5q35 0 79 24.5t98.5 76.5t127.5 138l84.5 103.5t68.5 89.5zM-12 242v16q80 69 131.5 105t89.5 36q31 0 31 -41q0 -87 -119 -192q-86 -76 -86 -100q0 -15 18 -15q37 0 128.5 61.5t190 143
t152.5 135.5h76l-321 -366q112 45 192.5 98.5t202.5 159.5v-17q-114 -105 -200 -161t-218 -105l-18 -20q-209 -234 -338 -355t-213 -121q-62 0 -62 58q0 42 56.5 105.5t175.5 141t303 162.5q98 126 254 297l-140 -108t-81 -58.5t-83.5 -48.5t-64.5 -16q-17 0 -28 11t-11 30
q0 33 13 63t41.5 60.5t76.5 66.5q86 64 86 99q0 18 -20 18q-34 0 -88 -41t-127 -102zM426 602h-26q108 75 170 180h108q-80 -86 -252 -180z" />
    <glyph glyph-name="Thorn" unicode="&#xde;" horiz-adv-x="1153" 
d="M967 748h16q-34 -118 -94.5 -212t-135 -160t-155 -103t-147.5 -37q-61 0 -95 36t-34 88q0 106 108.5 237t281.5 221.5t357 90.5q86 0 168 -30q113 108 187 159.5t180 94.5v-15q-90 -35 -168.5 -93.5t-171.5 -158.5q108 -65 108 -184q0 -95 -43 -162.5t-100.5 -102
t-95.5 -34.5q-28 0 -46 16t-18 43q0 132 201 193l4 -14q-100 -24 -145.5 -77.5t-45.5 -97.5q0 -20 14.5 -34.5t35.5 -14.5q38 0 88 44t86 114t36 143q0 100 -94 152q-57 -69 -137 -209l-27 -47q-83 -147 -136 -226t-109 -135q-72 -72 -170.5 -128t-206.5 -88.5t-207 -32.5
q-85 0 -140 35t-55 90q0 34 21.5 57.5t50.5 23.5q43 0 43 -43t-39 -43q-36 0 -47 46q-14 -9 -14 -39q0 -47 51 -78t127 -31q164 0 295 78t220 181.5t189 250.5l39 57q56 83 111 154t115 141q-77 33 -144 33q-144 0 -277.5 -53.5t-238.5 -139.5t-166 -177.5t-61 -159.5
q0 -48 30.5 -82.5t77.5 -34.5q67 0 142.5 33t149.5 98t135 157t96 210z" />
    <glyph glyph-name="thorn" unicode="&#xfe;" horiz-adv-x="598" 
d="M643 905h80l-653 -729l144 112.5t116 76t102 34.5q37 0 37 -51q0 -44 -29.5 -85.5t-97.5 -94.5q-88 -68 -88 -94q0 -23 29 -23q40 0 91 33t104 79.5l130 119.5v-17q-114 -114 -190 -171.5t-137 -57.5q-48 3 -48 47q0 69 127 184q82 74 82 97q0 20 -20 20
q-28 0 -121 -59.5t-189 -137.5t-132 -120l-402 -471h-88l868 1001l-95 -93l-120 -118q-91 -91 -155 -145v16l70.5 68l82.5 80l207 204l86 85l104 104.5z" />
    <glyph glyph-name="multiply" unicode="&#xd7;" 
d="M176 612l262 -262l260 262l31 -30l-262 -263l262 -260l-31 -30l-260 262l-262 -262l-31 30l263 260l-263 263z" />
    <glyph glyph-name="onesuperior" unicode="&#xb9;" horiz-adv-x="406" 
d="M182 571l-6 13q58 20 148.5 66t160.5 93h17l-281 -329h-78l289 278l-59 -30q-110 -61 -191 -91z" />
    <glyph glyph-name="twosuperior" unicode="&#xb2;" horiz-adv-x="406" 
d="M326 655l8 -10q-24 -29 -50 -45t-40 -16q-29 0 -29 30q0 23 32 53.5t75 53t69 22.5q33 0 44 -16t11 -47q0 -49 -40.5 -86t-139.5 -80q-76 -31 -104 -51q12 4 28 4q8 0 43 -8t41 -8q15 0 30.5 9.5t41.5 33.5l10 -9q-60 -71 -114 -71q-4 0 -52 10t-63 10q-23 0 -41 -18h-18
q23 23 129 88l56.5 35.5t73.5 50t59.5 55.5t25.5 57t-29 27q-32 0 -93 -44.5t-61 -70.5q0 -16 15 -16q25 0 82 57z" />
    <glyph glyph-name="threesuperior" unicode="&#xb3;" horiz-adv-x="406" 
d="M264 567l-4 11q123 47 158 67t35 49q0 35 -47 35q-44 0 -81.5 -21t-37.5 -40t18 -19q37 0 74 35l10 -10q-39 -39 -84 -39q-14 0 -24.5 8t-10.5 21q0 29 46 54t106 25q76 0 76 -51q0 -35 -35 -55.5t-107 -42.5q25 -18 25 -45q0 -52 -72.5 -93.5t-163.5 -41.5q-77 0 -77 47
q0 13 8 23t20 10q25 0 25 -23q0 -22 -21 -22q-10 0 -14 8q-8 -6 7.5 -17.5t37.5 -11.5q45 0 93.5 27t81 62t32.5 52q0 13 -16 13q-13 0 -58 -15z" />
    <glyph glyph-name="onehalf" unicode="&#xbd;" horiz-adv-x="618" 
d="M383 223l8 -10q-24 -29 -49 -45t-41 -16q-29 0 -29 30q0 22 32.5 52.5t75.5 53.5t69 23q33 0 44 -16t11 -47q0 -49 -40.5 -86t-139.5 -80q-79 -34 -105 -51q12 4 29 4q10 0 44 -8.5t40 -8.5q25 0 71 43l11 -8q-60 -71 -115 -71q-2 0 -51 10t-64 10q-22 0 -41 -18h-18
q25 24 129 88q90 54 152.5 102t62.5 96q0 27 -29 27q-33 0 -93 -44.5t-60 -70.5q0 -16 14 -16q25 0 82 57zM-29 98l805 543l12 -14l-806 -543zM309 571l-6 13q58 20 148.5 66t160.5 93h17l-281 -329h-78l289 278l-59 -30q-139 -72 -191 -91z" />
    <glyph glyph-name="onequarter" unicode="&#xbc;" horiz-adv-x="618" 
d="M-29 98l805 543l12 -14l-806 -543zM145 76l244 235h90l-305 -231q35 6 55 6q44 0 80 -6l99 88l14 -10l-60 -76q11 0 68 14v-14q-32 -16 -80 -16l-65 -84l-86 2l92 82q-25 6 -62 6q-47 0 -79 -11zM309 571l-6 13q58 20 148.5 66t160.5 93h17l-281 -329h-78l289 278
l-59 -30q-139 -72 -191 -91z" />
    <glyph glyph-name="threequarters" unicode="&#xbe;" horiz-adv-x="618" 
d="M381 567l-4 11q123 47 157.5 67t34.5 49q0 35 -47 35q-42 0 -80.5 -21.5t-38.5 -39.5q0 -19 19 -19q37 0 74 35l10 -10q-39 -39 -84 -39q-14 0 -24.5 8t-10.5 21q0 29 46 54t106 25q75 0 75 -51q0 -35 -35.5 -56t-105.5 -42q25 -19 25 -45q0 -52 -72.5 -93.5
t-163.5 -41.5q-78 0 -78 47q0 13 9 23t20 10q25 0 25 -23q0 -22 -21 -22q-10 0 -14 8q-8 -6 7.5 -17.5t37.5 -11.5q45 0 93.5 27t81 62t32.5 52q0 13 -17 13q-12 0 -57 -15zM-29 98l805 543l12 -14l-806 -543zM145 76l244 235h90l-305 -231q35 6 55 6q44 0 80 -6l99 88
l14 -10l-60 -76q11 0 68 14v-14q-32 -16 -80 -16l-65 -84l-86 2l92 82q-25 6 -62 6q-47 0 -79 -11z" />
    <glyph glyph-name="macron" unicode="&#xaf;" horiz-adv-x="1024" 
d="M1040 1386v-102h-1056v102h1056z" />
    </font>
</defs>
</svg>
